<svg width="583" height="525" viewBox="0 0 583 525" fill="none" xmlns="http://www.w3.org/2000/svg">
<rect width="583" height="525" fill="#F0F0F0"/>
<circle cx="139" cy="70" r="28" fill="#D9D9D9"/>
<circle cx="139" cy="131" r="28" fill="#D9D9D9"/>
<circle cx="200" cy="131" r="28" fill="#D9D9D9"/>
<circle cx="139" cy="192" r="28" fill="#D9D9D9"/>
<circle cx="139" cy="253" r="28" fill="#D9D9D9"/>
<circle cx="139" cy="314" r="28" fill="#D9D9D9"/>
<circle cx="200" cy="314" r="28" fill="#D9D9D9"/>
<circle cx="200" cy="253" r="28" fill="#D9D9D9"/>
<circle cx="261" cy="253" r="28" fill="#D9D9D9"/>
<circle cx="322" cy="253" r="28" fill="#D9D9D9"/>
<circle cx="383" cy="253" r="28" fill="#D9D9D9"/>
<circle cx="200" cy="192" r="28" fill="#D9D9D9"/>
<circle cx="261" cy="192" r="28" fill="#D9D9D9"/>
<circle cx="322" cy="192" r="28" fill="#D9D9D9"/>
<circle cx="261" cy="314" r="28" fill="#D9D9D9"/>
<circle cx="322" cy="70" r="28" fill="#D9D9D9"/>
<circle cx="383" cy="70" r="28" fill="#D9D9D9"/>
<circle cx="444" cy="70" r="28" fill="#D9D9D9"/>
<circle cx="261" cy="70" r="28" fill="#D9D9D9"/>
<circle cx="200" cy="70" r="28" fill="#D9D9D9"/>
</svg>
