<svg width="583" height="525" viewBox="0 0 583 525" fill="none" xmlns="http://www.w3.org/2000/svg">
<rect width="583" height="525" fill="#F0F0F0"/>
<circle cx="139" cy="70" r="28" fill="#D9D9D9"/>
<circle cx="139" cy="131" r="28" fill="#D9D9D9"/>
<circle cx="200" cy="131" r="28" fill="#D9D9D9"/>
<circle cx="139" cy="192" r="28" fill="#D9D9D9"/>
<circle cx="139" cy="253" r="28" fill="#D9D9D9"/>
<circle cx="139" cy="314" r="28" fill="#D9D9D9"/>
<circle cx="200" cy="314" r="28" fill="#D9D9D9"/>
<circle cx="200" cy="253" r="28" fill="#D9D9D9"/>
<circle cx="261" cy="253" r="28" fill="#D9D9D9"/>
<circle cx="322" cy="253" r="28" fill="#D9D9D9"/>
<circle cx="383" cy="253" r="28" fill="#D9D9D9"/>
<circle cx="200" cy="192" r="28" fill="#D9D9D9"/>
<circle cx="261" cy="192" r="28" fill="#D9D9D9"/>
<circle cx="322" cy="192" r="28" fill="#D9D9D9"/>
<circle cx="261" cy="314" r="28" fill="#D9D9D9"/>
<circle cx="322" cy="70" r="28" fill="#D9D9D9"/>
<circle cx="383" cy="70" r="28" fill="#D9D9D9"/>
<circle cx="444" cy="70" r="28" fill="#D9D9D9"/>
<circle cx="261" cy="70" r="28" fill="#D9D9D9"/>
<circle cx="200" cy="70" r="28" fill="#D9D9D9"/>
<line x1="108" y1="100.5" x2="474" y2="100.5" stroke="black"/>
<line x1="108" y1="38.5" x2="474" y2="38.5" stroke="black"/>
<line x1="108" y1="161.5" x2="474" y2="161.5" stroke="black"/>
<line x1="108" y1="222.5" x2="474" y2="222.5" stroke="black"/>
<line x1="108" y1="283.5" x2="474" y2="283.5" stroke="black"/>
<line x1="108" y1="346.5" x2="474" y2="346.5" stroke="black"/>
<line x1="108.5" y1="39" x2="108.5" y2="347" stroke="black"/>
<line x1="169.5" y1="39" x2="169.5" y2="347" stroke="black"/>
<line x1="230.5" y1="39" x2="230.5" y2="347" stroke="black"/>
<line x1="291.5" y1="39" x2="291.5" y2="347" stroke="black"/>
<line x1="352.5" y1="39" x2="352.5" y2="347" stroke="black"/>
<line x1="413.5" y1="39" x2="413.5" y2="347" stroke="black"/>
<line x1="474.5" y1="38" x2="474.5" y2="347" stroke="black"/>
<path d="M81.0682 76.1591C80.5909 76.1515 80.1136 76.0606 79.6364 75.8864C79.1591 75.7121 78.7235 75.4186 78.3295 75.0057C77.9356 74.589 77.6193 74.0265 77.3807 73.3182C77.142 72.6061 77.0227 71.7121 77.0227 70.6364C77.0227 69.6061 77.1193 68.6932 77.3125 67.8977C77.5057 67.0985 77.786 66.4261 78.1534 65.8807C78.5208 65.3314 78.964 64.9148 79.483 64.6307C80.0057 64.3466 80.5947 64.2045 81.25 64.2045C81.9015 64.2045 82.4811 64.3352 82.9886 64.5966C83.5 64.8542 83.9167 65.214 84.2386 65.6761C84.5606 66.1383 84.7689 66.6705 84.8636 67.2727H83.4773C83.3485 66.75 83.0985 66.3163 82.7273 65.9716C82.3561 65.6269 81.8636 65.4545 81.25 65.4545C80.3485 65.4545 79.6383 65.8466 79.1193 66.6307C78.6042 67.4148 78.3447 68.5152 78.3409 69.9318H78.4318C78.6439 69.6098 78.8958 69.3352 79.1875 69.108C79.483 68.8769 79.8087 68.6989 80.1648 68.5739C80.5208 68.4489 80.8977 68.3864 81.2955 68.3864C81.9621 68.3864 82.572 68.553 83.125 68.8864C83.678 69.2159 84.1212 69.6723 84.4545 70.2557C84.7879 70.8352 84.9545 71.5 84.9545 72.25C84.9545 72.9697 84.7936 73.6288 84.4716 74.2273C84.1496 74.822 83.697 75.2955 83.1136 75.6477C82.5341 75.9962 81.8523 76.1667 81.0682 76.1591ZM81.0682 74.9091C81.5455 74.9091 81.9735 74.7898 82.3523 74.5511C82.7348 74.3125 83.036 73.9924 83.2557 73.5909C83.4792 73.1894 83.5909 72.7424 83.5909 72.25C83.5909 71.7689 83.483 71.3314 83.267 70.9375C83.0549 70.5398 82.7614 70.2235 82.3864 69.9886C82.0152 69.7538 81.5909 69.6364 81.1136 69.6364C80.7538 69.6364 80.4186 69.7083 80.108 69.8523C79.7973 69.9924 79.5246 70.1856 79.2898 70.4318C79.0587 70.678 78.8769 70.9602 78.7443 71.2784C78.6117 71.5928 78.5455 71.9242 78.5455 72.2727C78.5455 72.7348 78.6534 73.1667 78.8693 73.5682C79.089 73.9697 79.3883 74.2936 79.767 74.5398C80.1496 74.786 80.5833 74.9091 81.0682 74.9091Z" fill="black"/>
<path d="M77.2045 137V135.977L81.0455 131.773C81.4962 131.28 81.8674 130.852 82.1591 130.489C82.4508 130.121 82.6667 129.777 82.8068 129.455C82.9508 129.129 83.0227 128.788 83.0227 128.432C83.0227 128.023 82.9242 127.669 82.7273 127.369C82.5341 127.07 82.2689 126.839 81.9318 126.676C81.5947 126.513 81.2159 126.432 80.7955 126.432C80.3485 126.432 79.9583 126.525 79.625 126.71C79.2955 126.892 79.0398 127.148 78.858 127.477C78.6799 127.807 78.5909 128.193 78.5909 128.636H77.25C77.25 127.955 77.4072 127.356 77.7216 126.841C78.036 126.326 78.464 125.924 79.0057 125.636C79.5511 125.348 80.1629 125.205 80.8409 125.205C81.5227 125.205 82.1269 125.348 82.6534 125.636C83.1799 125.924 83.5928 126.312 83.892 126.801C84.1913 127.29 84.3409 127.833 84.3409 128.432C84.3409 128.86 84.2633 129.278 84.108 129.688C83.9564 130.093 83.6913 130.545 83.3125 131.045C82.9375 131.542 82.4167 132.148 81.75 132.864L79.1364 135.659V135.75H84.5455V137H77.2045Z" fill="black"/>
<path d="M76.9318 195.614V194.455L82.0455 186.364H82.8864V188.159H82.3182L78.4545 194.273V194.364H85.3409V195.614H76.9318ZM82.4091 198V195.261V194.722V186.364H83.75V198H82.4091Z" fill="black"/>
<path d="M80.8409 259.159C80.1742 259.159 79.5739 259.027 79.0398 258.761C78.5057 258.496 78.0777 258.133 77.7557 257.67C77.4337 257.208 77.2576 256.682 77.2273 256.091H78.5909C78.6439 256.617 78.8826 257.053 79.3068 257.398C79.7348 257.739 80.2462 257.909 80.8409 257.909C81.3182 257.909 81.7424 257.797 82.1136 257.574C82.4886 257.35 82.7822 257.044 82.9943 256.653C83.2102 256.259 83.3182 255.814 83.3182 255.318C83.3182 254.811 83.2064 254.358 82.983 253.96C82.7633 253.559 82.4602 253.242 82.0739 253.011C81.6875 252.78 81.2462 252.663 80.75 252.659C80.3939 252.655 80.0284 252.71 79.6534 252.824C79.2784 252.934 78.9697 253.076 78.7273 253.25L77.4091 253.091L78.1136 247.364H84.1591V248.614H79.2955L78.8864 252.045H78.9545C79.1932 251.856 79.4924 251.699 79.8523 251.574C80.2121 251.449 80.5871 251.386 80.9773 251.386C81.6894 251.386 82.3239 251.557 82.8807 251.898C83.4413 252.235 83.8807 252.697 84.1989 253.284C84.5208 253.871 84.6818 254.542 84.6818 255.295C84.6818 256.038 84.5152 256.701 84.1818 257.284C83.8523 257.864 83.3977 258.322 82.8182 258.659C82.2386 258.992 81.5795 259.159 80.8409 259.159Z" fill="black"/>
<path d="M81.1364 320.159C80.3864 320.159 79.7178 320.03 79.1307 319.773C78.5473 319.515 78.0833 319.157 77.7386 318.699C77.3977 318.237 77.2121 317.701 77.1818 317.091H78.6136C78.6439 317.466 78.7727 317.79 79 318.062C79.2273 318.331 79.5246 318.54 79.892 318.688C80.2595 318.835 80.6667 318.909 81.1136 318.909C81.6136 318.909 82.0568 318.822 82.4432 318.648C82.8295 318.473 83.1326 318.231 83.3523 317.92C83.572 317.61 83.6818 317.25 83.6818 316.841C83.6818 316.413 83.5758 316.036 83.3636 315.71C83.1515 315.381 82.8409 315.123 82.4318 314.938C82.0227 314.752 81.5227 314.659 80.9318 314.659H80V313.409H80.9318C81.3939 313.409 81.7992 313.326 82.1477 313.159C82.5 312.992 82.7746 312.758 82.9716 312.455C83.1723 312.152 83.2727 311.795 83.2727 311.386C83.2727 310.992 83.1856 310.65 83.0114 310.358C82.8371 310.066 82.5909 309.839 82.2727 309.676C81.9583 309.513 81.5871 309.432 81.1591 309.432C80.7576 309.432 80.3788 309.506 80.0227 309.653C79.6705 309.797 79.3826 310.008 79.1591 310.284C78.9356 310.557 78.8144 310.886 78.7955 311.273H77.4318C77.4545 310.663 77.6383 310.129 77.983 309.67C78.3277 309.208 78.7784 308.848 79.3352 308.591C79.8958 308.333 80.5114 308.205 81.1818 308.205C81.9015 308.205 82.5189 308.35 83.0341 308.642C83.5492 308.93 83.9451 309.311 84.2216 309.784C84.4981 310.258 84.6364 310.769 84.6364 311.318C84.6364 311.973 84.464 312.532 84.1193 312.994C83.7784 313.456 83.3144 313.777 82.7273 313.955V314.045C83.4621 314.167 84.036 314.479 84.4489 314.983C84.8617 315.483 85.0682 316.102 85.0682 316.841C85.0682 317.473 84.8958 318.042 84.5511 318.545C84.2102 319.045 83.7443 319.439 83.1534 319.727C82.5625 320.015 81.8902 320.159 81.1364 320.159Z" fill="black"/>
<path d="M139.295 22.3636V34H137.886V23.8409H137.818L134.977 25.7273V24.2955L137.886 22.3636H139.295Z" fill="#DD0000"/>
<path d="M196.205 34V32.9773L200.045 28.7727C200.496 28.2803 200.867 27.8523 201.159 27.4886C201.451 27.1212 201.667 26.7765 201.807 26.4545C201.951 26.1288 202.023 25.7879 202.023 25.4318C202.023 25.0227 201.924 24.6686 201.727 24.3693C201.534 24.0701 201.269 23.839 200.932 23.6761C200.595 23.5133 200.216 23.4318 199.795 23.4318C199.348 23.4318 198.958 23.5246 198.625 23.7102C198.295 23.892 198.04 24.1477 197.858 24.4773C197.68 24.8068 197.591 25.1932 197.591 25.6364H196.25C196.25 24.9545 196.407 24.3561 196.722 23.8409C197.036 23.3258 197.464 22.9242 198.006 22.6364C198.551 22.3485 199.163 22.2045 199.841 22.2045C200.523 22.2045 201.127 22.3485 201.653 22.6364C202.18 22.9242 202.593 23.3125 202.892 23.8011C203.191 24.2898 203.341 24.8333 203.341 25.4318C203.341 25.8598 203.263 26.2784 203.108 26.6875C202.956 27.0928 202.691 27.5455 202.312 28.0455C201.938 28.5417 201.417 29.1477 200.75 29.8636L198.136 32.6591V32.75H203.545V34H196.205Z" fill="#DD0000"/>
<path d="M261.136 34.1591C260.386 34.1591 259.718 34.0303 259.131 33.7727C258.547 33.5152 258.083 33.1572 257.739 32.6989C257.398 32.2367 257.212 31.7008 257.182 31.0909H258.614C258.644 31.4659 258.773 31.7898 259 32.0625C259.227 32.3314 259.525 32.5398 259.892 32.6875C260.259 32.8352 260.667 32.9091 261.114 32.9091C261.614 32.9091 262.057 32.822 262.443 32.6477C262.83 32.4735 263.133 32.2311 263.352 31.9205C263.572 31.6098 263.682 31.25 263.682 30.8409C263.682 30.4129 263.576 30.036 263.364 29.7102C263.152 29.3807 262.841 29.1231 262.432 28.9375C262.023 28.7519 261.523 28.6591 260.932 28.6591H260V27.4091H260.932C261.394 27.4091 261.799 27.3258 262.148 27.1591C262.5 26.9924 262.775 26.7576 262.972 26.4545C263.172 26.1515 263.273 25.7955 263.273 25.3864C263.273 24.9924 263.186 24.6496 263.011 24.358C262.837 24.0663 262.591 23.839 262.273 23.6761C261.958 23.5133 261.587 23.4318 261.159 23.4318C260.758 23.4318 260.379 23.5057 260.023 23.6534C259.67 23.7973 259.383 24.0076 259.159 24.2841C258.936 24.5568 258.814 24.8864 258.795 25.2727H257.432C257.455 24.6629 257.638 24.1288 257.983 23.6705C258.328 23.2083 258.778 22.8485 259.335 22.5909C259.896 22.3333 260.511 22.2045 261.182 22.2045C261.902 22.2045 262.519 22.3504 263.034 22.642C263.549 22.9299 263.945 23.3106 264.222 23.7841C264.498 24.2576 264.636 24.7689 264.636 25.3182C264.636 25.9735 264.464 26.5322 264.119 26.9943C263.778 27.4564 263.314 27.7765 262.727 27.9545V28.0455C263.462 28.1667 264.036 28.4792 264.449 28.983C264.862 29.483 265.068 30.1023 265.068 30.8409C265.068 31.4735 264.896 32.0417 264.551 32.5455C264.21 33.0455 263.744 33.4394 263.153 33.7273C262.563 34.0152 261.89 34.1591 261.136 34.1591Z" fill="#DD0000"/>
<path d="M317.932 31.6136V30.4545L323.045 22.3636H323.886V24.1591H323.318L319.455 30.2727V30.3636H326.341V31.6136H317.932ZM323.409 34V31.2614V30.7216V22.3636H324.75V34H323.409Z" fill="#DD0000"/>
<path d="M382.841 34.1591C382.174 34.1591 381.574 34.0265 381.04 33.7614C380.506 33.4962 380.078 33.1326 379.756 32.6705C379.434 32.2083 379.258 31.6818 379.227 31.0909H380.591C380.644 31.6174 380.883 32.053 381.307 32.3977C381.735 32.7386 382.246 32.9091 382.841 32.9091C383.318 32.9091 383.742 32.7973 384.114 32.5739C384.489 32.3504 384.782 32.0436 384.994 31.6534C385.21 31.2595 385.318 30.8144 385.318 30.3182C385.318 29.8106 385.206 29.358 384.983 28.9602C384.763 28.5587 384.46 28.2424 384.074 28.0114C383.688 27.7803 383.246 27.6629 382.75 27.6591C382.394 27.6553 382.028 27.7102 381.653 27.8239C381.278 27.9337 380.97 28.0758 380.727 28.25L379.409 28.0909L380.114 22.3636H386.159V23.6136H381.295L380.886 27.0455H380.955C381.193 26.8561 381.492 26.6989 381.852 26.5739C382.212 26.4489 382.587 26.3864 382.977 26.3864C383.689 26.3864 384.324 26.5568 384.881 26.8977C385.441 27.2348 385.881 27.697 386.199 28.2841C386.521 28.8712 386.682 29.5417 386.682 30.2955C386.682 31.0379 386.515 31.7008 386.182 32.2841C385.852 32.8636 385.398 33.322 384.818 33.6591C384.239 33.9924 383.58 34.1591 382.841 34.1591Z" fill="#DD0000"/>
<path d="M444.068 34.1591C443.591 34.1515 443.114 34.0606 442.636 33.8864C442.159 33.7121 441.723 33.4186 441.33 33.0057C440.936 32.589 440.619 32.0265 440.381 31.3182C440.142 30.6061 440.023 29.7121 440.023 28.6364C440.023 27.6061 440.119 26.6932 440.312 25.8977C440.506 25.0985 440.786 24.4261 441.153 23.8807C441.521 23.3314 441.964 22.9148 442.483 22.6307C443.006 22.3466 443.595 22.2045 444.25 22.2045C444.902 22.2045 445.481 22.3352 445.989 22.5966C446.5 22.8542 446.917 23.214 447.239 23.6761C447.561 24.1383 447.769 24.6705 447.864 25.2727H446.477C446.348 24.75 446.098 24.3163 445.727 23.9716C445.356 23.6269 444.864 23.4545 444.25 23.4545C443.348 23.4545 442.638 23.8466 442.119 24.6307C441.604 25.4148 441.345 26.5152 441.341 27.9318H441.432C441.644 27.6098 441.896 27.3352 442.188 27.108C442.483 26.8769 442.809 26.6989 443.165 26.5739C443.521 26.4489 443.898 26.3864 444.295 26.3864C444.962 26.3864 445.572 26.553 446.125 26.8864C446.678 27.2159 447.121 27.6723 447.455 28.2557C447.788 28.8352 447.955 29.5 447.955 30.25C447.955 30.9697 447.794 31.6288 447.472 32.2273C447.15 32.822 446.697 33.2955 446.114 33.6477C445.534 33.9962 444.852 34.1667 444.068 34.1591ZM444.068 32.9091C444.545 32.9091 444.973 32.7898 445.352 32.5511C445.735 32.3125 446.036 31.9924 446.256 31.5909C446.479 31.1894 446.591 30.7424 446.591 30.25C446.591 29.7689 446.483 29.3314 446.267 28.9375C446.055 28.5398 445.761 28.2235 445.386 27.9886C445.015 27.7538 444.591 27.6364 444.114 27.6364C443.754 27.6364 443.419 27.7083 443.108 27.8523C442.797 27.9924 442.525 28.1856 442.29 28.4318C442.059 28.678 441.877 28.9602 441.744 29.2784C441.612 29.5928 441.545 29.9242 441.545 30.2727C441.545 30.7348 441.653 31.1667 441.869 31.5682C442.089 31.9697 442.388 32.2936 442.767 32.5398C443.15 32.786 443.583 32.9091 444.068 32.9091Z" fill="#DD0000"/>
</svg>
