<svg width="583" height="525" viewBox="0 0 583 525" fill="none" xmlns="http://www.w3.org/2000/svg">
<rect width="583" height="525" fill="#F0F0F0"/>
<circle cx="139" cy="69" r="28" fill="#D9D9D9"/>
<path d="M140.295 62.3636V74H138.886V63.8409H138.818L135.977 65.7273V64.2955L138.886 62.3636H140.295Z" fill="black"/>
<circle cx="139" cy="130" r="28" fill="#D9D9D9"/>
<circle cx="200" cy="130" r="28" fill="#D9D9D9"/>
<circle cx="139" cy="191" r="28" fill="#D9D9D9"/>
<circle cx="139" cy="252" r="28" fill="#D9D9D9"/>
<circle cx="139" cy="313" r="28" fill="#D9D9D9"/>
<circle cx="200" cy="313" r="28" fill="#D9D9D9"/>
<circle cx="200" cy="252" r="28" fill="#D9D9D9"/>
<circle cx="261" cy="252" r="28" fill="#D9D9D9"/>
<circle cx="322" cy="252" r="28" fill="#D9D9D9"/>
<circle cx="383" cy="252" r="28" fill="#D9D9D9"/>
<circle cx="200" cy="191" r="28" fill="#D9D9D9"/>
<circle cx="261" cy="191" r="28" fill="#D9D9D9"/>
<circle cx="322" cy="191" r="28" fill="#D9D9D9"/>
<circle cx="261" cy="313" r="28" fill="#D9D9D9"/>
<circle cx="322" cy="69" r="28" fill="#D9D9D9"/>
<circle cx="383" cy="69" r="28" fill="#D9D9D9"/>
<circle cx="444" cy="69" r="28" fill="#D9D9D9"/>
<circle cx="261" cy="69" r="28" fill="#D9D9D9"/>
<circle cx="200" cy="69" r="28" fill="#D9D9D9"/>
<line x1="108" y1="99.5" x2="474" y2="99.5" stroke="black"/>
<line x1="108" y1="37.5" x2="474" y2="37.5" stroke="black"/>
<line x1="108" y1="160.5" x2="474" y2="160.5" stroke="black"/>
<path d="M201.295 62.3636V74H199.886V63.8409H199.818L196.977 65.7273V64.2955L199.886 62.3636H201.295Z" fill="black"/>
<path d="M262.295 62.3636V74H260.886V63.8409H260.818L257.977 65.7273V64.2955L260.886 62.3636H262.295Z" fill="black"/>
<path d="M323.295 62.3636V74H321.886V63.8409H321.818L318.977 65.7273V64.2955L321.886 62.3636H323.295Z" fill="black"/>
<path d="M383.295 62.3636V74H381.886V63.8409H381.818L378.977 65.7273V64.2955L381.886 62.3636H383.295Z" fill="black"/>
<path d="M444.295 62.3636V74H442.886V63.8409H442.818L439.977 65.7273V64.2955L442.886 62.3636H444.295Z" fill="black"/>
<path d="M140.295 124.364V136H138.886V125.841H138.818L135.977 127.727V126.295L138.886 124.364H140.295Z" fill="black"/>
<path d="M201.295 124.364V136H199.886V125.841H199.818L196.977 127.727V126.295L199.886 124.364H201.295Z" fill="black"/>
<path d="M261 136.159C260.144 136.159 259.415 135.926 258.812 135.46C258.21 134.991 257.75 134.311 257.432 133.42C257.114 132.527 256.955 131.447 256.955 130.182C256.955 128.924 257.114 127.85 257.432 126.96C257.754 126.066 258.216 125.384 258.818 124.915C259.424 124.441 260.152 124.205 261 124.205C261.848 124.205 262.574 124.441 263.176 124.915C263.782 125.384 264.244 126.066 264.562 126.96C264.884 127.85 265.045 128.924 265.045 130.182C265.045 131.447 264.886 132.527 264.568 133.42C264.25 134.311 263.79 134.991 263.188 135.46C262.585 135.926 261.856 136.159 261 136.159ZM261 134.909C261.848 134.909 262.508 134.5 262.977 133.682C263.447 132.864 263.682 131.697 263.682 130.182C263.682 129.174 263.574 128.316 263.358 127.608C263.146 126.9 262.839 126.36 262.438 125.989C262.04 125.617 261.561 125.432 261 125.432C260.159 125.432 259.502 125.847 259.028 126.676C258.555 127.502 258.318 128.67 258.318 130.182C258.318 131.189 258.424 132.045 258.636 132.75C258.848 133.455 259.153 133.991 259.551 134.358C259.953 134.725 260.436 134.909 261 134.909Z" fill="black"/>
<path d="M322 136.159C321.144 136.159 320.415 135.926 319.812 135.46C319.21 134.991 318.75 134.311 318.432 133.42C318.114 132.527 317.955 131.447 317.955 130.182C317.955 128.924 318.114 127.85 318.432 126.96C318.754 126.066 319.216 125.384 319.818 124.915C320.424 124.441 321.152 124.205 322 124.205C322.848 124.205 323.574 124.441 324.176 124.915C324.782 125.384 325.244 126.066 325.562 126.96C325.884 127.85 326.045 128.924 326.045 130.182C326.045 131.447 325.886 132.527 325.568 133.42C325.25 134.311 324.79 134.991 324.188 135.46C323.585 135.926 322.856 136.159 322 136.159ZM322 134.909C322.848 134.909 323.508 134.5 323.977 133.682C324.447 132.864 324.682 131.697 324.682 130.182C324.682 129.174 324.574 128.316 324.358 127.608C324.146 126.9 323.839 126.36 323.438 125.989C323.04 125.617 322.561 125.432 322 125.432C321.159 125.432 320.502 125.847 320.028 126.676C319.555 127.502 319.318 128.67 319.318 130.182C319.318 131.189 319.424 132.045 319.636 132.75C319.848 133.455 320.153 133.991 320.551 134.358C320.953 134.725 321.436 134.909 322 134.909Z" fill="black"/>
<path d="M382 136.159C381.144 136.159 380.415 135.926 379.812 135.46C379.21 134.991 378.75 134.311 378.432 133.42C378.114 132.527 377.955 131.447 377.955 130.182C377.955 128.924 378.114 127.85 378.432 126.96C378.754 126.066 379.216 125.384 379.818 124.915C380.424 124.441 381.152 124.205 382 124.205C382.848 124.205 383.574 124.441 384.176 124.915C384.782 125.384 385.244 126.066 385.562 126.96C385.884 127.85 386.045 128.924 386.045 130.182C386.045 131.447 385.886 132.527 385.568 133.42C385.25 134.311 384.79 134.991 384.188 135.46C383.585 135.926 382.856 136.159 382 136.159ZM382 134.909C382.848 134.909 383.508 134.5 383.977 133.682C384.447 132.864 384.682 131.697 384.682 130.182C384.682 129.174 384.574 128.316 384.358 127.608C384.146 126.9 383.839 126.36 383.438 125.989C383.04 125.617 382.561 125.432 382 125.432C381.159 125.432 380.502 125.847 380.028 126.676C379.555 127.502 379.318 128.67 379.318 130.182C379.318 131.189 379.424 132.045 379.636 132.75C379.848 133.455 380.153 133.991 380.551 134.358C380.953 134.725 381.436 134.909 382 134.909Z" fill="black"/>
<path d="M443 136.159C442.144 136.159 441.415 135.926 440.812 135.46C440.21 134.991 439.75 134.311 439.432 133.42C439.114 132.527 438.955 131.447 438.955 130.182C438.955 128.924 439.114 127.85 439.432 126.96C439.754 126.066 440.216 125.384 440.818 124.915C441.424 124.441 442.152 124.205 443 124.205C443.848 124.205 444.574 124.441 445.176 124.915C445.782 125.384 446.244 126.066 446.562 126.96C446.884 127.85 447.045 128.924 447.045 130.182C447.045 131.447 446.886 132.527 446.568 133.42C446.25 134.311 445.79 134.991 445.188 135.46C444.585 135.926 443.856 136.159 443 136.159ZM443 134.909C443.848 134.909 444.508 134.5 444.977 133.682C445.447 132.864 445.682 131.697 445.682 130.182C445.682 129.174 445.574 128.316 445.358 127.608C445.146 126.9 444.839 126.36 444.438 125.989C444.04 125.617 443.561 125.432 443 125.432C442.159 125.432 441.502 125.847 441.028 126.676C440.555 127.502 440.318 128.67 440.318 130.182C440.318 131.189 440.424 132.045 440.636 132.75C440.848 133.455 441.153 133.991 441.551 134.358C441.953 134.725 442.436 134.909 443 134.909Z" fill="black"/>
<path d="M140.295 184.364V196H138.886V185.841H138.818L135.977 187.727V186.295L138.886 184.364H140.295Z" fill="black"/>
<path d="M201.295 184.364V196H199.886V185.841H199.818L196.977 187.727V186.295L199.886 184.364H201.295Z" fill="black"/>
<path d="M262.295 184.364V196H260.886V185.841H260.818L257.977 187.727V186.295L260.886 184.364H262.295Z" fill="black"/>
<path d="M323.295 184.364V196H321.886V185.841H321.818L318.977 187.727V186.295L321.886 184.364H323.295Z" fill="black"/>
<path d="M382 196.159C381.144 196.159 380.415 195.926 379.812 195.46C379.21 194.991 378.75 194.311 378.432 193.42C378.114 192.527 377.955 191.447 377.955 190.182C377.955 188.924 378.114 187.85 378.432 186.96C378.754 186.066 379.216 185.384 379.818 184.915C380.424 184.441 381.152 184.205 382 184.205C382.848 184.205 383.574 184.441 384.176 184.915C384.782 185.384 385.244 186.066 385.562 186.96C385.884 187.85 386.045 188.924 386.045 190.182C386.045 191.447 385.886 192.527 385.568 193.42C385.25 194.311 384.79 194.991 384.188 195.46C383.585 195.926 382.856 196.159 382 196.159ZM382 194.909C382.848 194.909 383.508 194.5 383.977 193.682C384.447 192.864 384.682 191.697 384.682 190.182C384.682 189.174 384.574 188.316 384.358 187.608C384.146 186.9 383.839 186.36 383.438 185.989C383.04 185.617 382.561 185.432 382 185.432C381.159 185.432 380.502 185.847 380.028 186.676C379.555 187.502 379.318 188.67 379.318 190.182C379.318 191.189 379.424 192.045 379.636 192.75C379.848 193.455 380.153 193.991 380.551 194.358C380.953 194.725 381.436 194.909 382 194.909Z" fill="black"/>
<path d="M443 196.159C442.144 196.159 441.415 195.926 440.812 195.46C440.21 194.991 439.75 194.311 439.432 193.42C439.114 192.527 438.955 191.447 438.955 190.182C438.955 188.924 439.114 187.85 439.432 186.96C439.754 186.066 440.216 185.384 440.818 184.915C441.424 184.441 442.152 184.205 443 184.205C443.848 184.205 444.574 184.441 445.176 184.915C445.782 185.384 446.244 186.066 446.562 186.96C446.884 187.85 447.045 188.924 447.045 190.182C447.045 191.447 446.886 192.527 446.568 193.42C446.25 194.311 445.79 194.991 445.188 195.46C444.585 195.926 443.856 196.159 443 196.159ZM443 194.909C443.848 194.909 444.508 194.5 444.977 193.682C445.447 192.864 445.682 191.697 445.682 190.182C445.682 189.174 445.574 188.316 445.358 187.608C445.146 186.9 444.839 186.36 444.438 185.989C444.04 185.617 443.561 185.432 443 185.432C442.159 185.432 441.502 185.847 441.028 186.676C440.555 187.502 440.318 188.67 440.318 190.182C440.318 191.189 440.424 192.045 440.636 192.75C440.848 193.455 441.153 193.991 441.551 194.358C441.953 194.725 442.436 194.909 443 194.909Z" fill="black"/>
<path d="M140.295 246.364V258H138.886V247.841H138.818L135.977 249.727V248.295L138.886 246.364H140.295Z" fill="black"/>
<path d="M201.295 246.364V258H199.886V247.841H199.818L196.977 249.727V248.295L199.886 246.364H201.295Z" fill="black"/>
<path d="M262.295 246.364V258H260.886V247.841H260.818L257.977 249.727V248.295L260.886 246.364H262.295Z" fill="black"/>
<path d="M323.295 246.364V258H321.886V247.841H321.818L318.977 249.727V248.295L321.886 246.364H323.295Z" fill="black"/>
<path d="M383.295 246.364V258H381.886V247.841H381.818L378.977 249.727V248.295L381.886 246.364H383.295Z" fill="black"/>
<path d="M443 258.159C442.144 258.159 441.415 257.926 440.812 257.46C440.21 256.991 439.75 256.311 439.432 255.42C439.114 254.527 438.955 253.447 438.955 252.182C438.955 250.924 439.114 249.85 439.432 248.96C439.754 248.066 440.216 247.384 440.818 246.915C441.424 246.441 442.152 246.205 443 246.205C443.848 246.205 444.574 246.441 445.176 246.915C445.782 247.384 446.244 248.066 446.562 248.96C446.884 249.85 447.045 250.924 447.045 252.182C447.045 253.447 446.886 254.527 446.568 255.42C446.25 256.311 445.79 256.991 445.188 257.46C444.585 257.926 443.856 258.159 443 258.159ZM443 256.909C443.848 256.909 444.508 256.5 444.977 255.682C445.447 254.864 445.682 253.697 445.682 252.182C445.682 251.174 445.574 250.316 445.358 249.608C445.146 248.9 444.839 248.36 444.438 247.989C444.04 247.617 443.561 247.432 443 247.432C442.159 247.432 441.502 247.847 441.028 248.676C440.555 249.502 440.318 250.67 440.318 252.182C440.318 253.189 440.424 254.045 440.636 254.75C440.848 255.455 441.153 255.991 441.551 256.358C441.953 256.725 442.436 256.909 443 256.909Z" fill="black"/>
<path d="M140.295 308.364V320H138.886V309.841H138.818L135.977 311.727V310.295L138.886 308.364H140.295Z" fill="black"/>
<path d="M201.295 308.364V320H199.886V309.841H199.818L196.977 311.727V310.295L199.886 308.364H201.295Z" fill="black"/>
<path d="M262.295 308.364V320H260.886V309.841H260.818L257.977 311.727V310.295L260.886 308.364H262.295Z" fill="black"/>
<path d="M322 320.159C321.144 320.159 320.415 319.926 319.812 319.46C319.21 318.991 318.75 318.311 318.432 317.42C318.114 316.527 317.955 315.447 317.955 314.182C317.955 312.924 318.114 311.85 318.432 310.96C318.754 310.066 319.216 309.384 319.818 308.915C320.424 308.441 321.152 308.205 322 308.205C322.848 308.205 323.574 308.441 324.176 308.915C324.782 309.384 325.244 310.066 325.562 310.96C325.884 311.85 326.045 312.924 326.045 314.182C326.045 315.447 325.886 316.527 325.568 317.42C325.25 318.311 324.79 318.991 324.188 319.46C323.585 319.926 322.856 320.159 322 320.159ZM322 318.909C322.848 318.909 323.508 318.5 323.977 317.682C324.447 316.864 324.682 315.697 324.682 314.182C324.682 313.174 324.574 312.316 324.358 311.608C324.146 310.9 323.839 310.36 323.438 309.989C323.04 309.617 322.561 309.432 322 309.432C321.159 309.432 320.502 309.847 320.028 310.676C319.555 311.502 319.318 312.67 319.318 314.182C319.318 315.189 319.424 316.045 319.636 316.75C319.848 317.455 320.153 317.991 320.551 318.358C320.953 318.725 321.436 318.909 322 318.909Z" fill="black"/>
<path d="M382 320.159C381.144 320.159 380.415 319.926 379.812 319.46C379.21 318.991 378.75 318.311 378.432 317.42C378.114 316.527 377.955 315.447 377.955 314.182C377.955 312.924 378.114 311.85 378.432 310.96C378.754 310.066 379.216 309.384 379.818 308.915C380.424 308.441 381.152 308.205 382 308.205C382.848 308.205 383.574 308.441 384.176 308.915C384.782 309.384 385.244 310.066 385.562 310.96C385.884 311.85 386.045 312.924 386.045 314.182C386.045 315.447 385.886 316.527 385.568 317.42C385.25 318.311 384.79 318.991 384.188 319.46C383.585 319.926 382.856 320.159 382 320.159ZM382 318.909C382.848 318.909 383.508 318.5 383.977 317.682C384.447 316.864 384.682 315.697 384.682 314.182C384.682 313.174 384.574 312.316 384.358 311.608C384.146 310.9 383.839 310.36 383.438 309.989C383.04 309.617 382.561 309.432 382 309.432C381.159 309.432 380.502 309.847 380.028 310.676C379.555 311.502 379.318 312.67 379.318 314.182C379.318 315.189 379.424 316.045 379.636 316.75C379.848 317.455 380.153 317.991 380.551 318.358C380.953 318.725 381.436 318.909 382 318.909Z" fill="black"/>
<path d="M443 320.159C442.144 320.159 441.415 319.926 440.812 319.46C440.21 318.991 439.75 318.311 439.432 317.42C439.114 316.527 438.955 315.447 438.955 314.182C438.955 312.924 439.114 311.85 439.432 310.96C439.754 310.066 440.216 309.384 440.818 308.915C441.424 308.441 442.152 308.205 443 308.205C443.848 308.205 444.574 308.441 445.176 308.915C445.782 309.384 446.244 310.066 446.562 310.96C446.884 311.85 447.045 312.924 447.045 314.182C447.045 315.447 446.886 316.527 446.568 317.42C446.25 318.311 445.79 318.991 445.188 319.46C444.585 319.926 443.856 320.159 443 320.159ZM443 318.909C443.848 318.909 444.508 318.5 444.977 317.682C445.447 316.864 445.682 315.697 445.682 314.182C445.682 313.174 445.574 312.316 445.358 311.608C445.146 310.9 444.839 310.36 444.438 309.989C444.04 309.617 443.561 309.432 443 309.432C442.159 309.432 441.502 309.847 441.028 310.676C440.555 311.502 440.318 312.67 440.318 314.182C440.318 315.189 440.424 316.045 440.636 316.75C440.848 317.455 441.153 317.991 441.551 318.358C441.953 318.725 442.436 318.909 443 318.909Z" fill="black"/>
<line x1="108" y1="221.5" x2="474" y2="221.5" stroke="black"/>
<line x1="108" y1="282.5" x2="474" y2="282.5" stroke="black"/>
<line x1="108" y1="345.5" x2="474" y2="345.5" stroke="black"/>
<line x1="108.5" y1="38" x2="108.5" y2="346" stroke="black"/>
<line x1="169.5" y1="38" x2="169.5" y2="346" stroke="black"/>
<line x1="230.5" y1="38" x2="230.5" y2="346" stroke="black"/>
<line x1="291.5" y1="38" x2="291.5" y2="346" stroke="black"/>
<line x1="352.5" y1="38" x2="352.5" y2="346" stroke="black"/>
<line x1="413.5" y1="38" x2="413.5" y2="346" stroke="black"/>
<line x1="474.5" y1="37" x2="474.5" y2="346" stroke="black"/>
<path d="M81.0682 74.1591C80.5909 74.1515 80.1136 74.0606 79.6364 73.8864C79.1591 73.7121 78.7235 73.4186 78.3295 73.0057C77.9356 72.589 77.6193 72.0265 77.3807 71.3182C77.142 70.6061 77.0227 69.7121 77.0227 68.6364C77.0227 67.6061 77.1193 66.6932 77.3125 65.8977C77.5057 65.0985 77.786 64.4261 78.1534 63.8807C78.5208 63.3314 78.964 62.9148 79.483 62.6307C80.0057 62.3466 80.5947 62.2045 81.25 62.2045C81.9015 62.2045 82.4811 62.3352 82.9886 62.5966C83.5 62.8542 83.9167 63.214 84.2386 63.6761C84.5606 64.1383 84.7689 64.6705 84.8636 65.2727H83.4773C83.3485 64.75 83.0985 64.3163 82.7273 63.9716C82.3561 63.6269 81.8636 63.4545 81.25 63.4545C80.3485 63.4545 79.6383 63.8466 79.1193 64.6307C78.6042 65.4148 78.3447 66.5152 78.3409 67.9318H78.4318C78.6439 67.6098 78.8958 67.3352 79.1875 67.108C79.483 66.8769 79.8087 66.6989 80.1648 66.5739C80.5208 66.4489 80.8977 66.3864 81.2955 66.3864C81.9621 66.3864 82.572 66.553 83.125 66.8864C83.678 67.2159 84.1212 67.6723 84.4545 68.2557C84.7879 68.8352 84.9545 69.5 84.9545 70.25C84.9545 70.9697 84.7936 71.6288 84.4716 72.2273C84.1496 72.822 83.697 73.2955 83.1136 73.6477C82.5341 73.9962 81.8523 74.1667 81.0682 74.1591ZM81.0682 72.9091C81.5455 72.9091 81.9735 72.7898 82.3523 72.5511C82.7348 72.3125 83.036 71.9924 83.2557 71.5909C83.4792 71.1894 83.5909 70.7424 83.5909 70.25C83.5909 69.7689 83.483 69.3314 83.267 68.9375C83.0549 68.5398 82.7614 68.2235 82.3864 67.9886C82.0152 67.7538 81.5909 67.6364 81.1136 67.6364C80.7538 67.6364 80.4186 67.7083 80.108 67.8523C79.7973 67.9924 79.5246 68.1856 79.2898 68.4318C79.0587 68.678 78.8769 68.9602 78.7443 69.2784C78.6117 69.5928 78.5455 69.9242 78.5455 70.2727C78.5455 70.7348 78.6534 71.1667 78.8693 71.5682C79.089 71.9697 79.3883 72.2936 79.767 72.5398C80.1496 72.786 80.5833 72.9091 81.0682 72.9091Z" fill="black"/>
<path d="M77.2045 135V133.977L81.0455 129.773C81.4962 129.28 81.8674 128.852 82.1591 128.489C82.4508 128.121 82.6667 127.777 82.8068 127.455C82.9508 127.129 83.0227 126.788 83.0227 126.432C83.0227 126.023 82.9242 125.669 82.7273 125.369C82.5341 125.07 82.2689 124.839 81.9318 124.676C81.5947 124.513 81.2159 124.432 80.7955 124.432C80.3485 124.432 79.9583 124.525 79.625 124.71C79.2955 124.892 79.0398 125.148 78.858 125.477C78.6799 125.807 78.5909 126.193 78.5909 126.636H77.25C77.25 125.955 77.4072 125.356 77.7216 124.841C78.036 124.326 78.464 123.924 79.0057 123.636C79.5511 123.348 80.1629 123.205 80.8409 123.205C81.5227 123.205 82.1269 123.348 82.6534 123.636C83.1799 123.924 83.5928 124.312 83.892 124.801C84.1913 125.29 84.3409 125.833 84.3409 126.432C84.3409 126.86 84.2633 127.278 84.108 127.688C83.9564 128.093 83.6913 128.545 83.3125 129.045C82.9375 129.542 82.4167 130.148 81.75 130.864L79.1364 133.659V133.75H84.5455V135H77.2045Z" fill="black"/>
<path d="M76.9318 193.614V192.455L82.0455 184.364H82.8864V186.159H82.3182L78.4545 192.273V192.364H85.3409V193.614H76.9318ZM82.4091 196V193.261V192.722V184.364H83.75V196H82.4091Z" fill="black"/>
<path d="M80.8409 257.159C80.1742 257.159 79.5739 257.027 79.0398 256.761C78.5057 256.496 78.0777 256.133 77.7557 255.67C77.4337 255.208 77.2576 254.682 77.2273 254.091H78.5909C78.6439 254.617 78.8826 255.053 79.3068 255.398C79.7348 255.739 80.2462 255.909 80.8409 255.909C81.3182 255.909 81.7424 255.797 82.1136 255.574C82.4886 255.35 82.7822 255.044 82.9943 254.653C83.2102 254.259 83.3182 253.814 83.3182 253.318C83.3182 252.811 83.2064 252.358 82.983 251.96C82.7633 251.559 82.4602 251.242 82.0739 251.011C81.6875 250.78 81.2462 250.663 80.75 250.659C80.3939 250.655 80.0284 250.71 79.6534 250.824C79.2784 250.934 78.9697 251.076 78.7273 251.25L77.4091 251.091L78.1136 245.364H84.1591V246.614H79.2955L78.8864 250.045H78.9545C79.1932 249.856 79.4924 249.699 79.8523 249.574C80.2121 249.449 80.5871 249.386 80.9773 249.386C81.6894 249.386 82.3239 249.557 82.8807 249.898C83.4413 250.235 83.8807 250.697 84.1989 251.284C84.5208 251.871 84.6818 252.542 84.6818 253.295C84.6818 254.038 84.5152 254.701 84.1818 255.284C83.8523 255.864 83.3977 256.322 82.8182 256.659C82.2386 256.992 81.5795 257.159 80.8409 257.159Z" fill="black"/>
<path d="M81.1364 318.159C80.3864 318.159 79.7178 318.03 79.1307 317.773C78.5473 317.515 78.0833 317.157 77.7386 316.699C77.3977 316.237 77.2121 315.701 77.1818 315.091H78.6136C78.6439 315.466 78.7727 315.79 79 316.062C79.2273 316.331 79.5246 316.54 79.892 316.688C80.2595 316.835 80.6667 316.909 81.1136 316.909C81.6136 316.909 82.0568 316.822 82.4432 316.648C82.8295 316.473 83.1326 316.231 83.3523 315.92C83.572 315.61 83.6818 315.25 83.6818 314.841C83.6818 314.413 83.5758 314.036 83.3636 313.71C83.1515 313.381 82.8409 313.123 82.4318 312.938C82.0227 312.752 81.5227 312.659 80.9318 312.659H80V311.409H80.9318C81.3939 311.409 81.7992 311.326 82.1477 311.159C82.5 310.992 82.7746 310.758 82.9716 310.455C83.1723 310.152 83.2727 309.795 83.2727 309.386C83.2727 308.992 83.1856 308.65 83.0114 308.358C82.8371 308.066 82.5909 307.839 82.2727 307.676C81.9583 307.513 81.5871 307.432 81.1591 307.432C80.7576 307.432 80.3788 307.506 80.0227 307.653C79.6705 307.797 79.3826 308.008 79.1591 308.284C78.9356 308.557 78.8144 308.886 78.7955 309.273H77.4318C77.4545 308.663 77.6383 308.129 77.983 307.67C78.3277 307.208 78.7784 306.848 79.3352 306.591C79.8958 306.333 80.5114 306.205 81.1818 306.205C81.9015 306.205 82.5189 306.35 83.0341 306.642C83.5492 306.93 83.9451 307.311 84.2216 307.784C84.4981 308.258 84.6364 308.769 84.6364 309.318C84.6364 309.973 84.464 310.532 84.1193 310.994C83.7784 311.456 83.3144 311.777 82.7273 311.955V312.045C83.4621 312.167 84.036 312.479 84.4489 312.983C84.8617 313.483 85.0682 314.102 85.0682 314.841C85.0682 315.473 84.8958 316.042 84.5511 316.545C84.2102 317.045 83.7443 317.439 83.1534 317.727C82.5625 318.015 81.8902 318.159 81.1364 318.159Z" fill="black"/>
<path d="M139.295 18.3636V30H137.886V19.8409H137.818L134.977 21.7273V20.2955L137.886 18.3636H139.295Z" fill="#DD0000"/>
<path d="M196.205 30V28.9773L200.045 24.7727C200.496 24.2803 200.867 23.8523 201.159 23.4886C201.451 23.1212 201.667 22.7765 201.807 22.4545C201.951 22.1288 202.023 21.7879 202.023 21.4318C202.023 21.0227 201.924 20.6686 201.727 20.3693C201.534 20.0701 201.269 19.839 200.932 19.6761C200.595 19.5133 200.216 19.4318 199.795 19.4318C199.348 19.4318 198.958 19.5246 198.625 19.7102C198.295 19.892 198.04 20.1477 197.858 20.4773C197.68 20.8068 197.591 21.1932 197.591 21.6364H196.25C196.25 20.9545 196.407 20.3561 196.722 19.8409C197.036 19.3258 197.464 18.9242 198.006 18.6364C198.551 18.3485 199.163 18.2045 199.841 18.2045C200.523 18.2045 201.127 18.3485 201.653 18.6364C202.18 18.9242 202.593 19.3125 202.892 19.8011C203.191 20.2898 203.341 20.8333 203.341 21.4318C203.341 21.8598 203.263 22.2784 203.108 22.6875C202.956 23.0928 202.691 23.5455 202.312 24.0455C201.938 24.5417 201.417 25.1477 200.75 25.8636L198.136 28.6591V28.75H203.545V30H196.205Z" fill="#DD0000"/>
<path d="M261.136 30.1591C260.386 30.1591 259.718 30.0303 259.131 29.7727C258.547 29.5152 258.083 29.1572 257.739 28.6989C257.398 28.2367 257.212 27.7008 257.182 27.0909H258.614C258.644 27.4659 258.773 27.7898 259 28.0625C259.227 28.3314 259.525 28.5398 259.892 28.6875C260.259 28.8352 260.667 28.9091 261.114 28.9091C261.614 28.9091 262.057 28.822 262.443 28.6477C262.83 28.4735 263.133 28.2311 263.352 27.9205C263.572 27.6098 263.682 27.25 263.682 26.8409C263.682 26.4129 263.576 26.036 263.364 25.7102C263.152 25.3807 262.841 25.1231 262.432 24.9375C262.023 24.7519 261.523 24.6591 260.932 24.6591H260V23.4091H260.932C261.394 23.4091 261.799 23.3258 262.148 23.1591C262.5 22.9924 262.775 22.7576 262.972 22.4545C263.172 22.1515 263.273 21.7955 263.273 21.3864C263.273 20.9924 263.186 20.6496 263.011 20.358C262.837 20.0663 262.591 19.839 262.273 19.6761C261.958 19.5133 261.587 19.4318 261.159 19.4318C260.758 19.4318 260.379 19.5057 260.023 19.6534C259.67 19.7973 259.383 20.0076 259.159 20.2841C258.936 20.5568 258.814 20.8864 258.795 21.2727H257.432C257.455 20.6629 257.638 20.1288 257.983 19.6705C258.328 19.2083 258.778 18.8485 259.335 18.5909C259.896 18.3333 260.511 18.2045 261.182 18.2045C261.902 18.2045 262.519 18.3504 263.034 18.642C263.549 18.9299 263.945 19.3106 264.222 19.7841C264.498 20.2576 264.636 20.7689 264.636 21.3182C264.636 21.9735 264.464 22.5322 264.119 22.9943C263.778 23.4564 263.314 23.7765 262.727 23.9545V24.0455C263.462 24.1667 264.036 24.4792 264.449 24.983C264.862 25.483 265.068 26.1023 265.068 26.8409C265.068 27.4735 264.896 28.0417 264.551 28.5455C264.21 29.0455 263.744 29.4394 263.153 29.7273C262.563 30.0152 261.89 30.1591 261.136 30.1591Z" fill="#DD0000"/>
<path d="M317.932 27.6136V26.4545L323.045 18.3636H323.886V20.1591H323.318L319.455 26.2727V26.3636H326.341V27.6136H317.932ZM323.409 30V27.2614V26.7216V18.3636H324.75V30H323.409Z" fill="#DD0000"/>
<path d="M382.841 30.1591C382.174 30.1591 381.574 30.0265 381.04 29.7614C380.506 29.4962 380.078 29.1326 379.756 28.6705C379.434 28.2083 379.258 27.6818 379.227 27.0909H380.591C380.644 27.6174 380.883 28.053 381.307 28.3977C381.735 28.7386 382.246 28.9091 382.841 28.9091C383.318 28.9091 383.742 28.7973 384.114 28.5739C384.489 28.3504 384.782 28.0436 384.994 27.6534C385.21 27.2595 385.318 26.8144 385.318 26.3182C385.318 25.8106 385.206 25.358 384.983 24.9602C384.763 24.5587 384.46 24.2424 384.074 24.0114C383.688 23.7803 383.246 23.6629 382.75 23.6591C382.394 23.6553 382.028 23.7102 381.653 23.8239C381.278 23.9337 380.97 24.0758 380.727 24.25L379.409 24.0909L380.114 18.3636H386.159V19.6136H381.295L380.886 23.0455H380.955C381.193 22.8561 381.492 22.6989 381.852 22.5739C382.212 22.4489 382.587 22.3864 382.977 22.3864C383.689 22.3864 384.324 22.5568 384.881 22.8977C385.441 23.2348 385.881 23.697 386.199 24.2841C386.521 24.8712 386.682 25.5417 386.682 26.2955C386.682 27.0379 386.515 27.7008 386.182 28.2841C385.852 28.8636 385.398 29.322 384.818 29.6591C384.239 29.9924 383.58 30.1591 382.841 30.1591Z" fill="#DD0000"/>
<path d="M444.068 30.1591C443.591 30.1515 443.114 30.0606 442.636 29.8864C442.159 29.7121 441.723 29.4186 441.33 29.0057C440.936 28.589 440.619 28.0265 440.381 27.3182C440.142 26.6061 440.023 25.7121 440.023 24.6364C440.023 23.6061 440.119 22.6932 440.312 21.8977C440.506 21.0985 440.786 20.4261 441.153 19.8807C441.521 19.3314 441.964 18.9148 442.483 18.6307C443.006 18.3466 443.595 18.2045 444.25 18.2045C444.902 18.2045 445.481 18.3352 445.989 18.5966C446.5 18.8542 446.917 19.214 447.239 19.6761C447.561 20.1383 447.769 20.6705 447.864 21.2727H446.477C446.348 20.75 446.098 20.3163 445.727 19.9716C445.356 19.6269 444.864 19.4545 444.25 19.4545C443.348 19.4545 442.638 19.8466 442.119 20.6307C441.604 21.4148 441.345 22.5152 441.341 23.9318H441.432C441.644 23.6098 441.896 23.3352 442.188 23.108C442.483 22.8769 442.809 22.6989 443.165 22.5739C443.521 22.4489 443.898 22.3864 444.295 22.3864C444.962 22.3864 445.572 22.553 446.125 22.8864C446.678 23.2159 447.121 23.6723 447.455 24.2557C447.788 24.8352 447.955 25.5 447.955 26.25C447.955 26.9697 447.794 27.6288 447.472 28.2273C447.15 28.822 446.697 29.2955 446.114 29.6477C445.534 29.9962 444.852 30.1667 444.068 30.1591ZM444.068 28.9091C444.545 28.9091 444.973 28.7898 445.352 28.5511C445.735 28.3125 446.036 27.9924 446.256 27.5909C446.479 27.1894 446.591 26.7424 446.591 26.25C446.591 25.7689 446.483 25.3314 446.267 24.9375C446.055 24.5398 445.761 24.2235 445.386 23.9886C445.015 23.7538 444.591 23.6364 444.114 23.6364C443.754 23.6364 443.419 23.7083 443.108 23.8523C442.797 23.9924 442.525 24.1856 442.29 24.4318C442.059 24.678 441.877 24.9602 441.744 25.2784C441.612 25.5928 441.545 25.9242 441.545 26.2727C441.545 26.7348 441.653 27.1667 441.869 27.5682C442.089 27.9697 442.388 28.2936 442.767 28.5398C443.15 28.786 443.583 28.9091 444.068 28.9091Z" fill="#DD0000"/>
<path d="M139.841 426.159C139.174 426.159 138.574 426.027 138.04 425.761C137.506 425.496 137.078 425.133 136.756 424.67C136.434 424.208 136.258 423.682 136.227 423.091H137.591C137.644 423.617 137.883 424.053 138.307 424.398C138.735 424.739 139.246 424.909 139.841 424.909C140.318 424.909 140.742 424.797 141.114 424.574C141.489 424.35 141.782 424.044 141.994 423.653C142.21 423.259 142.318 422.814 142.318 422.318C142.318 421.811 142.206 421.358 141.983 420.96C141.763 420.559 141.46 420.242 141.074 420.011C140.688 419.78 140.246 419.663 139.75 419.659C139.394 419.655 139.028 419.71 138.653 419.824C138.278 419.934 137.97 420.076 137.727 420.25L136.409 420.091L137.114 414.364H143.159V415.614H138.295L137.886 419.045H137.955C138.193 418.856 138.492 418.699 138.852 418.574C139.212 418.449 139.587 418.386 139.977 418.386C140.689 418.386 141.324 418.557 141.881 418.898C142.441 419.235 142.881 419.697 143.199 420.284C143.521 420.871 143.682 421.542 143.682 422.295C143.682 423.038 143.515 423.701 143.182 424.284C142.852 424.864 142.398 425.322 141.818 425.659C141.239 425.992 140.58 426.159 139.841 426.159Z" fill="black"/>
<line x1="108" y1="451.5" x2="474" y2="451.5" stroke="black"/>
<line x1="108" y1="389.5" x2="474" y2="389.5" stroke="black"/>
<path d="M200.841 426.159C200.174 426.159 199.574 426.027 199.04 425.761C198.506 425.496 198.078 425.133 197.756 424.67C197.434 424.208 197.258 423.682 197.227 423.091H198.591C198.644 423.617 198.883 424.053 199.307 424.398C199.735 424.739 200.246 424.909 200.841 424.909C201.318 424.909 201.742 424.797 202.114 424.574C202.489 424.35 202.782 424.044 202.994 423.653C203.21 423.259 203.318 422.814 203.318 422.318C203.318 421.811 203.206 421.358 202.983 420.96C202.763 420.559 202.46 420.242 202.074 420.011C201.688 419.78 201.246 419.663 200.75 419.659C200.394 419.655 200.028 419.71 199.653 419.824C199.278 419.934 198.97 420.076 198.727 420.25L197.409 420.091L198.114 414.364H204.159V415.614H199.295L198.886 419.045H198.955C199.193 418.856 199.492 418.699 199.852 418.574C200.212 418.449 200.587 418.386 200.977 418.386C201.689 418.386 202.324 418.557 202.881 418.898C203.441 419.235 203.881 419.697 204.199 420.284C204.521 420.871 204.682 421.542 204.682 422.295C204.682 423.038 204.515 423.701 204.182 424.284C203.852 424.864 203.398 425.322 202.818 425.659C202.239 425.992 201.58 426.159 200.841 426.159Z" fill="black"/>
<path d="M257.932 423.614V422.455L263.045 414.364H263.886V416.159H263.318L259.455 422.273V422.364H266.341V423.614H257.932ZM263.409 426V423.261V422.722V414.364H264.75V426H263.409Z" fill="black"/>
<path d="M323.136 426.159C322.386 426.159 321.718 426.03 321.131 425.773C320.547 425.515 320.083 425.157 319.739 424.699C319.398 424.237 319.212 423.701 319.182 423.091H320.614C320.644 423.466 320.773 423.79 321 424.062C321.227 424.331 321.525 424.54 321.892 424.688C322.259 424.835 322.667 424.909 323.114 424.909C323.614 424.909 324.057 424.822 324.443 424.648C324.83 424.473 325.133 424.231 325.352 423.92C325.572 423.61 325.682 423.25 325.682 422.841C325.682 422.413 325.576 422.036 325.364 421.71C325.152 421.381 324.841 421.123 324.432 420.938C324.023 420.752 323.523 420.659 322.932 420.659H322V419.409H322.932C323.394 419.409 323.799 419.326 324.148 419.159C324.5 418.992 324.775 418.758 324.972 418.455C325.172 418.152 325.273 417.795 325.273 417.386C325.273 416.992 325.186 416.65 325.011 416.358C324.837 416.066 324.591 415.839 324.273 415.676C323.958 415.513 323.587 415.432 323.159 415.432C322.758 415.432 322.379 415.506 322.023 415.653C321.67 415.797 321.383 416.008 321.159 416.284C320.936 416.557 320.814 416.886 320.795 417.273H319.432C319.455 416.663 319.638 416.129 319.983 415.67C320.328 415.208 320.778 414.848 321.335 414.591C321.896 414.333 322.511 414.205 323.182 414.205C323.902 414.205 324.519 414.35 325.034 414.642C325.549 414.93 325.945 415.311 326.222 415.784C326.498 416.258 326.636 416.769 326.636 417.318C326.636 417.973 326.464 418.532 326.119 418.994C325.778 419.456 325.314 419.777 324.727 419.955V420.045C325.462 420.167 326.036 420.479 326.449 420.983C326.862 421.483 327.068 422.102 327.068 422.841C327.068 423.473 326.896 424.042 326.551 424.545C326.21 425.045 325.744 425.439 325.153 425.727C324.563 426.015 323.89 426.159 323.136 426.159Z" fill="black"/>
<path d="M379.205 426V424.977L383.045 420.773C383.496 420.28 383.867 419.852 384.159 419.489C384.451 419.121 384.667 418.777 384.807 418.455C384.951 418.129 385.023 417.788 385.023 417.432C385.023 417.023 384.924 416.669 384.727 416.369C384.534 416.07 384.269 415.839 383.932 415.676C383.595 415.513 383.216 415.432 382.795 415.432C382.348 415.432 381.958 415.525 381.625 415.71C381.295 415.892 381.04 416.148 380.858 416.477C380.68 416.807 380.591 417.193 380.591 417.636H379.25C379.25 416.955 379.407 416.356 379.722 415.841C380.036 415.326 380.464 414.924 381.006 414.636C381.551 414.348 382.163 414.205 382.841 414.205C383.523 414.205 384.127 414.348 384.653 414.636C385.18 414.924 385.593 415.312 385.892 415.801C386.191 416.29 386.341 416.833 386.341 417.432C386.341 417.86 386.263 418.278 386.108 418.688C385.956 419.093 385.691 419.545 385.312 420.045C384.938 420.542 384.417 421.148 383.75 421.864L381.136 424.659V424.75H386.545V426H379.205Z" fill="black"/>
<path d="M444.295 414.364V426H442.886V415.841H442.818L439.977 417.727V416.295L442.886 414.364H444.295Z" fill="black"/>
<line x1="108.5" y1="390" x2="108.5" y2="452" stroke="black"/>
<line x1="474.5" y1="390" x2="474.5" y2="452" stroke="black"/>
</svg>
