<svg width="583" height="525" viewBox="0 0 583 525" fill="none" xmlns="http://www.w3.org/2000/svg">
<rect width="583" height="525" fill="#F0F0F0"/>
<circle cx="139" cy="70" r="28" fill="#D9D9D9"/>
<circle cx="139" cy="131" r="28" fill="#D9D9D9"/>
<circle cx="200" cy="131" r="28" fill="#D9D9D9"/>
<circle cx="139" cy="192" r="28" fill="#D9D9D9"/>
<circle cx="139" cy="253" r="28" fill="#D9D9D9"/>
<circle cx="139" cy="314" r="28" fill="#D9D9D9"/>
<circle cx="200" cy="314" r="28" fill="#D9D9D9"/>
<circle cx="200" cy="253" r="28" fill="#D9D9D9"/>
<circle cx="261" cy="253" r="28" fill="#D9D9D9"/>
<circle cx="322" cy="253" r="28" fill="#D9D9D9"/>
<circle cx="383" cy="253" r="28" fill="#D9D9D9"/>
<circle cx="200" cy="192" r="28" fill="#D9D9D9"/>
<circle cx="261" cy="192" r="28" fill="#D9D9D9"/>
<circle cx="322" cy="192" r="28" fill="#D9D9D9"/>
<circle cx="261" cy="314" r="28" fill="#D9D9D9"/>
<circle cx="322" cy="70" r="28" fill="#D9D9D9"/>
<circle cx="383" cy="70" r="28" fill="#D9D9D9"/>
<circle cx="444" cy="70" r="28" fill="#D9D9D9"/>
<circle cx="261" cy="70" r="28" fill="#D9D9D9"/>
<circle cx="200" cy="70" r="28" fill="#D9D9D9"/>
<path d="M81.0682 75.1591C80.5909 75.1515 80.1136 75.0606 79.6364 74.8864C79.1591 74.7121 78.7235 74.4186 78.3295 74.0057C77.9356 73.589 77.6193 73.0265 77.3807 72.3182C77.142 71.6061 77.0227 70.7121 77.0227 69.6364C77.0227 68.6061 77.1193 67.6932 77.3125 66.8977C77.5057 66.0985 77.786 65.4261 78.1534 64.8807C78.5208 64.3314 78.964 63.9148 79.483 63.6307C80.0057 63.3466 80.5947 63.2045 81.25 63.2045C81.9015 63.2045 82.4811 63.3352 82.9886 63.5966C83.5 63.8542 83.9167 64.214 84.2386 64.6761C84.5606 65.1383 84.7689 65.6705 84.8636 66.2727H83.4773C83.3485 65.75 83.0985 65.3163 82.7273 64.9716C82.3561 64.6269 81.8636 64.4545 81.25 64.4545C80.3485 64.4545 79.6383 64.8466 79.1193 65.6307C78.6042 66.4148 78.3447 67.5152 78.3409 68.9318H78.4318C78.6439 68.6098 78.8958 68.3352 79.1875 68.108C79.483 67.8769 79.8087 67.6989 80.1648 67.5739C80.5208 67.4489 80.8977 67.3864 81.2955 67.3864C81.9621 67.3864 82.572 67.553 83.125 67.8864C83.678 68.2159 84.1212 68.6723 84.4545 69.2557C84.7879 69.8352 84.9545 70.5 84.9545 71.25C84.9545 71.9697 84.7936 72.6288 84.4716 73.2273C84.1496 73.822 83.697 74.2955 83.1136 74.6477C82.5341 74.9962 81.8523 75.1667 81.0682 75.1591ZM81.0682 73.9091C81.5455 73.9091 81.9735 73.7898 82.3523 73.5511C82.7348 73.3125 83.036 72.9924 83.2557 72.5909C83.4792 72.1894 83.5909 71.7424 83.5909 71.25C83.5909 70.7689 83.483 70.3314 83.267 69.9375C83.0549 69.5398 82.7614 69.2235 82.3864 68.9886C82.0152 68.7538 81.5909 68.6364 81.1136 68.6364C80.7538 68.6364 80.4186 68.7083 80.108 68.8523C79.7973 68.9924 79.5246 69.1856 79.2898 69.4318C79.0587 69.678 78.8769 69.9602 78.7443 70.2784C78.6117 70.5928 78.5455 70.9242 78.5455 71.2727C78.5455 71.7348 78.6534 72.1667 78.8693 72.5682C79.089 72.9697 79.3883 73.2936 79.767 73.5398C80.1496 73.786 80.5833 73.9091 81.0682 73.9091Z" fill="black"/>
<path d="M139.295 22.3636V34H137.886V23.8409H137.818L134.977 25.7273V24.2955L137.886 22.3636H139.295Z" fill="#DD0000"/>
<path d="M196.205 34V32.9773L200.045 28.7727C200.496 28.2803 200.867 27.8523 201.159 27.4886C201.451 27.1212 201.667 26.7765 201.807 26.4545C201.951 26.1288 202.023 25.7879 202.023 25.4318C202.023 25.0227 201.924 24.6686 201.727 24.3693C201.534 24.0701 201.269 23.839 200.932 23.6761C200.595 23.5133 200.216 23.4318 199.795 23.4318C199.348 23.4318 198.958 23.5246 198.625 23.7102C198.295 23.892 198.04 24.1477 197.858 24.4773C197.68 24.8068 197.591 25.1932 197.591 25.6364H196.25C196.25 24.9545 196.407 24.3561 196.722 23.8409C197.036 23.3258 197.464 22.9242 198.006 22.6364C198.551 22.3485 199.163 22.2045 199.841 22.2045C200.523 22.2045 201.127 22.3485 201.653 22.6364C202.18 22.9242 202.593 23.3125 202.892 23.8011C203.191 24.2898 203.341 24.8333 203.341 25.4318C203.341 25.8598 203.263 26.2784 203.108 26.6875C202.956 27.0928 202.691 27.5455 202.312 28.0455C201.938 28.5417 201.417 29.1477 200.75 29.8636L198.136 32.6591V32.75H203.545V34H196.205Z" fill="#DD0000"/>
<path d="M261.136 34.1591C260.386 34.1591 259.718 34.0303 259.131 33.7727C258.547 33.5152 258.083 33.1572 257.739 32.6989C257.398 32.2367 257.212 31.7008 257.182 31.0909H258.614C258.644 31.4659 258.773 31.7898 259 32.0625C259.227 32.3314 259.525 32.5398 259.892 32.6875C260.259 32.8352 260.667 32.9091 261.114 32.9091C261.614 32.9091 262.057 32.822 262.443 32.6477C262.83 32.4735 263.133 32.2311 263.352 31.9205C263.572 31.6098 263.682 31.25 263.682 30.8409C263.682 30.4129 263.576 30.036 263.364 29.7102C263.152 29.3807 262.841 29.1231 262.432 28.9375C262.023 28.7519 261.523 28.6591 260.932 28.6591H260V27.4091H260.932C261.394 27.4091 261.799 27.3258 262.148 27.1591C262.5 26.9924 262.775 26.7576 262.972 26.4545C263.172 26.1515 263.273 25.7955 263.273 25.3864C263.273 24.9924 263.186 24.6496 263.011 24.358C262.837 24.0663 262.591 23.839 262.273 23.6761C261.958 23.5133 261.587 23.4318 261.159 23.4318C260.758 23.4318 260.379 23.5057 260.023 23.6534C259.67 23.7973 259.383 24.0076 259.159 24.2841C258.936 24.5568 258.814 24.8864 258.795 25.2727H257.432C257.455 24.6629 257.638 24.1288 257.983 23.6705C258.328 23.2083 258.778 22.8485 259.335 22.5909C259.896 22.3333 260.511 22.2045 261.182 22.2045C261.902 22.2045 262.519 22.3504 263.034 22.642C263.549 22.9299 263.945 23.3106 264.222 23.7841C264.498 24.2576 264.636 24.7689 264.636 25.3182C264.636 25.9735 264.464 26.5322 264.119 26.9943C263.778 27.4564 263.314 27.7765 262.727 27.9545V28.0455C263.462 28.1667 264.036 28.4792 264.449 28.983C264.862 29.483 265.068 30.1023 265.068 30.8409C265.068 31.4735 264.896 32.0417 264.551 32.5455C264.21 33.0455 263.744 33.4394 263.153 33.7273C262.563 34.0152 261.89 34.1591 261.136 34.1591Z" fill="#DD0000"/>
<path d="M317.932 31.6136V30.4545L323.045 22.3636H323.886V24.1591H323.318L319.455 30.2727V30.3636H326.341V31.6136H317.932ZM323.409 34V31.2614V30.7216V22.3636H324.75V34H323.409Z" fill="#DD0000"/>
<path d="M382.841 34.1591C382.174 34.1591 381.574 34.0265 381.04 33.7614C380.506 33.4962 380.078 33.1326 379.756 32.6705C379.434 32.2083 379.258 31.6818 379.227 31.0909H380.591C380.644 31.6174 380.883 32.053 381.307 32.3977C381.735 32.7386 382.246 32.9091 382.841 32.9091C383.318 32.9091 383.742 32.7973 384.114 32.5739C384.489 32.3504 384.782 32.0436 384.994 31.6534C385.21 31.2595 385.318 30.8144 385.318 30.3182C385.318 29.8106 385.206 29.358 384.983 28.9602C384.763 28.5587 384.46 28.2424 384.074 28.0114C383.688 27.7803 383.246 27.6629 382.75 27.6591C382.394 27.6553 382.028 27.7102 381.653 27.8239C381.278 27.9337 380.97 28.0758 380.727 28.25L379.409 28.0909L380.114 22.3636H386.159V23.6136H381.295L380.886 27.0455H380.955C381.193 26.8561 381.492 26.6989 381.852 26.5739C382.212 26.4489 382.587 26.3864 382.977 26.3864C383.689 26.3864 384.324 26.5568 384.881 26.8977C385.441 27.2348 385.881 27.697 386.199 28.2841C386.521 28.8712 386.682 29.5417 386.682 30.2955C386.682 31.0379 386.515 31.7008 386.182 32.2841C385.852 32.8636 385.398 33.322 384.818 33.6591C384.239 33.9924 383.58 34.1591 382.841 34.1591Z" fill="#DD0000"/>
<path d="M444.068 34.1591C443.591 34.1515 443.114 34.0606 442.636 33.8864C442.159 33.7121 441.723 33.4186 441.33 33.0057C440.936 32.589 440.619 32.0265 440.381 31.3182C440.142 30.6061 440.023 29.7121 440.023 28.6364C440.023 27.6061 440.119 26.6932 440.312 25.8977C440.506 25.0985 440.786 24.4261 441.153 23.8807C441.521 23.3314 441.964 22.9148 442.483 22.6307C443.006 22.3466 443.595 22.2045 444.25 22.2045C444.902 22.2045 445.481 22.3352 445.989 22.5966C446.5 22.8542 446.917 23.214 447.239 23.6761C447.561 24.1383 447.769 24.6705 447.864 25.2727H446.477C446.348 24.75 446.098 24.3163 445.727 23.9716C445.356 23.6269 444.864 23.4545 444.25 23.4545C443.348 23.4545 442.638 23.8466 442.119 24.6307C441.604 25.4148 441.345 26.5152 441.341 27.9318H441.432C441.644 27.6098 441.896 27.3352 442.188 27.108C442.483 26.8769 442.809 26.6989 443.165 26.5739C443.521 26.4489 443.898 26.3864 444.295 26.3864C444.962 26.3864 445.572 26.553 446.125 26.8864C446.678 27.2159 447.121 27.6723 447.455 28.2557C447.788 28.8352 447.955 29.5 447.955 30.25C447.955 30.9697 447.794 31.6288 447.472 32.2273C447.15 32.822 446.697 33.2955 446.114 33.6477C445.534 33.9962 444.852 34.1667 444.068 34.1591ZM444.068 32.9091C444.545 32.9091 444.973 32.7898 445.352 32.5511C445.735 32.3125 446.036 31.9924 446.256 31.5909C446.479 31.1894 446.591 30.7424 446.591 30.25C446.591 29.7689 446.483 29.3314 446.267 28.9375C446.055 28.5398 445.761 28.2235 445.386 27.9886C445.015 27.7538 444.591 27.6364 444.114 27.6364C443.754 27.6364 443.419 27.7083 443.108 27.8523C442.797 27.9924 442.525 28.1856 442.29 28.4318C442.059 28.678 441.877 28.9602 441.744 29.2784C441.612 29.5928 441.545 29.9242 441.545 30.2727C441.545 30.7348 441.653 31.1667 441.869 31.5682C442.089 31.9697 442.388 32.2936 442.767 32.5398C443.15 32.786 443.583 32.9091 444.068 32.9091Z" fill="#DD0000"/>
<path d="M77.2045 136V134.977L81.0455 130.773C81.4962 130.28 81.8674 129.852 82.1591 129.489C82.4508 129.121 82.6667 128.777 82.8068 128.455C82.9508 128.129 83.0227 127.788 83.0227 127.432C83.0227 127.023 82.9242 126.669 82.7273 126.369C82.5341 126.07 82.2689 125.839 81.9318 125.676C81.5947 125.513 81.2159 125.432 80.7955 125.432C80.3485 125.432 79.9583 125.525 79.625 125.71C79.2955 125.892 79.0398 126.148 78.858 126.477C78.6799 126.807 78.5909 127.193 78.5909 127.636H77.25C77.25 126.955 77.4072 126.356 77.7216 125.841C78.036 125.326 78.464 124.924 79.0057 124.636C79.5511 124.348 80.1629 124.205 80.8409 124.205C81.5227 124.205 82.1269 124.348 82.6534 124.636C83.1799 124.924 83.5928 125.312 83.892 125.801C84.1913 126.29 84.3409 126.833 84.3409 127.432C84.3409 127.86 84.2633 128.278 84.108 128.688C83.9564 129.093 83.6913 129.545 83.3125 130.045C82.9375 130.542 82.4167 131.148 81.75 131.864L79.1364 134.659V134.75H84.5455V136H77.2045Z" fill="black"/>
<path d="M76.9318 194.614V193.455L82.0455 185.364H82.8864V187.159H82.3182L78.4545 193.273V193.364H85.3409V194.614H76.9318ZM82.4091 197V194.261V193.722V185.364H83.75V197H82.4091Z" fill="black"/>
<path d="M80.8409 258.159C80.1742 258.159 79.5739 258.027 79.0398 257.761C78.5057 257.496 78.0777 257.133 77.7557 256.67C77.4337 256.208 77.2576 255.682 77.2273 255.091H78.5909C78.6439 255.617 78.8826 256.053 79.3068 256.398C79.7348 256.739 80.2462 256.909 80.8409 256.909C81.3182 256.909 81.7424 256.797 82.1136 256.574C82.4886 256.35 82.7822 256.044 82.9943 255.653C83.2102 255.259 83.3182 254.814 83.3182 254.318C83.3182 253.811 83.2064 253.358 82.983 252.96C82.7633 252.559 82.4602 252.242 82.0739 252.011C81.6875 251.78 81.2462 251.663 80.75 251.659C80.3939 251.655 80.0284 251.71 79.6534 251.824C79.2784 251.934 78.9697 252.076 78.7273 252.25L77.4091 252.091L78.1136 246.364H84.1591V247.614H79.2955L78.8864 251.045H78.9545C79.1932 250.856 79.4924 250.699 79.8523 250.574C80.2121 250.449 80.5871 250.386 80.9773 250.386C81.6894 250.386 82.3239 250.557 82.8807 250.898C83.4413 251.235 83.8807 251.697 84.1989 252.284C84.5208 252.871 84.6818 253.542 84.6818 254.295C84.6818 255.038 84.5152 255.701 84.1818 256.284C83.8523 256.864 83.3977 257.322 82.8182 257.659C82.2386 257.992 81.5795 258.159 80.8409 258.159Z" fill="black"/>
<path d="M81.1364 319.159C80.3864 319.159 79.7178 319.03 79.1307 318.773C78.5473 318.515 78.0833 318.157 77.7386 317.699C77.3977 317.237 77.2121 316.701 77.1818 316.091H78.6136C78.6439 316.466 78.7727 316.79 79 317.062C79.2273 317.331 79.5246 317.54 79.892 317.688C80.2595 317.835 80.6667 317.909 81.1136 317.909C81.6136 317.909 82.0568 317.822 82.4432 317.648C82.8295 317.473 83.1326 317.231 83.3523 316.92C83.572 316.61 83.6818 316.25 83.6818 315.841C83.6818 315.413 83.5758 315.036 83.3636 314.71C83.1515 314.381 82.8409 314.123 82.4318 313.938C82.0227 313.752 81.5227 313.659 80.9318 313.659H80V312.409H80.9318C81.3939 312.409 81.7992 312.326 82.1477 312.159C82.5 311.992 82.7746 311.758 82.9716 311.455C83.1723 311.152 83.2727 310.795 83.2727 310.386C83.2727 309.992 83.1856 309.65 83.0114 309.358C82.8371 309.066 82.5909 308.839 82.2727 308.676C81.9583 308.513 81.5871 308.432 81.1591 308.432C80.7576 308.432 80.3788 308.506 80.0227 308.653C79.6705 308.797 79.3826 309.008 79.1591 309.284C78.9356 309.557 78.8144 309.886 78.7955 310.273H77.4318C77.4545 309.663 77.6383 309.129 77.983 308.67C78.3277 308.208 78.7784 307.848 79.3352 307.591C79.8958 307.333 80.5114 307.205 81.1818 307.205C81.9015 307.205 82.5189 307.35 83.0341 307.642C83.5492 307.93 83.9451 308.311 84.2216 308.784C84.4981 309.258 84.6364 309.769 84.6364 310.318C84.6364 310.973 84.464 311.532 84.1193 311.994C83.7784 312.456 83.3144 312.777 82.7273 312.955V313.045C83.4621 313.167 84.036 313.479 84.4489 313.983C84.8617 314.483 85.0682 315.102 85.0682 315.841C85.0682 316.473 84.8958 317.042 84.5511 317.545C84.2102 318.045 83.7443 318.439 83.1534 318.727C82.5625 319.015 81.8902 319.159 81.1364 319.159Z" fill="black"/>
</svg>
