<svg width="638" height="266" viewBox="0 0 638 266" fill="none" xmlns="http://www.w3.org/2000/svg">
<rect width="638" height="266" fill="#F5F5F5"/>
<path d="M167.841 58.1591C167.174 58.1591 166.574 58.0265 166.04 57.7614C165.506 57.4962 165.078 57.1326 164.756 56.6705C164.434 56.2083 164.258 55.6818 164.227 55.0909H165.591C165.644 55.6174 165.883 56.053 166.307 56.3977C166.735 56.7386 167.246 56.9091 167.841 56.9091C168.318 56.9091 168.742 56.7973 169.114 56.5739C169.489 56.3504 169.782 56.0436 169.994 55.6534C170.21 55.2595 170.318 54.8144 170.318 54.3182C170.318 53.8106 170.206 53.358 169.983 52.9602C169.763 52.5587 169.46 52.2424 169.074 52.0114C168.688 51.7803 168.246 51.6629 167.75 51.6591C167.394 51.6553 167.028 51.7102 166.653 51.8239C166.278 51.9337 165.97 52.0758 165.727 52.25L164.409 52.0909L165.114 46.3636H171.159V47.6136H166.295L165.886 51.0455H165.955C166.193 50.8561 166.492 50.6989 166.852 50.5739C167.212 50.4489 167.587 50.3864 167.977 50.3864C168.689 50.3864 169.324 50.5568 169.881 50.8977C170.441 51.2348 170.881 51.697 171.199 52.2841C171.521 52.8712 171.682 53.5417 171.682 54.2955C171.682 55.0379 171.515 55.7008 171.182 56.2841C170.852 56.8636 170.398 57.322 169.818 57.6591C169.239 57.9924 168.58 58.1591 167.841 58.1591Z" fill="black"/>
<line x1="136" y1="83.5" x2="502" y2="83.5" stroke="black"/>
<line x1="136" y1="21.5" x2="502" y2="21.5" stroke="black"/>
<path d="M228.841 58.1591C228.174 58.1591 227.574 58.0265 227.04 57.7614C226.506 57.4962 226.078 57.1326 225.756 56.6705C225.434 56.2083 225.258 55.6818 225.227 55.0909H226.591C226.644 55.6174 226.883 56.053 227.307 56.3977C227.735 56.7386 228.246 56.9091 228.841 56.9091C229.318 56.9091 229.742 56.7973 230.114 56.5739C230.489 56.3504 230.782 56.0436 230.994 55.6534C231.21 55.2595 231.318 54.8144 231.318 54.3182C231.318 53.8106 231.206 53.358 230.983 52.9602C230.763 52.5587 230.46 52.2424 230.074 52.0114C229.688 51.7803 229.246 51.6629 228.75 51.6591C228.394 51.6553 228.028 51.7102 227.653 51.8239C227.278 51.9337 226.97 52.0758 226.727 52.25L225.409 52.0909L226.114 46.3636H232.159V47.6136H227.295L226.886 51.0455H226.955C227.193 50.8561 227.492 50.6989 227.852 50.5739C228.212 50.4489 228.587 50.3864 228.977 50.3864C229.689 50.3864 230.324 50.5568 230.881 50.8977C231.441 51.2348 231.881 51.697 232.199 52.2841C232.521 52.8712 232.682 53.5417 232.682 54.2955C232.682 55.0379 232.515 55.7008 232.182 56.2841C231.852 56.8636 231.398 57.322 230.818 57.6591C230.239 57.9924 229.58 58.1591 228.841 58.1591Z" fill="black"/>
<path d="M285.932 55.6136V54.4545L291.045 46.3636H291.886V48.1591H291.318L287.455 54.2727V54.3636H294.341V55.6136H285.932ZM291.409 58V55.2614V54.7216V46.3636H292.75V58H291.409Z" fill="black"/>
<path d="M351.136 58.1591C350.386 58.1591 349.718 58.0303 349.131 57.7727C348.547 57.5152 348.083 57.1572 347.739 56.6989C347.398 56.2367 347.212 55.7008 347.182 55.0909H348.614C348.644 55.4659 348.773 55.7898 349 56.0625C349.227 56.3314 349.525 56.5398 349.892 56.6875C350.259 56.8352 350.667 56.9091 351.114 56.9091C351.614 56.9091 352.057 56.822 352.443 56.6477C352.83 56.4735 353.133 56.2311 353.352 55.9205C353.572 55.6098 353.682 55.25 353.682 54.8409C353.682 54.4129 353.576 54.036 353.364 53.7102C353.152 53.3807 352.841 53.1231 352.432 52.9375C352.023 52.7519 351.523 52.6591 350.932 52.6591H350V51.4091H350.932C351.394 51.4091 351.799 51.3258 352.148 51.1591C352.5 50.9924 352.775 50.7576 352.972 50.4545C353.172 50.1515 353.273 49.7955 353.273 49.3864C353.273 48.9924 353.186 48.6496 353.011 48.358C352.837 48.0663 352.591 47.839 352.273 47.6761C351.958 47.5133 351.587 47.4318 351.159 47.4318C350.758 47.4318 350.379 47.5057 350.023 47.6534C349.67 47.7973 349.383 48.0076 349.159 48.2841C348.936 48.5568 348.814 48.8864 348.795 49.2727H347.432C347.455 48.6629 347.638 48.1288 347.983 47.6705C348.328 47.2083 348.778 46.8485 349.335 46.5909C349.896 46.3333 350.511 46.2045 351.182 46.2045C351.902 46.2045 352.519 46.3504 353.034 46.642C353.549 46.9299 353.945 47.3106 354.222 47.7841C354.498 48.2576 354.636 48.7689 354.636 49.3182C354.636 49.9735 354.464 50.5322 354.119 50.9943C353.778 51.4564 353.314 51.7765 352.727 51.9545V52.0455C353.462 52.1667 354.036 52.4792 354.449 52.983C354.862 53.483 355.068 54.1023 355.068 54.8409C355.068 55.4735 354.896 56.0417 354.551 56.5455C354.21 57.0455 353.744 57.4394 353.153 57.7273C352.563 58.0152 351.89 58.1591 351.136 58.1591Z" fill="black"/>
<path d="M407.205 58V56.9773L411.045 52.7727C411.496 52.2803 411.867 51.8523 412.159 51.4886C412.451 51.1212 412.667 50.7765 412.807 50.4545C412.951 50.1288 413.023 49.7879 413.023 49.4318C413.023 49.0227 412.924 48.6686 412.727 48.3693C412.534 48.0701 412.269 47.839 411.932 47.6761C411.595 47.5133 411.216 47.4318 410.795 47.4318C410.348 47.4318 409.958 47.5246 409.625 47.7102C409.295 47.892 409.04 48.1477 408.858 48.4773C408.68 48.8068 408.591 49.1932 408.591 49.6364H407.25C407.25 48.9545 407.407 48.3561 407.722 47.8409C408.036 47.3258 408.464 46.9242 409.006 46.6364C409.551 46.3485 410.163 46.2045 410.841 46.2045C411.523 46.2045 412.127 46.3485 412.653 46.6364C413.18 46.9242 413.593 47.3125 413.892 47.8011C414.191 48.2898 414.341 48.8333 414.341 49.4318C414.341 49.8598 414.263 50.2784 414.108 50.6875C413.956 51.0928 413.691 51.5455 413.312 52.0455C412.938 52.5417 412.417 53.1477 411.75 53.8636L409.136 56.6591V56.75H414.545V58H407.205Z" fill="black"/>
<path d="M472.295 46.3636V58H470.886V47.8409H470.818L467.977 49.7273V48.2955L470.886 46.3636H472.295Z" fill="black"/>
<path d="M167.841 58.1591C167.174 58.1591 166.574 58.0265 166.04 57.7614C165.506 57.4962 165.078 57.1326 164.756 56.6705C164.434 56.2083 164.258 55.6818 164.227 55.0909H165.591C165.644 55.6174 165.883 56.053 166.307 56.3977C166.735 56.7386 167.246 56.9091 167.841 56.9091C168.318 56.9091 168.742 56.7973 169.114 56.5739C169.489 56.3504 169.782 56.0436 169.994 55.6534C170.21 55.2595 170.318 54.8144 170.318 54.3182C170.318 53.8106 170.206 53.358 169.983 52.9602C169.763 52.5587 169.46 52.2424 169.074 52.0114C168.688 51.7803 168.246 51.6629 167.75 51.6591C167.394 51.6553 167.028 51.7102 166.653 51.8239C166.278 51.9337 165.97 52.0758 165.727 52.25L164.409 52.0909L165.114 46.3636H171.159V47.6136H166.295L165.886 51.0455H165.955C166.193 50.8561 166.492 50.6989 166.852 50.5739C167.212 50.4489 167.587 50.3864 167.977 50.3864C168.689 50.3864 169.324 50.5568 169.881 50.8977C170.441 51.2348 170.881 51.697 171.199 52.2841C171.521 52.8712 171.682 53.5417 171.682 54.2955C171.682 55.0379 171.515 55.7008 171.182 56.2841C170.852 56.8636 170.398 57.322 169.818 57.6591C169.239 57.9924 168.58 58.1591 167.841 58.1591Z" fill="black"/>
<path d="M228.841 58.1591C228.174 58.1591 227.574 58.0265 227.04 57.7614C226.506 57.4962 226.078 57.1326 225.756 56.6705C225.434 56.2083 225.258 55.6818 225.227 55.0909H226.591C226.644 55.6174 226.883 56.053 227.307 56.3977C227.735 56.7386 228.246 56.9091 228.841 56.9091C229.318 56.9091 229.742 56.7973 230.114 56.5739C230.489 56.3504 230.782 56.0436 230.994 55.6534C231.21 55.2595 231.318 54.8144 231.318 54.3182C231.318 53.8106 231.206 53.358 230.983 52.9602C230.763 52.5587 230.46 52.2424 230.074 52.0114C229.688 51.7803 229.246 51.6629 228.75 51.6591C228.394 51.6553 228.028 51.7102 227.653 51.8239C227.278 51.9337 226.97 52.0758 226.727 52.25L225.409 52.0909L226.114 46.3636H232.159V47.6136H227.295L226.886 51.0455H226.955C227.193 50.8561 227.492 50.6989 227.852 50.5739C228.212 50.4489 228.587 50.3864 228.977 50.3864C229.689 50.3864 230.324 50.5568 230.881 50.8977C231.441 51.2348 231.881 51.697 232.199 52.2841C232.521 52.8712 232.682 53.5417 232.682 54.2955C232.682 55.0379 232.515 55.7008 232.182 56.2841C231.852 56.8636 231.398 57.322 230.818 57.6591C230.239 57.9924 229.58 58.1591 228.841 58.1591Z" fill="black"/>
<path d="M285.932 55.6136V54.4545L291.045 46.3636H291.886V48.1591H291.318L287.455 54.2727V54.3636H294.341V55.6136H285.932ZM291.409 58V55.2614V54.7216V46.3636H292.75V58H291.409Z" fill="black"/>
<path d="M351.136 58.1591C350.386 58.1591 349.718 58.0303 349.131 57.7727C348.547 57.5152 348.083 57.1572 347.739 56.6989C347.398 56.2367 347.212 55.7008 347.182 55.0909H348.614C348.644 55.4659 348.773 55.7898 349 56.0625C349.227 56.3314 349.525 56.5398 349.892 56.6875C350.259 56.8352 350.667 56.9091 351.114 56.9091C351.614 56.9091 352.057 56.822 352.443 56.6477C352.83 56.4735 353.133 56.2311 353.352 55.9205C353.572 55.6098 353.682 55.25 353.682 54.8409C353.682 54.4129 353.576 54.036 353.364 53.7102C353.152 53.3807 352.841 53.1231 352.432 52.9375C352.023 52.7519 351.523 52.6591 350.932 52.6591H350V51.4091H350.932C351.394 51.4091 351.799 51.3258 352.148 51.1591C352.5 50.9924 352.775 50.7576 352.972 50.4545C353.172 50.1515 353.273 49.7955 353.273 49.3864C353.273 48.9924 353.186 48.6496 353.011 48.358C352.837 48.0663 352.591 47.839 352.273 47.6761C351.958 47.5133 351.587 47.4318 351.159 47.4318C350.758 47.4318 350.379 47.5057 350.023 47.6534C349.67 47.7973 349.383 48.0076 349.159 48.2841C348.936 48.5568 348.814 48.8864 348.795 49.2727H347.432C347.455 48.6629 347.638 48.1288 347.983 47.6705C348.328 47.2083 348.778 46.8485 349.335 46.5909C349.896 46.3333 350.511 46.2045 351.182 46.2045C351.902 46.2045 352.519 46.3504 353.034 46.642C353.549 46.9299 353.945 47.3106 354.222 47.7841C354.498 48.2576 354.636 48.7689 354.636 49.3182C354.636 49.9735 354.464 50.5322 354.119 50.9943C353.778 51.4564 353.314 51.7765 352.727 51.9545V52.0455C353.462 52.1667 354.036 52.4792 354.449 52.983C354.862 53.483 355.068 54.1023 355.068 54.8409C355.068 55.4735 354.896 56.0417 354.551 56.5455C354.21 57.0455 353.744 57.4394 353.153 57.7273C352.563 58.0152 351.89 58.1591 351.136 58.1591Z" fill="black"/>
<path d="M407.205 58V56.9773L411.045 52.7727C411.496 52.2803 411.867 51.8523 412.159 51.4886C412.451 51.1212 412.667 50.7765 412.807 50.4545C412.951 50.1288 413.023 49.7879 413.023 49.4318C413.023 49.0227 412.924 48.6686 412.727 48.3693C412.534 48.0701 412.269 47.839 411.932 47.6761C411.595 47.5133 411.216 47.4318 410.795 47.4318C410.348 47.4318 409.958 47.5246 409.625 47.7102C409.295 47.892 409.04 48.1477 408.858 48.4773C408.68 48.8068 408.591 49.1932 408.591 49.6364H407.25C407.25 48.9545 407.407 48.3561 407.722 47.8409C408.036 47.3258 408.464 46.9242 409.006 46.6364C409.551 46.3485 410.163 46.2045 410.841 46.2045C411.523 46.2045 412.127 46.3485 412.653 46.6364C413.18 46.9242 413.593 47.3125 413.892 47.8011C414.191 48.2898 414.341 48.8333 414.341 49.4318C414.341 49.8598 414.263 50.2784 414.108 50.6875C413.956 51.0928 413.691 51.5455 413.312 52.0455C412.938 52.5417 412.417 53.1477 411.75 53.8636L409.136 56.6591V56.75H414.545V58H407.205Z" fill="black"/>
<path d="M472.295 46.3636V58H470.886V47.8409H470.818L467.977 49.7273V48.2955L470.886 46.3636H472.295Z" fill="black"/>
<path d="M165.227 106.557V107.807H160.136V106.557H165.227ZM171.655 101.364V113H170.246V102.841H170.178L167.337 104.727V103.295L170.246 101.364H171.655Z" fill="#DC0000"/>
<path d="M226.227 106.557V107.807H221.136V106.557H226.227ZM232.655 101.364V113H231.246V102.841H231.178L228.337 104.727V103.295L231.246 101.364H232.655Z" fill="#DC0000"/>
<path d="M287.227 106.557V107.807H282.136V106.557H287.227ZM293.655 101.364V113H292.246V102.841H292.178L289.337 104.727V103.295L292.246 101.364H293.655Z" fill="#DC0000"/>
<path d="M348.227 106.557V107.807H343.136V106.557H348.227ZM354.655 101.364V113H353.246V102.841H353.178L350.337 104.727V103.295L353.246 101.364H354.655Z" fill="#DC0000"/>
<path d="M408.227 106.557V107.807H403.136V106.557H408.227ZM414.655 101.364V113H413.246V102.841H413.178L410.337 104.727V103.295L413.246 101.364H414.655Z" fill="#DC0000"/>
<path d="M469.227 106.557V107.807H464.136V106.557H469.227ZM475.655 101.364V113H474.246V102.841H474.178L471.337 104.727V103.295L474.246 101.364H475.655Z" fill="#DC0000"/>
<line x1="136.5" y1="22" x2="136.5" y2="84" stroke="black"/>
<line x1="501.5" y1="21" x2="501.5" y2="83" stroke="black"/>
</svg>
