<svg width="638" height="266" viewBox="0 0 638 266" fill="none" xmlns="http://www.w3.org/2000/svg">
<rect width="638" height="266" fill="#F5F5F5"/>
<path d="M163.932 55.6136V54.4545L169.045 46.3636H169.886V48.1591H169.318L165.455 54.2727V54.3636H172.341V55.6136H163.932ZM169.409 58V55.2614V54.7216V46.3636H170.75V58H169.409Z" fill="black"/>
<line x1="136" y1="83.5" x2="502" y2="83.5" stroke="black"/>
<line x1="136" y1="21.5" x2="502" y2="21.5" stroke="black"/>
<path d="M224.932 55.6136V54.4545L230.045 46.3636H230.886V48.1591H230.318L226.455 54.2727V54.3636H233.341V55.6136H224.932ZM230.409 58V55.2614V54.7216V46.3636H231.75V58H230.409Z" fill="black"/>
<path d="M290.136 58.1591C289.386 58.1591 288.718 58.0303 288.131 57.7727C287.547 57.5152 287.083 57.1572 286.739 56.6989C286.398 56.2367 286.212 55.7008 286.182 55.0909H287.614C287.644 55.4659 287.773 55.7898 288 56.0625C288.227 56.3314 288.525 56.5398 288.892 56.6875C289.259 56.8352 289.667 56.9091 290.114 56.9091C290.614 56.9091 291.057 56.822 291.443 56.6477C291.83 56.4735 292.133 56.2311 292.352 55.9205C292.572 55.6098 292.682 55.25 292.682 54.8409C292.682 54.4129 292.576 54.036 292.364 53.7102C292.152 53.3807 291.841 53.1231 291.432 52.9375C291.023 52.7519 290.523 52.6591 289.932 52.6591H289V51.4091H289.932C290.394 51.4091 290.799 51.3258 291.148 51.1591C291.5 50.9924 291.775 50.7576 291.972 50.4545C292.172 50.1515 292.273 49.7955 292.273 49.3864C292.273 48.9924 292.186 48.6496 292.011 48.358C291.837 48.0663 291.591 47.839 291.273 47.6761C290.958 47.5133 290.587 47.4318 290.159 47.4318C289.758 47.4318 289.379 47.5057 289.023 47.6534C288.67 47.7973 288.383 48.0076 288.159 48.2841C287.936 48.5568 287.814 48.8864 287.795 49.2727H286.432C286.455 48.6629 286.638 48.1288 286.983 47.6705C287.328 47.2083 287.778 46.8485 288.335 46.5909C288.896 46.3333 289.511 46.2045 290.182 46.2045C290.902 46.2045 291.519 46.3504 292.034 46.642C292.549 46.9299 292.945 47.3106 293.222 47.7841C293.498 48.2576 293.636 48.7689 293.636 49.3182C293.636 49.9735 293.464 50.5322 293.119 50.9943C292.778 51.4564 292.314 51.7765 291.727 51.9545V52.0455C292.462 52.1667 293.036 52.4792 293.449 52.983C293.862 53.483 294.068 54.1023 294.068 54.8409C294.068 55.4735 293.896 56.0417 293.551 56.5455C293.21 57.0455 292.744 57.4394 292.153 57.7273C291.563 58.0152 290.89 58.1591 290.136 58.1591Z" fill="black"/>
<path d="M347.205 58V56.9773L351.045 52.7727C351.496 52.2803 351.867 51.8523 352.159 51.4886C352.451 51.1212 352.667 50.7765 352.807 50.4545C352.951 50.1288 353.023 49.7879 353.023 49.4318C353.023 49.0227 352.924 48.6686 352.727 48.3693C352.534 48.0701 352.269 47.839 351.932 47.6761C351.595 47.5133 351.216 47.4318 350.795 47.4318C350.348 47.4318 349.958 47.5246 349.625 47.7102C349.295 47.892 349.04 48.1477 348.858 48.4773C348.68 48.8068 348.591 49.1932 348.591 49.6364H347.25C347.25 48.9545 347.407 48.3561 347.722 47.8409C348.036 47.3258 348.464 46.9242 349.006 46.6364C349.551 46.3485 350.163 46.2045 350.841 46.2045C351.523 46.2045 352.127 46.3485 352.653 46.6364C353.18 46.9242 353.593 47.3125 353.892 47.8011C354.191 48.2898 354.341 48.8333 354.341 49.4318C354.341 49.8598 354.263 50.2784 354.108 50.6875C353.956 51.0928 353.691 51.5455 353.312 52.0455C352.938 52.5417 352.417 53.1477 351.75 53.8636L349.136 56.6591V56.75H354.545V58H347.205Z" fill="black"/>
<path d="M411.295 46.3636V58H409.886V47.8409H409.818L406.977 49.7273V48.2955L409.886 46.3636H411.295Z" fill="black"/>
<path d="M472 58.1591C471.144 58.1591 470.415 57.9261 469.812 57.4602C469.21 56.9905 468.75 56.3106 468.432 55.4205C468.114 54.5265 467.955 53.447 467.955 52.1818C467.955 50.9242 468.114 49.8504 468.432 48.9602C468.754 48.0663 469.216 47.3845 469.818 46.9148C470.424 46.4413 471.152 46.2045 472 46.2045C472.848 46.2045 473.574 46.4413 474.176 46.9148C474.782 47.3845 475.244 48.0663 475.562 48.9602C475.884 49.8504 476.045 50.9242 476.045 52.1818C476.045 53.447 475.886 54.5265 475.568 55.4205C475.25 56.3106 474.79 56.9905 474.188 57.4602C473.585 57.9261 472.856 58.1591 472 58.1591ZM472 56.9091C472.848 56.9091 473.508 56.5 473.977 55.6818C474.447 54.8636 474.682 53.697 474.682 52.1818C474.682 51.1742 474.574 50.3163 474.358 49.608C474.146 48.8996 473.839 48.3598 473.438 47.9886C473.04 47.6174 472.561 47.4318 472 47.4318C471.159 47.4318 470.502 47.8466 470.028 48.6761C469.555 49.5019 469.318 50.6705 469.318 52.1818C469.318 53.1894 469.424 54.0455 469.636 54.75C469.848 55.4545 470.153 55.9905 470.551 56.358C470.953 56.7254 471.436 56.9091 472 56.9091Z" fill="black"/>
<path d="M235.358 225.455L239.676 237.699H239.847L244.165 225.455H246.011L240.67 240H238.852L233.511 225.455H235.358ZM251.608 240.227C250.557 240.227 249.65 239.995 248.888 239.531C248.13 239.062 247.545 238.409 247.134 237.571C246.726 236.728 246.523 235.748 246.523 234.631C246.523 233.513 246.726 232.528 247.134 231.676C247.545 230.819 248.118 230.152 248.852 229.673C249.591 229.19 250.453 228.949 251.438 228.949C252.006 228.949 252.567 229.044 253.121 229.233C253.675 229.422 254.179 229.73 254.634 230.156C255.088 230.578 255.45 231.136 255.72 231.832C255.99 232.528 256.125 233.385 256.125 234.403V235.114H247.716V233.665H254.42C254.42 233.049 254.297 232.5 254.051 232.017C253.81 231.534 253.464 231.153 253.014 230.874C252.569 230.594 252.044 230.455 251.438 230.455C250.77 230.455 250.192 230.62 249.705 230.952C249.222 231.278 248.85 231.705 248.589 232.23C248.329 232.756 248.199 233.319 248.199 233.92V234.886C248.199 235.71 248.341 236.409 248.625 236.982C248.914 237.55 249.314 237.983 249.825 238.281C250.337 238.575 250.931 238.722 251.608 238.722C252.048 238.722 252.446 238.66 252.801 238.537C253.161 238.409 253.471 238.22 253.732 237.969C253.992 237.713 254.193 237.396 254.335 237.017L255.955 237.472C255.784 238.021 255.498 238.504 255.095 238.92C254.693 239.332 254.196 239.654 253.604 239.886C253.012 240.114 252.347 240.227 251.608 240.227ZM263.419 229.091V230.511H257.766V229.091H263.419ZM259.413 226.477H261.089V236.875C261.089 237.348 261.158 237.704 261.295 237.94C261.438 238.172 261.617 238.329 261.835 238.409C262.058 238.485 262.292 238.523 262.538 238.523C262.723 238.523 262.875 238.513 262.993 238.494C263.111 238.471 263.206 238.452 263.277 238.438L263.618 239.943C263.504 239.986 263.346 240.028 263.142 240.071C262.938 240.118 262.68 240.142 262.368 240.142C261.894 240.142 261.43 240.04 260.976 239.837C260.526 239.633 260.152 239.323 259.854 238.906C259.56 238.49 259.413 237.964 259.413 237.33V226.477ZM270.255 240.227C269.27 240.227 268.406 239.993 267.663 239.524C266.924 239.055 266.346 238.4 265.93 237.557C265.518 236.714 265.312 235.729 265.312 234.602C265.312 233.466 265.518 232.474 265.93 231.626C266.346 230.779 266.924 230.121 267.663 229.652C268.406 229.183 269.27 228.949 270.255 228.949C271.24 228.949 272.102 229.183 272.84 229.652C273.584 230.121 274.161 230.779 274.573 231.626C274.99 232.474 275.198 233.466 275.198 234.602C275.198 235.729 274.99 236.714 274.573 237.557C274.161 238.4 273.584 239.055 272.84 239.524C272.102 239.993 271.24 240.227 270.255 240.227ZM270.255 238.722C271.003 238.722 271.619 238.53 272.102 238.146C272.585 237.763 272.942 237.259 273.174 236.634C273.406 236.009 273.522 235.331 273.522 234.602C273.522 233.873 273.406 233.194 273.174 232.564C272.942 231.934 272.585 231.425 272.102 231.037C271.619 230.649 271.003 230.455 270.255 230.455C269.507 230.455 268.891 230.649 268.408 231.037C267.925 231.425 267.568 231.934 267.336 232.564C267.104 233.194 266.988 233.873 266.988 234.602C266.988 235.331 267.104 236.009 267.336 236.634C267.568 237.259 267.925 237.763 268.408 238.146C268.891 238.53 269.507 238.722 270.255 238.722ZM277.757 240V229.091H279.376V230.739H279.49C279.689 230.199 280.048 229.761 280.569 229.425C281.09 229.089 281.677 228.92 282.331 228.92C282.454 228.92 282.608 228.923 282.792 228.928C282.977 228.932 283.117 228.939 283.211 228.949V230.653C283.154 230.639 283.024 230.618 282.821 230.589C282.622 230.556 282.411 230.54 282.189 230.54C281.658 230.54 281.185 230.651 280.768 230.874C280.356 231.091 280.029 231.394 279.788 231.783C279.551 232.166 279.433 232.604 279.433 233.097V240H277.757ZM295.681 229.091V230.511H289.8V229.091H295.681ZM291.562 240V227.585C291.562 226.96 291.709 226.439 292.002 226.023C292.296 225.606 292.677 225.294 293.146 225.085C293.614 224.877 294.109 224.773 294.63 224.773C295.042 224.773 295.378 224.806 295.638 224.872C295.899 224.938 296.093 225 296.221 225.057L295.738 226.506C295.653 226.477 295.534 226.442 295.383 226.399C295.236 226.357 295.042 226.335 294.8 226.335C294.246 226.335 293.846 226.475 293.6 226.754C293.359 227.034 293.238 227.443 293.238 227.983V240H291.562ZM298.03 240V229.091H299.706V240H298.03ZM298.882 227.273C298.556 227.273 298.274 227.161 298.037 226.939C297.805 226.716 297.689 226.449 297.689 226.136C297.689 225.824 297.805 225.556 298.037 225.334C298.274 225.111 298.556 225 298.882 225C299.209 225 299.489 225.111 299.721 225.334C299.957 225.556 300.076 225.824 300.076 226.136C300.076 226.449 299.957 226.716 299.721 226.939C299.489 227.161 299.209 227.273 298.882 227.273ZM304.452 233.438V240H302.776V229.091H304.396V230.795H304.538C304.793 230.241 305.182 229.796 305.702 229.46C306.223 229.119 306.896 228.949 307.719 228.949C308.458 228.949 309.104 229.1 309.658 229.403C310.212 229.702 310.643 230.156 310.951 230.767C311.259 231.373 311.413 232.14 311.413 233.068V240H309.737V233.182C309.737 232.325 309.514 231.657 309.069 231.179C308.624 230.696 308.013 230.455 307.237 230.455C306.701 230.455 306.223 230.571 305.802 230.803C305.385 231.035 305.056 231.373 304.815 231.818C304.573 232.263 304.452 232.803 304.452 233.438ZM317.686 240.256C316.994 240.256 316.367 240.125 315.804 239.865C315.24 239.6 314.793 239.219 314.461 238.722C314.13 238.22 313.964 237.614 313.964 236.903C313.964 236.278 314.087 235.772 314.333 235.384C314.58 234.991 314.909 234.683 315.321 234.46C315.733 234.238 316.187 234.072 316.684 233.963C317.186 233.849 317.69 233.759 318.197 233.693C318.86 233.608 319.397 233.544 319.809 233.501C320.226 233.454 320.529 233.376 320.718 233.267C320.913 233.158 321.01 232.969 321.01 232.699V232.642C321.01 231.941 320.818 231.397 320.434 231.009C320.056 230.62 319.48 230.426 318.708 230.426C317.908 230.426 317.281 230.601 316.826 230.952C316.372 231.302 316.052 231.676 315.868 232.074L314.277 231.506C314.561 230.843 314.94 230.327 315.413 229.957C315.891 229.583 316.412 229.323 316.975 229.176C317.544 229.025 318.102 228.949 318.652 228.949C319.002 228.949 319.404 228.991 319.859 229.077C320.318 229.157 320.761 229.325 321.187 229.581C321.618 229.837 321.975 230.223 322.26 230.739C322.544 231.255 322.686 231.946 322.686 232.812V240H321.01V238.523H320.924C320.811 238.759 320.621 239.013 320.356 239.283C320.091 239.553 319.738 239.782 319.298 239.972C318.858 240.161 318.32 240.256 317.686 240.256ZM317.941 238.75C318.604 238.75 319.163 238.62 319.618 238.359C320.077 238.099 320.422 237.763 320.654 237.351C320.891 236.939 321.01 236.506 321.01 236.051V234.517C320.939 234.602 320.782 234.68 320.541 234.751C320.304 234.818 320.029 234.877 319.717 234.929C319.409 234.976 319.109 235.019 318.815 235.057C318.526 235.09 318.292 235.118 318.112 235.142C317.676 235.199 317.269 235.291 316.89 235.419C316.516 235.542 316.213 235.729 315.981 235.98C315.754 236.226 315.64 236.562 315.64 236.989C315.64 237.571 315.856 238.011 316.287 238.31C316.722 238.603 317.274 238.75 317.941 238.75ZM327.421 225.455V240H325.745V225.455H327.421ZM336.798 232.983V231.449H345.548V232.983H336.798ZM336.798 237.188V235.653H345.548V237.188H336.798ZM354.129 232.756V231.875C354.92 231.875 355.472 231.709 355.784 231.378C356.101 231.046 356.26 230.492 356.26 229.716V227.443C356.26 226.79 356.321 226.224 356.445 225.746C356.572 225.268 356.778 224.872 357.062 224.56C357.347 224.247 357.725 224.015 358.199 223.864C358.672 223.712 359.257 223.636 359.953 223.636V225.028C359.404 225.028 358.971 225.114 358.653 225.284C358.341 225.455 358.118 225.72 357.986 226.08C357.858 226.435 357.794 226.889 357.794 227.443V230.284C357.794 230.653 357.744 230.99 357.645 231.293C357.55 231.596 357.373 231.856 357.112 232.074C356.852 232.292 356.48 232.46 355.997 232.578C355.519 232.696 354.896 232.756 354.129 232.756ZM359.953 241.818C359.257 241.818 358.672 241.742 358.199 241.591C357.725 241.439 357.347 241.207 357.062 240.895C356.778 240.582 356.572 240.187 356.445 239.709C356.321 239.231 356.26 238.665 356.26 238.011V235.739C356.26 234.962 356.101 234.408 355.784 234.077C355.472 233.745 354.92 233.58 354.129 233.58V232.699C354.896 232.699 355.519 232.758 355.997 232.876C356.48 232.995 356.852 233.163 357.112 233.381C357.373 233.598 357.55 233.859 357.645 234.162C357.744 234.465 357.794 234.801 357.794 235.17V238.011C357.794 238.565 357.858 239.02 357.986 239.375C358.118 239.73 358.341 239.993 358.653 240.163C358.971 240.339 359.404 240.426 359.953 240.426V241.818ZM354.129 233.58V231.875H355.805V233.58H354.129ZM366.972 240.199C366.375 240.189 365.779 240.076 365.182 239.858C364.586 239.64 364.041 239.273 363.549 238.757C363.056 238.236 362.661 237.533 362.363 236.648C362.064 235.758 361.915 234.64 361.915 233.295C361.915 232.008 362.036 230.866 362.277 229.872C362.519 228.873 362.869 228.033 363.328 227.351C363.788 226.664 364.342 226.143 364.99 225.788C365.644 225.433 366.38 225.256 367.199 225.256C368.014 225.256 368.738 225.419 369.373 225.746C370.012 226.068 370.533 226.518 370.935 227.095C371.337 227.673 371.598 228.338 371.716 229.091H369.983C369.822 228.437 369.51 227.895 369.046 227.464C368.582 227.034 367.966 226.818 367.199 226.818C366.072 226.818 365.185 227.308 364.536 228.288C363.892 229.268 363.568 230.644 363.563 232.415H363.676C363.942 232.012 364.257 231.669 364.621 231.385C364.99 231.096 365.398 230.874 365.843 230.717C366.288 230.561 366.759 230.483 367.256 230.483C368.089 230.483 368.852 230.691 369.543 231.108C370.234 231.52 370.788 232.09 371.205 232.82C371.622 233.544 371.83 234.375 371.83 235.312C371.83 236.212 371.629 237.036 371.226 237.784C370.824 238.527 370.258 239.119 369.529 239.56C368.804 239.995 367.952 240.208 366.972 240.199ZM366.972 238.636C367.569 238.636 368.104 238.487 368.577 238.189C369.055 237.891 369.432 237.491 369.706 236.989C369.986 236.487 370.125 235.928 370.125 235.312C370.125 234.711 369.99 234.164 369.721 233.672C369.455 233.175 369.088 232.779 368.62 232.486C368.156 232.192 367.625 232.045 367.029 232.045C366.579 232.045 366.16 232.135 365.772 232.315C365.383 232.491 365.042 232.732 364.749 233.04C364.46 233.348 364.233 233.7 364.067 234.098C363.901 234.491 363.819 234.905 363.819 235.341C363.819 235.919 363.953 236.458 364.223 236.96C364.498 237.462 364.872 237.867 365.346 238.175C365.824 238.482 366.366 238.636 366.972 238.636ZM379.623 232.699V233.58C378.832 233.58 378.278 233.745 377.961 234.077C377.648 234.408 377.492 234.962 377.492 235.739V238.011C377.492 238.665 377.428 239.231 377.3 239.709C377.177 240.187 376.974 240.582 376.69 240.895C376.406 241.207 376.027 241.439 375.553 241.591C375.08 241.742 374.495 241.818 373.799 241.818V240.426C374.348 240.426 374.779 240.339 375.092 240.163C375.409 239.993 375.631 239.73 375.759 239.375C375.892 239.02 375.958 238.565 375.958 238.011V235.17C375.958 234.801 376.005 234.465 376.1 234.162C376.2 233.859 376.379 233.598 376.64 233.381C376.9 233.163 377.27 232.995 377.748 232.876C378.231 232.758 378.856 232.699 379.623 232.699ZM373.799 223.636C374.495 223.636 375.08 223.712 375.553 223.864C376.027 224.015 376.406 224.247 376.69 224.56C376.974 224.872 377.177 225.268 377.3 225.746C377.428 226.224 377.492 226.79 377.492 227.443V229.716C377.492 230.492 377.648 231.046 377.961 231.378C378.278 231.709 378.832 231.875 379.623 231.875V232.756C378.856 232.756 378.231 232.696 377.748 232.578C377.27 232.46 376.9 232.292 376.64 232.074C376.379 231.856 376.2 231.596 376.1 231.293C376.005 230.99 375.958 230.653 375.958 230.284V227.443C375.958 226.889 375.892 226.435 375.759 226.08C375.631 225.72 375.409 225.455 375.092 225.284C374.779 225.114 374.348 225.028 373.799 225.028V223.636ZM379.623 231.875V233.58H377.947V231.875H379.623Z" fill="black"/>
<path d="M165.227 106.557V107.807H160.136V106.557H165.227ZM171.655 101.364V113H170.246V102.841H170.178L167.337 104.727V103.295L170.246 101.364H171.655Z" fill="#DC0000"/>
<path d="M226.227 106.557V107.807H221.136V106.557H226.227ZM232.655 101.364V113H231.246V102.841H231.178L228.337 104.727V103.295L231.246 101.364H232.655Z" fill="#DC0000"/>
<path d="M287.227 106.557V107.807H282.136V106.557H287.227ZM293.655 101.364V113H292.246V102.841H292.178L289.337 104.727V103.295L292.246 101.364H293.655Z" fill="#DC0000"/>
<path d="M348.227 106.557V107.807H343.136V106.557H348.227ZM354.655 101.364V113H353.246V102.841H353.178L350.337 104.727V103.295L353.246 101.364H354.655Z" fill="#DC0000"/>
<path d="M408.227 106.557V107.807H403.136V106.557H408.227ZM414.655 101.364V113H413.246V102.841H413.178L410.337 104.727V103.295L413.246 101.364H414.655Z" fill="#DC0000"/>
<path d="M469.227 106.557V107.807H464.136V106.557H469.227ZM475.655 101.364V113H474.246V102.841H474.178L471.337 104.727V103.295L474.246 101.364H475.655Z" fill="#DC0000"/>
<line x1="136.5" y1="22" x2="136.5" y2="84" stroke="black"/>
<line x1="501.5" y1="21" x2="501.5" y2="83" stroke="black"/>
</svg>
