<svg width="638" height="266" viewBox="0 0 638 266" fill="none" xmlns="http://www.w3.org/2000/svg">
<rect width="638" height="266" fill="#F5F5F5"/>
<path d="M163.932 55.6136V54.4545L169.045 46.3636H169.886V48.1591H169.318L165.455 54.2727V54.3636H172.341V55.6136H163.932ZM169.409 58V55.2614V54.7216V46.3636H170.75V58H169.409Z" fill="black"/>
<line x1="136" y1="83.5" x2="502" y2="83.5" stroke="black"/>
<line x1="136" y1="21.5" x2="502" y2="21.5" stroke="black"/>
<path d="M224.932 55.6136V54.4545L230.045 46.3636H230.886V48.1591H230.318L226.455 54.2727V54.3636H233.341V55.6136H224.932ZM230.409 58V55.2614V54.7216V46.3636H231.75V58H230.409Z" fill="black"/>
<path d="M290.136 58.1591C289.386 58.1591 288.718 58.0303 288.131 57.7727C287.547 57.5152 287.083 57.1572 286.739 56.6989C286.398 56.2367 286.212 55.7008 286.182 55.0909H287.614C287.644 55.4659 287.773 55.7898 288 56.0625C288.227 56.3314 288.525 56.5398 288.892 56.6875C289.259 56.8352 289.667 56.9091 290.114 56.9091C290.614 56.9091 291.057 56.822 291.443 56.6477C291.83 56.4735 292.133 56.2311 292.352 55.9205C292.572 55.6098 292.682 55.25 292.682 54.8409C292.682 54.4129 292.576 54.036 292.364 53.7102C292.152 53.3807 291.841 53.1231 291.432 52.9375C291.023 52.7519 290.523 52.6591 289.932 52.6591H289V51.4091H289.932C290.394 51.4091 290.799 51.3258 291.148 51.1591C291.5 50.9924 291.775 50.7576 291.972 50.4545C292.172 50.1515 292.273 49.7955 292.273 49.3864C292.273 48.9924 292.186 48.6496 292.011 48.358C291.837 48.0663 291.591 47.839 291.273 47.6761C290.958 47.5133 290.587 47.4318 290.159 47.4318C289.758 47.4318 289.379 47.5057 289.023 47.6534C288.67 47.7973 288.383 48.0076 288.159 48.2841C287.936 48.5568 287.814 48.8864 287.795 49.2727H286.432C286.455 48.6629 286.638 48.1288 286.983 47.6705C287.328 47.2083 287.778 46.8485 288.335 46.5909C288.896 46.3333 289.511 46.2045 290.182 46.2045C290.902 46.2045 291.519 46.3504 292.034 46.642C292.549 46.9299 292.945 47.3106 293.222 47.7841C293.498 48.2576 293.636 48.7689 293.636 49.3182C293.636 49.9735 293.464 50.5322 293.119 50.9943C292.778 51.4564 292.314 51.7765 291.727 51.9545V52.0455C292.462 52.1667 293.036 52.4792 293.449 52.983C293.862 53.483 294.068 54.1023 294.068 54.8409C294.068 55.4735 293.896 56.0417 293.551 56.5455C293.21 57.0455 292.744 57.4394 292.153 57.7273C291.563 58.0152 290.89 58.1591 290.136 58.1591Z" fill="black"/>
<path d="M347.205 58V56.9773L351.045 52.7727C351.496 52.2803 351.867 51.8523 352.159 51.4886C352.451 51.1212 352.667 50.7765 352.807 50.4545C352.951 50.1288 353.023 49.7879 353.023 49.4318C353.023 49.0227 352.924 48.6686 352.727 48.3693C352.534 48.0701 352.269 47.839 351.932 47.6761C351.595 47.5133 351.216 47.4318 350.795 47.4318C350.348 47.4318 349.958 47.5246 349.625 47.7102C349.295 47.892 349.04 48.1477 348.858 48.4773C348.68 48.8068 348.591 49.1932 348.591 49.6364H347.25C347.25 48.9545 347.407 48.3561 347.722 47.8409C348.036 47.3258 348.464 46.9242 349.006 46.6364C349.551 46.3485 350.163 46.2045 350.841 46.2045C351.523 46.2045 352.127 46.3485 352.653 46.6364C353.18 46.9242 353.593 47.3125 353.892 47.8011C354.191 48.2898 354.341 48.8333 354.341 49.4318C354.341 49.8598 354.263 50.2784 354.108 50.6875C353.956 51.0928 353.691 51.5455 353.312 52.0455C352.938 52.5417 352.417 53.1477 351.75 53.8636L349.136 56.6591V56.75H354.545V58H347.205Z" fill="black"/>
<path d="M411.295 46.3636V58H409.886V47.8409H409.818L406.977 49.7273V48.2955L409.886 46.3636H411.295Z" fill="black"/>
<path d="M472 58.1591C471.144 58.1591 470.415 57.9261 469.812 57.4602C469.21 56.9905 468.75 56.3106 468.432 55.4205C468.114 54.5265 467.955 53.447 467.955 52.1818C467.955 50.9242 468.114 49.8504 468.432 48.9602C468.754 48.0663 469.216 47.3845 469.818 46.9148C470.424 46.4413 471.152 46.2045 472 46.2045C472.848 46.2045 473.574 46.4413 474.176 46.9148C474.782 47.3845 475.244 48.0663 475.562 48.9602C475.884 49.8504 476.045 50.9242 476.045 52.1818C476.045 53.447 475.886 54.5265 475.568 55.4205C475.25 56.3106 474.79 56.9905 474.188 57.4602C473.585 57.9261 472.856 58.1591 472 58.1591ZM472 56.9091C472.848 56.9091 473.508 56.5 473.977 55.6818C474.447 54.8636 474.682 53.697 474.682 52.1818C474.682 51.1742 474.574 50.3163 474.358 49.608C474.146 48.8996 473.839 48.3598 473.438 47.9886C473.04 47.6174 472.561 47.4318 472 47.4318C471.159 47.4318 470.502 47.8466 470.028 48.6761C469.555 49.5019 469.318 50.6705 469.318 52.1818C469.318 53.1894 469.424 54.0455 469.636 54.75C469.848 55.4545 470.153 55.9905 470.551 56.358C470.953 56.7254 471.436 56.9091 472 56.9091Z" fill="black"/>
<path d="M235.358 225.455L239.676 237.699H239.847L244.165 225.455H246.011L240.67 240H238.852L233.511 225.455H235.358ZM251.608 240.227C250.557 240.227 249.65 239.995 248.888 239.531C248.13 239.062 247.545 238.409 247.134 237.571C246.726 236.728 246.523 235.748 246.523 234.631C246.523 233.513 246.726 232.528 247.134 231.676C247.545 230.819 248.118 230.152 248.852 229.673C249.591 229.19 250.453 228.949 251.438 228.949C252.006 228.949 252.567 229.044 253.121 229.233C253.675 229.422 254.179 229.73 254.634 230.156C255.088 230.578 255.45 231.136 255.72 231.832C255.99 232.528 256.125 233.385 256.125 234.403V235.114H247.716V233.665H254.42C254.42 233.049 254.297 232.5 254.051 232.017C253.81 231.534 253.464 231.153 253.014 230.874C252.569 230.594 252.044 230.455 251.438 230.455C250.77 230.455 250.192 230.62 249.705 230.952C249.222 231.278 248.85 231.705 248.589 232.23C248.329 232.756 248.199 233.319 248.199 233.92V234.886C248.199 235.71 248.341 236.409 248.625 236.982C248.914 237.55 249.314 237.983 249.825 238.281C250.337 238.575 250.931 238.722 251.608 238.722C252.048 238.722 252.446 238.66 252.801 238.537C253.161 238.409 253.471 238.22 253.732 237.969C253.992 237.713 254.193 237.396 254.335 237.017L255.955 237.472C255.784 238.021 255.498 238.504 255.095 238.92C254.693 239.332 254.196 239.654 253.604 239.886C253.012 240.114 252.347 240.227 251.608 240.227ZM263.419 229.091V230.511H257.766V229.091H263.419ZM259.413 226.477H261.089V236.875C261.089 237.348 261.158 237.704 261.295 237.94C261.438 238.172 261.617 238.329 261.835 238.409C262.058 238.485 262.292 238.523 262.538 238.523C262.723 238.523 262.875 238.513 262.993 238.494C263.111 238.471 263.206 238.452 263.277 238.438L263.618 239.943C263.504 239.986 263.346 240.028 263.142 240.071C262.938 240.118 262.68 240.142 262.368 240.142C261.894 240.142 261.43 240.04 260.976 239.837C260.526 239.633 260.152 239.323 259.854 238.906C259.56 238.49 259.413 237.964 259.413 237.33V226.477ZM270.255 240.227C269.27 240.227 268.406 239.993 267.663 239.524C266.924 239.055 266.346 238.4 265.93 237.557C265.518 236.714 265.312 235.729 265.312 234.602C265.312 233.466 265.518 232.474 265.93 231.626C266.346 230.779 266.924 230.121 267.663 229.652C268.406 229.183 269.27 228.949 270.255 228.949C271.24 228.949 272.102 229.183 272.84 229.652C273.584 230.121 274.161 230.779 274.573 231.626C274.99 232.474 275.198 233.466 275.198 234.602C275.198 235.729 274.99 236.714 274.573 237.557C274.161 238.4 273.584 239.055 272.84 239.524C272.102 239.993 271.24 240.227 270.255 240.227ZM270.255 238.722C271.003 238.722 271.619 238.53 272.102 238.146C272.585 237.763 272.942 237.259 273.174 236.634C273.406 236.009 273.522 235.331 273.522 234.602C273.522 233.873 273.406 233.194 273.174 232.564C272.942 231.934 272.585 231.425 272.102 231.037C271.619 230.649 271.003 230.455 270.255 230.455C269.507 230.455 268.891 230.649 268.408 231.037C267.925 231.425 267.568 231.934 267.336 232.564C267.104 233.194 266.988 233.873 266.988 234.602C266.988 235.331 267.104 236.009 267.336 236.634C267.568 237.259 267.925 237.763 268.408 238.146C268.891 238.53 269.507 238.722 270.255 238.722ZM277.757 240V229.091H279.376V230.739H279.49C279.689 230.199 280.048 229.761 280.569 229.425C281.09 229.089 281.677 228.92 282.331 228.92C282.454 228.92 282.608 228.923 282.792 228.928C282.977 228.932 283.117 228.939 283.211 228.949V230.653C283.154 230.639 283.024 230.618 282.821 230.589C282.622 230.556 282.411 230.54 282.189 230.54C281.658 230.54 281.185 230.651 280.768 230.874C280.356 231.091 280.029 231.394 279.788 231.783C279.551 232.166 279.433 232.604 279.433 233.097V240H277.757ZM295.681 229.091V230.511H289.8V229.091H295.681ZM291.562 240V227.585C291.562 226.96 291.709 226.439 292.002 226.023C292.296 225.606 292.677 225.294 293.146 225.085C293.614 224.877 294.109 224.773 294.63 224.773C295.042 224.773 295.378 224.806 295.638 224.872C295.899 224.938 296.093 225 296.221 225.057L295.738 226.506C295.653 226.477 295.534 226.442 295.383 226.399C295.236 226.357 295.042 226.335 294.8 226.335C294.246 226.335 293.846 226.475 293.6 226.754C293.359 227.034 293.238 227.443 293.238 227.983V240H291.562ZM298.03 240V229.091H299.706V240H298.03ZM298.882 227.273C298.556 227.273 298.274 227.161 298.037 226.939C297.805 226.716 297.689 226.449 297.689 226.136C297.689 225.824 297.805 225.556 298.037 225.334C298.274 225.111 298.556 225 298.882 225C299.209 225 299.489 225.111 299.721 225.334C299.957 225.556 300.076 225.824 300.076 226.136C300.076 226.449 299.957 226.716 299.721 226.939C299.489 227.161 299.209 227.273 298.882 227.273ZM304.452 233.438V240H302.776V229.091H304.396V230.795H304.538C304.793 230.241 305.182 229.796 305.702 229.46C306.223 229.119 306.896 228.949 307.719 228.949C308.458 228.949 309.104 229.1 309.658 229.403C310.212 229.702 310.643 230.156 310.951 230.767C311.259 231.373 311.413 232.14 311.413 233.068V240H309.737V233.182C309.737 232.325 309.514 231.657 309.069 231.179C308.624 230.696 308.013 230.455 307.237 230.455C306.701 230.455 306.223 230.571 305.802 230.803C305.385 231.035 305.056 231.373 304.815 231.818C304.573 232.263 304.452 232.803 304.452 233.438ZM317.686 240.256C316.994 240.256 316.367 240.125 315.804 239.865C315.24 239.6 314.793 239.219 314.461 238.722C314.13 238.22 313.964 237.614 313.964 236.903C313.964 236.278 314.087 235.772 314.333 235.384C314.58 234.991 314.909 234.683 315.321 234.46C315.733 234.238 316.187 234.072 316.684 233.963C317.186 233.849 317.69 233.759 318.197 233.693C318.86 233.608 319.397 233.544 319.809 233.501C320.226 233.454 320.529 233.376 320.718 233.267C320.913 233.158 321.01 232.969 321.01 232.699V232.642C321.01 231.941 320.818 231.397 320.434 231.009C320.056 230.62 319.48 230.426 318.708 230.426C317.908 230.426 317.281 230.601 316.826 230.952C316.372 231.302 316.052 231.676 315.868 232.074L314.277 231.506C314.561 230.843 314.94 230.327 315.413 229.957C315.891 229.583 316.412 229.323 316.975 229.176C317.544 229.025 318.102 228.949 318.652 228.949C319.002 228.949 319.404 228.991 319.859 229.077C320.318 229.157 320.761 229.325 321.187 229.581C321.618 229.837 321.975 230.223 322.26 230.739C322.544 231.255 322.686 231.946 322.686 232.812V240H321.01V238.523H320.924C320.811 238.759 320.621 239.013 320.356 239.283C320.091 239.553 319.738 239.782 319.298 239.972C318.858 240.161 318.32 240.256 317.686 240.256ZM317.941 238.75C318.604 238.75 319.163 238.62 319.618 238.359C320.077 238.099 320.422 237.763 320.654 237.351C320.891 236.939 321.01 236.506 321.01 236.051V234.517C320.939 234.602 320.782 234.68 320.541 234.751C320.304 234.818 320.029 234.877 319.717 234.929C319.409 234.976 319.109 235.019 318.815 235.057C318.526 235.09 318.292 235.118 318.112 235.142C317.676 235.199 317.269 235.291 316.89 235.419C316.516 235.542 316.213 235.729 315.981 235.98C315.754 236.226 315.64 236.562 315.64 236.989C315.64 237.571 315.856 238.011 316.287 238.31C316.722 238.603 317.274 238.75 317.941 238.75ZM327.421 225.455V240H325.745V225.455H327.421ZM336.798 232.983V231.449H345.548V232.983H336.798ZM336.798 237.188V235.653H345.548V237.188H336.798ZM354.129 232.756V231.875C354.92 231.875 355.472 231.709 355.784 231.378C356.101 231.046 356.26 230.492 356.26 229.716V227.443C356.26 226.79 356.321 226.224 356.445 225.746C356.572 225.268 356.778 224.872 357.062 224.56C357.347 224.247 357.725 224.015 358.199 223.864C358.672 223.712 359.257 223.636 359.953 223.636V225.028C359.404 225.028 358.971 225.114 358.653 225.284C358.341 225.455 358.118 225.72 357.986 226.08C357.858 226.435 357.794 226.889 357.794 227.443V230.284C357.794 230.653 357.744 230.99 357.645 231.293C357.55 231.596 357.373 231.856 357.112 232.074C356.852 232.292 356.48 232.46 355.997 232.578C355.519 232.696 354.896 232.756 354.129 232.756ZM359.953 241.818C359.257 241.818 358.672 241.742 358.199 241.591C357.725 241.439 357.347 241.207 357.062 240.895C356.778 240.582 356.572 240.187 356.445 239.709C356.321 239.231 356.26 238.665 356.26 238.011V235.739C356.26 234.962 356.101 234.408 355.784 234.077C355.472 233.745 354.92 233.58 354.129 233.58V232.699C354.896 232.699 355.519 232.758 355.997 232.876C356.48 232.995 356.852 233.163 357.112 233.381C357.373 233.598 357.55 233.859 357.645 234.162C357.744 234.465 357.794 234.801 357.794 235.17V238.011C357.794 238.565 357.858 239.02 357.986 239.375C358.118 239.73 358.341 239.993 358.653 240.163C358.971 240.339 359.404 240.426 359.953 240.426V241.818ZM354.129 233.58V231.875H355.805V233.58H354.129ZM366.972 240.199C366.375 240.189 365.779 240.076 365.182 239.858C364.586 239.64 364.041 239.273 363.549 238.757C363.056 238.236 362.661 237.533 362.363 236.648C362.064 235.758 361.915 234.64 361.915 233.295C361.915 232.008 362.036 230.866 362.277 229.872C362.519 228.873 362.869 228.033 363.328 227.351C363.788 226.664 364.342 226.143 364.99 225.788C365.644 225.433 366.38 225.256 367.199 225.256C368.014 225.256 368.738 225.419 369.373 225.746C370.012 226.068 370.533 226.518 370.935 227.095C371.337 227.673 371.598 228.338 371.716 229.091H369.983C369.822 228.437 369.51 227.895 369.046 227.464C368.582 227.034 367.966 226.818 367.199 226.818C366.072 226.818 365.185 227.308 364.536 228.288C363.892 229.268 363.568 230.644 363.563 232.415H363.676C363.942 232.012 364.257 231.669 364.621 231.385C364.99 231.096 365.398 230.874 365.843 230.717C366.288 230.561 366.759 230.483 367.256 230.483C368.089 230.483 368.852 230.691 369.543 231.108C370.234 231.52 370.788 232.09 371.205 232.82C371.622 233.544 371.83 234.375 371.83 235.312C371.83 236.212 371.629 237.036 371.226 237.784C370.824 238.527 370.258 239.119 369.529 239.56C368.804 239.995 367.952 240.208 366.972 240.199ZM366.972 238.636C367.569 238.636 368.104 238.487 368.577 238.189C369.055 237.891 369.432 237.491 369.706 236.989C369.986 236.487 370.125 235.928 370.125 235.312C370.125 234.711 369.99 234.164 369.721 233.672C369.455 233.175 369.088 232.779 368.62 232.486C368.156 232.192 367.625 232.045 367.029 232.045C366.579 232.045 366.16 232.135 365.772 232.315C365.383 232.491 365.042 232.732 364.749 233.04C364.46 233.348 364.233 233.7 364.067 234.098C363.901 234.491 363.819 234.905 363.819 235.341C363.819 235.919 363.953 236.458 364.223 236.96C364.498 237.462 364.872 237.867 365.346 238.175C365.824 238.482 366.366 238.636 366.972 238.636ZM376.468 238.011L376.354 238.778C376.274 239.318 376.15 239.896 375.985 240.511C375.824 241.127 375.656 241.707 375.48 242.251C375.305 242.796 375.161 243.229 375.047 243.551H373.769C373.83 243.248 373.911 242.848 374.01 242.351C374.11 241.854 374.209 241.297 374.309 240.682C374.413 240.071 374.498 239.446 374.564 238.807L374.65 238.011H376.468ZM402.338 233.835V234.716C401.547 234.716 400.993 234.882 400.676 235.213C400.363 235.545 400.207 236.098 400.207 236.875V239.148C400.207 239.801 400.143 240.367 400.015 240.845C399.892 241.323 399.689 241.719 399.404 242.031C399.12 242.344 398.742 242.576 398.268 242.727C397.795 242.879 397.21 242.955 396.514 242.955V241.562C397.063 241.562 397.494 241.475 397.806 241.3C398.124 241.129 398.346 240.866 398.474 240.511C398.607 240.156 398.673 239.702 398.673 239.148V236.307C398.673 235.937 398.72 235.601 398.815 235.298C398.914 234.995 399.094 234.735 399.355 234.517C399.615 234.299 399.984 234.131 400.463 234.013C400.946 233.894 401.571 233.835 402.338 233.835ZM396.514 224.773C397.21 224.773 397.795 224.848 398.268 225C398.742 225.152 399.12 225.384 399.404 225.696C399.689 226.009 399.892 226.404 400.015 226.882C400.143 227.36 400.207 227.926 400.207 228.58V230.852C400.207 231.629 400.363 232.183 400.676 232.514C400.993 232.846 401.547 233.011 402.338 233.011V233.892C401.571 233.892 400.946 233.833 400.463 233.714C399.984 233.596 399.615 233.428 399.355 233.21C399.094 232.992 398.914 232.732 398.815 232.429C398.72 232.126 398.673 231.79 398.673 231.42V228.58C398.673 228.026 398.607 227.571 398.474 227.216C398.346 226.856 398.124 226.591 397.806 226.42C397.494 226.25 397.063 226.165 396.514 226.165V224.773ZM402.338 233.011V234.716H400.662V233.011H402.338Z" fill="black"/>
<path d="M389.715 240.199C388.882 240.199 388.131 240.033 387.464 239.702C386.796 239.37 386.261 238.916 385.859 238.338C385.456 237.76 385.236 237.102 385.198 236.364H386.903C386.969 237.022 387.267 237.566 387.798 237.997C388.333 238.423 388.972 238.636 389.715 238.636C390.312 238.636 390.842 238.497 391.306 238.217C391.775 237.938 392.142 237.554 392.407 237.067C392.677 236.574 392.812 236.018 392.812 235.398C392.812 234.763 392.672 234.197 392.393 233.7C392.118 233.198 391.739 232.803 391.256 232.514C390.773 232.225 390.222 232.079 389.602 232.074C389.156 232.069 388.7 232.138 388.231 232.28C387.762 232.417 387.376 232.595 387.073 232.812L385.425 232.614L386.306 225.455H393.863V227.017H387.783L387.272 231.307H387.357C387.656 231.07 388.03 230.874 388.479 230.717C388.929 230.561 389.398 230.483 389.886 230.483C390.776 230.483 391.569 230.696 392.265 231.122C392.966 231.544 393.515 232.121 393.913 232.855C394.315 233.589 394.516 234.427 394.516 235.369C394.516 236.297 394.308 237.126 393.891 237.855C393.479 238.58 392.911 239.152 392.187 239.574C391.462 239.991 390.638 240.199 389.715 240.199Z" fill="#00A538"/>
<path d="M165.227 106.557V107.807H160.136V106.557H165.227ZM171.655 101.364V113H170.246V102.841H170.178L167.337 104.727V103.295L170.246 101.364H171.655Z" fill="#DC0000"/>
<path d="M226.227 106.557V107.807H221.136V106.557H226.227ZM232.655 101.364V113H231.246V102.841H231.178L228.337 104.727V103.295L231.246 101.364H232.655Z" fill="#DC0000"/>
<path d="M287.227 106.557V107.807H282.136V106.557H287.227ZM293.655 101.364V113H292.246V102.841H292.178L289.337 104.727V103.295L292.246 101.364H293.655Z" fill="#DC0000"/>
<path d="M348.227 106.557V107.807H343.136V106.557H348.227ZM354.655 101.364V113H353.246V102.841H353.178L350.337 104.727V103.295L353.246 101.364H354.655Z" fill="#DC0000"/>
<path d="M408.227 106.557V107.807H403.136V106.557H408.227ZM414.655 101.364V113H413.246V102.841H413.178L410.337 104.727V103.295L413.246 101.364H414.655Z" fill="#DC0000"/>
<path d="M469.227 106.557V107.807H464.136V106.557H469.227ZM475.655 101.364V113H474.246V102.841H474.178L471.337 104.727V103.295L474.246 101.364H475.655Z" fill="#DC0000"/>
<line x1="136.5" y1="22" x2="136.5" y2="84" stroke="black"/>
<line x1="501.5" y1="21" x2="501.5" y2="83" stroke="black"/>
<path d="M168.136 169.159C167.386 169.159 166.718 169.03 166.131 168.773C165.547 168.515 165.083 168.157 164.739 167.699C164.398 167.237 164.212 166.701 164.182 166.091H165.614C165.644 166.466 165.773 166.79 166 167.062C166.227 167.331 166.525 167.54 166.892 167.688C167.259 167.835 167.667 167.909 168.114 167.909C168.614 167.909 169.057 167.822 169.443 167.648C169.83 167.473 170.133 167.231 170.352 166.92C170.572 166.61 170.682 166.25 170.682 165.841C170.682 165.413 170.576 165.036 170.364 164.71C170.152 164.381 169.841 164.123 169.432 163.938C169.023 163.752 168.523 163.659 167.932 163.659H167V162.409H167.932C168.394 162.409 168.799 162.326 169.148 162.159C169.5 161.992 169.775 161.758 169.972 161.455C170.172 161.152 170.273 160.795 170.273 160.386C170.273 159.992 170.186 159.65 170.011 159.358C169.837 159.066 169.591 158.839 169.273 158.676C168.958 158.513 168.587 158.432 168.159 158.432C167.758 158.432 167.379 158.506 167.023 158.653C166.67 158.797 166.383 159.008 166.159 159.284C165.936 159.557 165.814 159.886 165.795 160.273H164.432C164.455 159.663 164.638 159.129 164.983 158.67C165.328 158.208 165.778 157.848 166.335 157.591C166.896 157.333 167.511 157.205 168.182 157.205C168.902 157.205 169.519 157.35 170.034 157.642C170.549 157.93 170.945 158.311 171.222 158.784C171.498 159.258 171.636 159.769 171.636 160.318C171.636 160.973 171.464 161.532 171.119 161.994C170.778 162.456 170.314 162.777 169.727 162.955V163.045C170.462 163.167 171.036 163.479 171.449 163.983C171.862 164.483 172.068 165.102 172.068 165.841C172.068 166.473 171.896 167.042 171.551 167.545C171.21 168.045 170.744 168.439 170.153 168.727C169.563 169.015 168.89 169.159 168.136 169.159Z" fill="#00A538"/>
<line x1="136" y1="194.5" x2="502" y2="194.5" stroke="black"/>
<line x1="136" y1="132.5" x2="502" y2="132.5" stroke="black"/>
<path d="M229.136 169.159C228.386 169.159 227.718 169.03 227.131 168.773C226.547 168.515 226.083 168.157 225.739 167.699C225.398 167.237 225.212 166.701 225.182 166.091H226.614C226.644 166.466 226.773 166.79 227 167.062C227.227 167.331 227.525 167.54 227.892 167.688C228.259 167.835 228.667 167.909 229.114 167.909C229.614 167.909 230.057 167.822 230.443 167.648C230.83 167.473 231.133 167.231 231.352 166.92C231.572 166.61 231.682 166.25 231.682 165.841C231.682 165.413 231.576 165.036 231.364 164.71C231.152 164.381 230.841 164.123 230.432 163.938C230.023 163.752 229.523 163.659 228.932 163.659H228V162.409H228.932C229.394 162.409 229.799 162.326 230.148 162.159C230.5 161.992 230.775 161.758 230.972 161.455C231.172 161.152 231.273 160.795 231.273 160.386C231.273 159.992 231.186 159.65 231.011 159.358C230.837 159.066 230.591 158.839 230.273 158.676C229.958 158.513 229.587 158.432 229.159 158.432C228.758 158.432 228.379 158.506 228.023 158.653C227.67 158.797 227.383 159.008 227.159 159.284C226.936 159.557 226.814 159.886 226.795 160.273H225.432C225.455 159.663 225.638 159.129 225.983 158.67C226.328 158.208 226.778 157.848 227.335 157.591C227.896 157.333 228.511 157.205 229.182 157.205C229.902 157.205 230.519 157.35 231.034 157.642C231.549 157.93 231.945 158.311 232.222 158.784C232.498 159.258 232.636 159.769 232.636 160.318C232.636 160.973 232.464 161.532 232.119 161.994C231.778 162.456 231.314 162.777 230.727 162.955V163.045C231.462 163.167 232.036 163.479 232.449 163.983C232.862 164.483 233.068 165.102 233.068 165.841C233.068 166.473 232.896 167.042 232.551 167.545C232.21 168.045 231.744 168.439 231.153 168.727C230.563 169.015 229.89 169.159 229.136 169.159Z" fill="#00A538"/>
<path d="M286.205 169V167.977L290.045 163.773C290.496 163.28 290.867 162.852 291.159 162.489C291.451 162.121 291.667 161.777 291.807 161.455C291.951 161.129 292.023 160.788 292.023 160.432C292.023 160.023 291.924 159.669 291.727 159.369C291.534 159.07 291.269 158.839 290.932 158.676C290.595 158.513 290.216 158.432 289.795 158.432C289.348 158.432 288.958 158.525 288.625 158.71C288.295 158.892 288.04 159.148 287.858 159.477C287.68 159.807 287.591 160.193 287.591 160.636H286.25C286.25 159.955 286.407 159.356 286.722 158.841C287.036 158.326 287.464 157.924 288.006 157.636C288.551 157.348 289.163 157.205 289.841 157.205C290.523 157.205 291.127 157.348 291.653 157.636C292.18 157.924 292.593 158.312 292.892 158.801C293.191 159.29 293.341 159.833 293.341 160.432C293.341 160.86 293.263 161.278 293.108 161.688C292.956 162.093 292.691 162.545 292.312 163.045C291.938 163.542 291.417 164.148 290.75 164.864L288.136 167.659V167.75H293.545V169H286.205Z" fill="#00A538"/>
<path d="M351.295 157.364V169H349.886V158.841H349.818L346.977 160.727V159.295L349.886 157.364H351.295Z" fill="#00A538"/>
<path d="M411 169.159C410.144 169.159 409.415 168.926 408.812 168.46C408.21 167.991 407.75 167.311 407.432 166.42C407.114 165.527 406.955 164.447 406.955 163.182C406.955 161.924 407.114 160.85 407.432 159.96C407.754 159.066 408.216 158.384 408.818 157.915C409.424 157.441 410.152 157.205 411 157.205C411.848 157.205 412.574 157.441 413.176 157.915C413.782 158.384 414.244 159.066 414.562 159.96C414.884 160.85 415.045 161.924 415.045 163.182C415.045 164.447 414.886 165.527 414.568 166.42C414.25 167.311 413.79 167.991 413.188 168.46C412.585 168.926 411.856 169.159 411 169.159ZM411 167.909C411.848 167.909 412.508 167.5 412.977 166.682C413.447 165.864 413.682 164.697 413.682 163.182C413.682 162.174 413.574 161.316 413.358 160.608C413.146 159.9 412.839 159.36 412.438 158.989C412.04 158.617 411.561 158.432 411 158.432C410.159 158.432 409.502 158.847 409.028 159.676C408.555 160.502 408.318 161.67 408.318 163.182C408.318 164.189 408.424 165.045 408.636 165.75C408.848 166.455 409.153 166.991 409.551 167.358C409.953 167.725 410.436 167.909 411 167.909Z" fill="#00A538"/>
<path d="M472 169.159C471.144 169.159 470.415 168.926 469.812 168.46C469.21 167.991 468.75 167.311 468.432 166.42C468.114 165.527 467.955 164.447 467.955 163.182C467.955 161.924 468.114 160.85 468.432 159.96C468.754 159.066 469.216 158.384 469.818 157.915C470.424 157.441 471.152 157.205 472 157.205C472.848 157.205 473.574 157.441 474.176 157.915C474.782 158.384 475.244 159.066 475.562 159.96C475.884 160.85 476.045 161.924 476.045 163.182C476.045 164.447 475.886 165.527 475.568 166.42C475.25 167.311 474.79 167.991 474.188 168.46C473.585 168.926 472.856 169.159 472 169.159ZM472 167.909C472.848 167.909 473.508 167.5 473.977 166.682C474.447 165.864 474.682 164.697 474.682 163.182C474.682 162.174 474.574 161.316 474.358 160.608C474.146 159.9 473.839 159.36 473.438 158.989C473.04 158.617 472.561 158.432 472 158.432C471.159 158.432 470.502 158.847 470.028 159.676C469.555 160.502 469.318 161.67 469.318 163.182C469.318 164.189 469.424 165.045 469.636 165.75C469.848 166.455 470.153 166.991 470.551 167.358C470.953 167.725 471.436 167.909 472 167.909Z" fill="#DC0000"/>
<line x1="136.5" y1="133" x2="136.5" y2="195" stroke="black"/>
<line x1="501.5" y1="132" x2="501.5" y2="194" stroke="black"/>
</svg>
