<svg width="638" height="266" viewBox="0 0 638 266" fill="none" xmlns="http://www.w3.org/2000/svg">
<rect width="638" height="266" fill="#F5F5F5"/>
<path d="M168.136 58.1591C167.386 58.1591 166.718 58.0303 166.131 57.7727C165.547 57.5152 165.083 57.1572 164.739 56.6989C164.398 56.2367 164.212 55.7008 164.182 55.0909H165.614C165.644 55.4659 165.773 55.7898 166 56.0625C166.227 56.3314 166.525 56.5398 166.892 56.6875C167.259 56.8352 167.667 56.9091 168.114 56.9091C168.614 56.9091 169.057 56.822 169.443 56.6477C169.83 56.4735 170.133 56.2311 170.352 55.9205C170.572 55.6098 170.682 55.25 170.682 54.8409C170.682 54.4129 170.576 54.036 170.364 53.7102C170.152 53.3807 169.841 53.1231 169.432 52.9375C169.023 52.7519 168.523 52.6591 167.932 52.6591H167V51.4091H167.932C168.394 51.4091 168.799 51.3258 169.148 51.1591C169.5 50.9924 169.775 50.7576 169.972 50.4545C170.172 50.1515 170.273 49.7955 170.273 49.3864C170.273 48.9924 170.186 48.6496 170.011 48.358C169.837 48.0663 169.591 47.839 169.273 47.6761C168.958 47.5133 168.587 47.4318 168.159 47.4318C167.758 47.4318 167.379 47.5057 167.023 47.6534C166.67 47.7973 166.383 48.0076 166.159 48.2841C165.936 48.5568 165.814 48.8864 165.795 49.2727H164.432C164.455 48.6629 164.638 48.1288 164.983 47.6705C165.328 47.2083 165.778 46.8485 166.335 46.5909C166.896 46.3333 167.511 46.2045 168.182 46.2045C168.902 46.2045 169.519 46.3504 170.034 46.642C170.549 46.9299 170.945 47.3106 171.222 47.7841C171.498 48.2576 171.636 48.7689 171.636 49.3182C171.636 49.9735 171.464 50.5322 171.119 50.9943C170.778 51.4564 170.314 51.7765 169.727 51.9545V52.0455C170.462 52.1667 171.036 52.4792 171.449 52.983C171.862 53.483 172.068 54.1023 172.068 54.8409C172.068 55.4735 171.896 56.0417 171.551 56.5455C171.21 57.0455 170.744 57.4394 170.153 57.7273C169.563 58.0152 168.89 58.1591 168.136 58.1591Z" fill="black"/>
<line x1="136" y1="83.5" x2="502" y2="83.5" stroke="black"/>
<line x1="136" y1="21.5" x2="502" y2="21.5" stroke="black"/>
<path d="M229.136 58.1591C228.386 58.1591 227.718 58.0303 227.131 57.7727C226.547 57.5152 226.083 57.1572 225.739 56.6989C225.398 56.2367 225.212 55.7008 225.182 55.0909H226.614C226.644 55.4659 226.773 55.7898 227 56.0625C227.227 56.3314 227.525 56.5398 227.892 56.6875C228.259 56.8352 228.667 56.9091 229.114 56.9091C229.614 56.9091 230.057 56.822 230.443 56.6477C230.83 56.4735 231.133 56.2311 231.352 55.9205C231.572 55.6098 231.682 55.25 231.682 54.8409C231.682 54.4129 231.576 54.036 231.364 53.7102C231.152 53.3807 230.841 53.1231 230.432 52.9375C230.023 52.7519 229.523 52.6591 228.932 52.6591H228V51.4091H228.932C229.394 51.4091 229.799 51.3258 230.148 51.1591C230.5 50.9924 230.775 50.7576 230.972 50.4545C231.172 50.1515 231.273 49.7955 231.273 49.3864C231.273 48.9924 231.186 48.6496 231.011 48.358C230.837 48.0663 230.591 47.839 230.273 47.6761C229.958 47.5133 229.587 47.4318 229.159 47.4318C228.758 47.4318 228.379 47.5057 228.023 47.6534C227.67 47.7973 227.383 48.0076 227.159 48.2841C226.936 48.5568 226.814 48.8864 226.795 49.2727H225.432C225.455 48.6629 225.638 48.1288 225.983 47.6705C226.328 47.2083 226.778 46.8485 227.335 46.5909C227.896 46.3333 228.511 46.2045 229.182 46.2045C229.902 46.2045 230.519 46.3504 231.034 46.642C231.549 46.9299 231.945 47.3106 232.222 47.7841C232.498 48.2576 232.636 48.7689 232.636 49.3182C232.636 49.9735 232.464 50.5322 232.119 50.9943C231.778 51.4564 231.314 51.7765 230.727 51.9545V52.0455C231.462 52.1667 232.036 52.4792 232.449 52.983C232.862 53.483 233.068 54.1023 233.068 54.8409C233.068 55.4735 232.896 56.0417 232.551 56.5455C232.21 57.0455 231.744 57.4394 231.153 57.7273C230.563 58.0152 229.89 58.1591 229.136 58.1591Z" fill="black"/>
<path d="M286.205 58V56.9773L290.045 52.7727C290.496 52.2803 290.867 51.8523 291.159 51.4886C291.451 51.1212 291.667 50.7765 291.807 50.4545C291.951 50.1288 292.023 49.7879 292.023 49.4318C292.023 49.0227 291.924 48.6686 291.727 48.3693C291.534 48.0701 291.269 47.839 290.932 47.6761C290.595 47.5133 290.216 47.4318 289.795 47.4318C289.348 47.4318 288.958 47.5246 288.625 47.7102C288.295 47.892 288.04 48.1477 287.858 48.4773C287.68 48.8068 287.591 49.1932 287.591 49.6364H286.25C286.25 48.9545 286.407 48.3561 286.722 47.8409C287.036 47.3258 287.464 46.9242 288.006 46.6364C288.551 46.3485 289.163 46.2045 289.841 46.2045C290.523 46.2045 291.127 46.3485 291.653 46.6364C292.18 46.9242 292.593 47.3125 292.892 47.8011C293.191 48.2898 293.341 48.8333 293.341 49.4318C293.341 49.8598 293.263 50.2784 293.108 50.6875C292.956 51.0928 292.691 51.5455 292.312 52.0455C291.938 52.5417 291.417 53.1477 290.75 53.8636L288.136 56.6591V56.75H293.545V58H286.205Z" fill="black"/>
<path d="M351.295 46.3636V58H349.886V47.8409H349.818L346.977 49.7273V48.2955L349.886 46.3636H351.295Z" fill="black"/>
<path d="M411 58.1591C410.144 58.1591 409.415 57.9261 408.812 57.4602C408.21 56.9905 407.75 56.3106 407.432 55.4205C407.114 54.5265 406.955 53.447 406.955 52.1818C406.955 50.9242 407.114 49.8504 407.432 48.9602C407.754 48.0663 408.216 47.3845 408.818 46.9148C409.424 46.4413 410.152 46.2045 411 46.2045C411.848 46.2045 412.574 46.4413 413.176 46.9148C413.782 47.3845 414.244 48.0663 414.562 48.9602C414.884 49.8504 415.045 50.9242 415.045 52.1818C415.045 53.447 414.886 54.5265 414.568 55.4205C414.25 56.3106 413.79 56.9905 413.188 57.4602C412.585 57.9261 411.856 58.1591 411 58.1591ZM411 56.9091C411.848 56.9091 412.508 56.5 412.977 55.6818C413.447 54.8636 413.682 53.697 413.682 52.1818C413.682 51.1742 413.574 50.3163 413.358 49.608C413.146 48.8996 412.839 48.3598 412.438 47.9886C412.04 47.6174 411.561 47.4318 411 47.4318C410.159 47.4318 409.502 47.8466 409.028 48.6761C408.555 49.5019 408.318 50.6705 408.318 52.1818C408.318 53.1894 408.424 54.0455 408.636 54.75C408.848 55.4545 409.153 55.9905 409.551 56.358C409.953 56.7254 410.436 56.9091 411 56.9091Z" fill="black"/>
<path d="M472 58.1591C471.144 58.1591 470.415 57.9261 469.812 57.4602C469.21 56.9905 468.75 56.3106 468.432 55.4205C468.114 54.5265 467.955 53.447 467.955 52.1818C467.955 50.9242 468.114 49.8504 468.432 48.9602C468.754 48.0663 469.216 47.3845 469.818 46.9148C470.424 46.4413 471.152 46.2045 472 46.2045C472.848 46.2045 473.574 46.4413 474.176 46.9148C474.782 47.3845 475.244 48.0663 475.562 48.9602C475.884 49.8504 476.045 50.9242 476.045 52.1818C476.045 53.447 475.886 54.5265 475.568 55.4205C475.25 56.3106 474.79 56.9905 474.188 57.4602C473.585 57.9261 472.856 58.1591 472 58.1591ZM472 56.9091C472.848 56.9091 473.508 56.5 473.977 55.6818C474.447 54.8636 474.682 53.697 474.682 52.1818C474.682 51.1742 474.574 50.3163 474.358 49.608C474.146 48.8996 473.839 48.3598 473.438 47.9886C473.04 47.6174 472.561 47.4318 472 47.4318C471.159 47.4318 470.502 47.8466 470.028 48.6761C469.555 49.5019 469.318 50.6705 469.318 52.1818C469.318 53.1894 469.424 54.0455 469.636 54.75C469.848 55.4545 470.153 55.9905 470.551 56.358C470.953 56.7254 471.436 56.9091 472 56.9091Z" fill="black"/>
<path d="M224.358 225.455L228.676 237.699H228.847L233.165 225.455H235.011L229.67 240H227.852L222.511 225.455H224.358ZM240.608 240.227C239.557 240.227 238.65 239.995 237.888 239.531C237.13 239.062 236.545 238.409 236.134 237.571C235.726 236.728 235.523 235.748 235.523 234.631C235.523 233.513 235.726 232.528 236.134 231.676C236.545 230.819 237.118 230.152 237.852 229.673C238.591 229.19 239.453 228.949 240.438 228.949C241.006 228.949 241.567 229.044 242.121 229.233C242.675 229.422 243.179 229.73 243.634 230.156C244.088 230.578 244.45 231.136 244.72 231.832C244.99 232.528 245.125 233.385 245.125 234.403V235.114H236.716V233.665H243.42C243.42 233.049 243.297 232.5 243.051 232.017C242.81 231.534 242.464 231.153 242.014 230.874C241.569 230.594 241.044 230.455 240.438 230.455C239.77 230.455 239.192 230.62 238.705 230.952C238.222 231.278 237.85 231.705 237.589 232.23C237.329 232.756 237.199 233.319 237.199 233.92V234.886C237.199 235.71 237.341 236.409 237.625 236.982C237.914 237.55 238.314 237.983 238.825 238.281C239.337 238.575 239.931 238.722 240.608 238.722C241.048 238.722 241.446 238.66 241.801 238.537C242.161 238.409 242.471 238.22 242.732 237.969C242.992 237.713 243.193 237.396 243.335 237.017L244.955 237.472C244.784 238.021 244.498 238.504 244.095 238.92C243.693 239.332 243.196 239.654 242.604 239.886C242.012 240.114 241.347 240.227 240.608 240.227ZM252.419 229.091V230.511H246.766V229.091H252.419ZM248.413 226.477H250.089V236.875C250.089 237.348 250.158 237.704 250.295 237.94C250.438 238.172 250.617 238.329 250.835 238.409C251.058 238.485 251.292 238.523 251.538 238.523C251.723 238.523 251.875 238.513 251.993 238.494C252.111 238.471 252.206 238.452 252.277 238.438L252.618 239.943C252.504 239.986 252.346 240.028 252.142 240.071C251.938 240.118 251.68 240.142 251.368 240.142C250.894 240.142 250.43 240.04 249.976 239.837C249.526 239.633 249.152 239.323 248.854 238.906C248.56 238.49 248.413 237.964 248.413 237.33V226.477ZM259.255 240.227C258.27 240.227 257.406 239.993 256.663 239.524C255.924 239.055 255.346 238.4 254.93 237.557C254.518 236.714 254.312 235.729 254.312 234.602C254.312 233.466 254.518 232.474 254.93 231.626C255.346 230.779 255.924 230.121 256.663 229.652C257.406 229.183 258.27 228.949 259.255 228.949C260.24 228.949 261.102 229.183 261.84 229.652C262.584 230.121 263.161 230.779 263.573 231.626C263.99 232.474 264.198 233.466 264.198 234.602C264.198 235.729 263.99 236.714 263.573 237.557C263.161 238.4 262.584 239.055 261.84 239.524C261.102 239.993 260.24 240.227 259.255 240.227ZM259.255 238.722C260.003 238.722 260.619 238.53 261.102 238.146C261.585 237.763 261.942 237.259 262.174 236.634C262.406 236.009 262.522 235.331 262.522 234.602C262.522 233.873 262.406 233.194 262.174 232.564C261.942 231.934 261.585 231.425 261.102 231.037C260.619 230.649 260.003 230.455 259.255 230.455C258.507 230.455 257.891 230.649 257.408 231.037C256.925 231.425 256.568 231.934 256.336 232.564C256.104 233.194 255.988 233.873 255.988 234.602C255.988 235.331 256.104 236.009 256.336 236.634C256.568 237.259 256.925 237.763 257.408 238.146C257.891 238.53 258.507 238.722 259.255 238.722ZM266.757 240V229.091H268.376V230.739H268.49C268.689 230.199 269.048 229.761 269.569 229.425C270.09 229.089 270.677 228.92 271.331 228.92C271.454 228.92 271.608 228.923 271.792 228.928C271.977 228.932 272.117 228.939 272.211 228.949V230.653C272.154 230.639 272.024 230.618 271.821 230.589C271.622 230.556 271.411 230.54 271.189 230.54C270.658 230.54 270.185 230.651 269.768 230.874C269.356 231.091 269.029 231.394 268.788 231.783C268.551 232.166 268.433 232.604 268.433 233.097V240H266.757ZM284.681 229.091V230.511H278.8V229.091H284.681ZM280.562 240V227.585C280.562 226.96 280.709 226.439 281.002 226.023C281.296 225.606 281.677 225.294 282.146 225.085C282.614 224.877 283.109 224.773 283.63 224.773C284.042 224.773 284.378 224.806 284.638 224.872C284.899 224.938 285.093 225 285.221 225.057L284.738 226.506C284.653 226.477 284.534 226.442 284.383 226.399C284.236 226.357 284.042 226.335 283.8 226.335C283.246 226.335 282.846 226.475 282.6 226.754C282.359 227.034 282.238 227.443 282.238 227.983V240H280.562ZM287.03 240V229.091H288.706V240H287.03ZM287.882 227.273C287.556 227.273 287.274 227.161 287.037 226.939C286.805 226.716 286.689 226.449 286.689 226.136C286.689 225.824 286.805 225.556 287.037 225.334C287.274 225.111 287.556 225 287.882 225C288.209 225 288.489 225.111 288.721 225.334C288.957 225.556 289.076 225.824 289.076 226.136C289.076 226.449 288.957 226.716 288.721 226.939C288.489 227.161 288.209 227.273 287.882 227.273ZM293.452 233.438V240H291.776V229.091H293.396V230.795H293.538C293.793 230.241 294.182 229.796 294.702 229.46C295.223 229.119 295.896 228.949 296.719 228.949C297.458 228.949 298.104 229.1 298.658 229.403C299.212 229.702 299.643 230.156 299.951 230.767C300.259 231.373 300.413 232.14 300.413 233.068V240H298.737V233.182C298.737 232.325 298.514 231.657 298.069 231.179C297.624 230.696 297.013 230.455 296.237 230.455C295.701 230.455 295.223 230.571 294.802 230.803C294.385 231.035 294.056 231.373 293.815 231.818C293.573 232.263 293.452 232.803 293.452 233.438ZM306.686 240.256C305.994 240.256 305.367 240.125 304.804 239.865C304.24 239.6 303.793 239.219 303.461 238.722C303.13 238.22 302.964 237.614 302.964 236.903C302.964 236.278 303.087 235.772 303.333 235.384C303.58 234.991 303.909 234.683 304.321 234.46C304.733 234.238 305.187 234.072 305.684 233.963C306.186 233.849 306.69 233.759 307.197 233.693C307.86 233.608 308.397 233.544 308.809 233.501C309.226 233.454 309.529 233.376 309.718 233.267C309.913 233.158 310.01 232.969 310.01 232.699V232.642C310.01 231.941 309.818 231.397 309.434 231.009C309.056 230.62 308.48 230.426 307.708 230.426C306.908 230.426 306.281 230.601 305.826 230.952C305.372 231.302 305.052 231.676 304.868 232.074L303.277 231.506C303.561 230.843 303.94 230.327 304.413 229.957C304.891 229.583 305.412 229.323 305.975 229.176C306.544 229.025 307.102 228.949 307.652 228.949C308.002 228.949 308.404 228.991 308.859 229.077C309.318 229.157 309.761 229.325 310.187 229.581C310.618 229.837 310.975 230.223 311.26 230.739C311.544 231.255 311.686 231.946 311.686 232.812V240H310.01V238.523H309.924C309.811 238.759 309.621 239.013 309.356 239.283C309.091 239.553 308.738 239.782 308.298 239.972C307.858 240.161 307.32 240.256 306.686 240.256ZM306.941 238.75C307.604 238.75 308.163 238.62 308.618 238.359C309.077 238.099 309.422 237.763 309.654 237.351C309.891 236.939 310.01 236.506 310.01 236.051V234.517C309.939 234.602 309.782 234.68 309.541 234.751C309.304 234.818 309.029 234.877 308.717 234.929C308.409 234.976 308.109 235.019 307.815 235.057C307.526 235.09 307.292 235.118 307.112 235.142C306.676 235.199 306.269 235.291 305.89 235.419C305.516 235.542 305.213 235.729 304.981 235.98C304.754 236.226 304.64 236.562 304.64 236.989C304.64 237.571 304.856 238.011 305.287 238.31C305.722 238.603 306.274 238.75 306.941 238.75ZM316.421 225.455V240H314.745V225.455H316.421ZM325.798 232.983V231.449H334.548V232.983H325.798ZM325.798 237.188V235.653H334.548V237.188H325.798ZM343.129 232.756V231.875C343.92 231.875 344.472 231.709 344.784 231.378C345.101 231.046 345.26 230.492 345.26 229.716V227.443C345.26 226.79 345.321 226.224 345.445 225.746C345.572 225.268 345.778 224.872 346.062 224.56C346.347 224.247 346.725 224.015 347.199 223.864C347.672 223.712 348.257 223.636 348.953 223.636V225.028C348.404 225.028 347.971 225.114 347.653 225.284C347.341 225.455 347.118 225.72 346.986 226.08C346.858 226.435 346.794 226.889 346.794 227.443V230.284C346.794 230.653 346.744 230.99 346.645 231.293C346.55 231.596 346.373 231.856 346.112 232.074C345.852 232.292 345.48 232.46 344.997 232.578C344.519 232.696 343.896 232.756 343.129 232.756ZM348.953 241.818C348.257 241.818 347.672 241.742 347.199 241.591C346.725 241.439 346.347 241.207 346.062 240.895C345.778 240.582 345.572 240.187 345.445 239.709C345.321 239.231 345.26 238.665 345.26 238.011V235.739C345.26 234.962 345.101 234.408 344.784 234.077C344.472 233.745 343.92 233.58 343.129 233.58V232.699C343.896 232.699 344.519 232.758 344.997 232.876C345.48 232.995 345.852 233.163 346.112 233.381C346.373 233.598 346.55 233.859 346.645 234.162C346.744 234.465 346.794 234.801 346.794 235.17V238.011C346.794 238.565 346.858 239.02 346.986 239.375C347.118 239.73 347.341 239.993 347.653 240.163C347.971 240.339 348.404 240.426 348.953 240.426V241.818ZM343.129 233.58V231.875H344.805V233.58H343.129ZM355.972 240.199C355.375 240.189 354.779 240.076 354.182 239.858C353.586 239.64 353.041 239.273 352.549 238.757C352.056 238.236 351.661 237.533 351.363 236.648C351.064 235.758 350.915 234.64 350.915 233.295C350.915 232.008 351.036 230.866 351.277 229.872C351.519 228.873 351.869 228.033 352.328 227.351C352.788 226.664 353.342 226.143 353.99 225.788C354.644 225.433 355.38 225.256 356.199 225.256C357.014 225.256 357.738 225.419 358.373 225.746C359.012 226.068 359.533 226.518 359.935 227.095C360.337 227.673 360.598 228.338 360.716 229.091H358.983C358.822 228.437 358.51 227.895 358.046 227.464C357.582 227.034 356.966 226.818 356.199 226.818C355.072 226.818 354.185 227.308 353.536 228.288C352.892 229.268 352.568 230.644 352.563 232.415H352.676C352.942 232.012 353.257 231.669 353.621 231.385C353.99 231.096 354.398 230.874 354.843 230.717C355.288 230.561 355.759 230.483 356.256 230.483C357.089 230.483 357.852 230.691 358.543 231.108C359.234 231.52 359.788 232.09 360.205 232.82C360.622 233.544 360.83 234.375 360.83 235.312C360.83 236.212 360.629 237.036 360.226 237.784C359.824 238.527 359.258 239.119 358.529 239.56C357.804 239.995 356.952 240.208 355.972 240.199ZM355.972 238.636C356.569 238.636 357.104 238.487 357.577 238.189C358.055 237.891 358.432 237.491 358.706 236.989C358.986 236.487 359.125 235.928 359.125 235.312C359.125 234.711 358.99 234.164 358.721 233.672C358.455 233.175 358.088 232.779 357.62 232.486C357.156 232.192 356.625 232.045 356.029 232.045C355.579 232.045 355.16 232.135 354.772 232.315C354.383 232.491 354.042 232.732 353.749 233.04C353.46 233.348 353.233 233.7 353.067 234.098C352.901 234.491 352.819 234.905 352.819 235.341C352.819 235.919 352.953 236.458 353.223 236.96C353.498 237.462 353.872 237.867 354.346 238.175C354.824 238.482 355.366 238.636 355.972 238.636ZM365.468 238.011L365.354 238.778C365.274 239.318 365.15 239.896 364.985 240.511C364.824 241.127 364.656 241.707 364.48 242.251C364.305 242.796 364.161 243.229 364.047 243.551H362.769C362.83 243.248 362.911 242.848 363.01 242.351C363.11 241.854 363.209 241.297 363.309 240.682C363.413 240.071 363.498 239.446 363.564 238.807L363.65 238.011H365.468ZM378.715 240.199C377.882 240.199 377.131 240.033 376.464 239.702C375.796 239.37 375.261 238.916 374.859 238.338C374.456 237.76 374.236 237.102 374.198 236.364H375.903C375.969 237.022 376.267 237.566 376.798 237.997C377.333 238.423 377.972 238.636 378.715 238.636C379.312 238.636 379.842 238.497 380.306 238.217C380.775 237.938 381.142 237.554 381.407 237.067C381.677 236.574 381.812 236.018 381.812 235.398C381.812 234.763 381.672 234.197 381.393 233.7C381.118 233.198 380.739 232.803 380.256 232.514C379.773 232.225 379.222 232.079 378.602 232.074C378.156 232.069 377.7 232.138 377.231 232.28C376.762 232.417 376.376 232.595 376.073 232.812L374.425 232.614L375.306 225.455H382.863V227.017H376.783L376.272 231.307H376.357C376.656 231.07 377.03 230.874 377.479 230.717C377.929 230.561 378.398 230.483 378.886 230.483C379.776 230.483 380.569 230.696 381.265 231.122C381.966 231.544 382.515 232.121 382.913 232.855C383.315 233.589 383.516 234.427 383.516 235.369C383.516 236.297 383.308 237.126 382.891 237.855C382.479 238.58 381.911 239.152 381.187 239.574C380.462 239.991 379.638 240.199 378.715 240.199ZM388.319 238.011L388.206 238.778C388.125 239.318 388.002 239.896 387.836 240.511C387.675 241.127 387.507 241.707 387.332 242.251C387.157 242.796 387.012 243.229 386.899 243.551H385.62C385.682 243.248 385.762 242.848 385.862 242.351C385.961 241.854 386.061 241.297 386.16 240.682C386.264 240.071 386.35 239.446 386.416 238.807L386.501 238.011H388.319ZM414.853 233.835V234.716C414.063 234.716 413.509 234.882 413.191 235.213C412.879 235.545 412.723 236.098 412.723 236.875V239.148C412.723 239.801 412.659 240.367 412.531 240.845C412.408 241.323 412.204 241.719 411.92 242.031C411.636 242.344 411.257 242.576 410.784 242.727C410.31 242.879 409.725 242.955 409.029 242.955V241.562C409.579 241.562 410.01 241.475 410.322 241.3C410.639 241.129 410.862 240.866 410.99 240.511C411.122 240.156 411.189 239.702 411.189 239.148V236.307C411.189 235.937 411.236 235.601 411.331 235.298C411.43 234.995 411.61 234.735 411.87 234.517C412.131 234.299 412.5 234.131 412.978 234.013C413.461 233.894 414.086 233.835 414.853 233.835ZM409.029 224.773C409.725 224.773 410.31 224.848 410.784 225C411.257 225.152 411.636 225.384 411.92 225.696C412.204 226.009 412.408 226.404 412.531 226.882C412.659 227.36 412.723 227.926 412.723 228.58V230.852C412.723 231.629 412.879 232.183 413.191 232.514C413.509 232.846 414.063 233.011 414.853 233.011V233.892C414.086 233.892 413.461 233.833 412.978 233.714C412.5 233.596 412.131 233.428 411.87 233.21C411.61 232.992 411.43 232.732 411.331 232.429C411.236 232.126 411.189 231.79 411.189 231.42V228.58C411.189 228.026 411.122 227.571 410.99 227.216C410.862 226.856 410.639 226.591 410.322 226.42C410.01 226.25 409.579 226.165 409.029 226.165V224.773ZM414.853 233.011V234.716H413.177V233.011H414.853Z" fill="black"/>
<path d="M396.68 237.017V235.568L403.072 225.455H404.124V227.699H403.413L398.584 235.341V235.455H407.192V237.017H396.68ZM403.527 240V236.577V235.902V225.455H405.203V240H403.527Z" fill="#00A538"/>
<path d="M165.227 106.557V107.807H160.136V106.557H165.227ZM171.655 101.364V113H170.246V102.841H170.178L167.337 104.727V103.295L170.246 101.364H171.655Z" fill="#DC0000"/>
<path d="M226.227 106.557V107.807H221.136V106.557H226.227ZM232.655 101.364V113H231.246V102.841H231.178L228.337 104.727V103.295L231.246 101.364H232.655Z" fill="#DC0000"/>
<path d="M287.227 106.557V107.807H282.136V106.557H287.227ZM293.655 101.364V113H292.246V102.841H292.178L289.337 104.727V103.295L292.246 101.364H293.655Z" fill="#DC0000"/>
<path d="M348.227 106.557V107.807H343.136V106.557H348.227ZM354.655 101.364V113H353.246V102.841H353.178L350.337 104.727V103.295L353.246 101.364H354.655Z" fill="#DC0000"/>
<path d="M408.227 106.557V107.807H403.136V106.557H408.227ZM414.655 101.364V113H413.246V102.841H413.178L410.337 104.727V103.295L413.246 101.364H414.655Z" fill="#DC0000"/>
<path d="M469.227 106.557V107.807H464.136V106.557H469.227ZM475.655 101.364V113H474.246V102.841H474.178L471.337 104.727V103.295L474.246 101.364H475.655Z" fill="#DC0000"/>
<line x1="136.5" y1="22" x2="136.5" y2="84" stroke="black"/>
<line x1="501.5" y1="21" x2="501.5" y2="83" stroke="black"/>
<path d="M164.205 169V167.977L168.045 163.773C168.496 163.28 168.867 162.852 169.159 162.489C169.451 162.121 169.667 161.777 169.807 161.455C169.951 161.129 170.023 160.788 170.023 160.432C170.023 160.023 169.924 159.669 169.727 159.369C169.534 159.07 169.269 158.839 168.932 158.676C168.595 158.513 168.216 158.432 167.795 158.432C167.348 158.432 166.958 158.525 166.625 158.71C166.295 158.892 166.04 159.148 165.858 159.477C165.68 159.807 165.591 160.193 165.591 160.636H164.25C164.25 159.955 164.407 159.356 164.722 158.841C165.036 158.326 165.464 157.924 166.006 157.636C166.551 157.348 167.163 157.205 167.841 157.205C168.523 157.205 169.127 157.348 169.653 157.636C170.18 157.924 170.593 158.312 170.892 158.801C171.191 159.29 171.341 159.833 171.341 160.432C171.341 160.86 171.263 161.278 171.108 161.688C170.956 162.093 170.691 162.545 170.312 163.045C169.938 163.542 169.417 164.148 168.75 164.864L166.136 167.659V167.75H171.545V169H164.205Z" fill="#00A538"/>
<line x1="136" y1="194.5" x2="502" y2="194.5" stroke="black"/>
<line x1="136" y1="132.5" x2="502" y2="132.5" stroke="black"/>
<path d="M225.205 169V167.977L229.045 163.773C229.496 163.28 229.867 162.852 230.159 162.489C230.451 162.121 230.667 161.777 230.807 161.455C230.951 161.129 231.023 160.788 231.023 160.432C231.023 160.023 230.924 159.669 230.727 159.369C230.534 159.07 230.269 158.839 229.932 158.676C229.595 158.513 229.216 158.432 228.795 158.432C228.348 158.432 227.958 158.525 227.625 158.71C227.295 158.892 227.04 159.148 226.858 159.477C226.68 159.807 226.591 160.193 226.591 160.636H225.25C225.25 159.955 225.407 159.356 225.722 158.841C226.036 158.326 226.464 157.924 227.006 157.636C227.551 157.348 228.163 157.205 228.841 157.205C229.523 157.205 230.127 157.348 230.653 157.636C231.18 157.924 231.593 158.312 231.892 158.801C232.191 159.29 232.341 159.833 232.341 160.432C232.341 160.86 232.263 161.278 232.108 161.688C231.956 162.093 231.691 162.545 231.312 163.045C230.938 163.542 230.417 164.148 229.75 164.864L227.136 167.659V167.75H232.545V169H225.205Z" fill="#00A538"/>
<path d="M290.295 157.364V169H288.886V158.841H288.818L285.977 160.727V159.295L288.886 157.364H290.295Z" fill="#00A538"/>
<path d="M351 169.159C350.144 169.159 349.415 168.926 348.812 168.46C348.21 167.991 347.75 167.311 347.432 166.42C347.114 165.527 346.955 164.447 346.955 163.182C346.955 161.924 347.114 160.85 347.432 159.96C347.754 159.066 348.216 158.384 348.818 157.915C349.424 157.441 350.152 157.205 351 157.205C351.848 157.205 352.574 157.441 353.176 157.915C353.782 158.384 354.244 159.066 354.562 159.96C354.884 160.85 355.045 161.924 355.045 163.182C355.045 164.447 354.886 165.527 354.568 166.42C354.25 167.311 353.79 167.991 353.188 168.46C352.585 168.926 351.856 169.159 351 169.159ZM351 167.909C351.848 167.909 352.508 167.5 352.977 166.682C353.447 165.864 353.682 164.697 353.682 163.182C353.682 162.174 353.574 161.316 353.358 160.608C353.146 159.9 352.839 159.36 352.438 158.989C352.04 158.617 351.561 158.432 351 158.432C350.159 158.432 349.502 158.847 349.028 159.676C348.555 160.502 348.318 161.67 348.318 163.182C348.318 164.189 348.424 165.045 348.636 165.75C348.848 166.455 349.153 166.991 349.551 167.358C349.953 167.725 350.436 167.909 351 167.909Z" fill="#00A538"/>
<path d="M411 169.159C410.144 169.159 409.415 168.926 408.812 168.46C408.21 167.991 407.75 167.311 407.432 166.42C407.114 165.527 406.955 164.447 406.955 163.182C406.955 161.924 407.114 160.85 407.432 159.96C407.754 159.066 408.216 158.384 408.818 157.915C409.424 157.441 410.152 157.205 411 157.205C411.848 157.205 412.574 157.441 413.176 157.915C413.782 158.384 414.244 159.066 414.562 159.96C414.884 160.85 415.045 161.924 415.045 163.182C415.045 164.447 414.886 165.527 414.568 166.42C414.25 167.311 413.79 167.991 413.188 168.46C412.585 168.926 411.856 169.159 411 169.159ZM411 167.909C411.848 167.909 412.508 167.5 412.977 166.682C413.447 165.864 413.682 164.697 413.682 163.182C413.682 162.174 413.574 161.316 413.358 160.608C413.146 159.9 412.839 159.36 412.438 158.989C412.04 158.617 411.561 158.432 411 158.432C410.159 158.432 409.502 158.847 409.028 159.676C408.555 160.502 408.318 161.67 408.318 163.182C408.318 164.189 408.424 165.045 408.636 165.75C408.848 166.455 409.153 166.991 409.551 167.358C409.953 167.725 410.436 167.909 411 167.909Z" fill="#DC0000"/>
<path d="M472 169.159C471.144 169.159 470.415 168.926 469.812 168.46C469.21 167.991 468.75 167.311 468.432 166.42C468.114 165.527 467.955 164.447 467.955 163.182C467.955 161.924 468.114 160.85 468.432 159.96C468.754 159.066 469.216 158.384 469.818 157.915C470.424 157.441 471.152 157.205 472 157.205C472.848 157.205 473.574 157.441 474.176 157.915C474.782 158.384 475.244 159.066 475.562 159.96C475.884 160.85 476.045 161.924 476.045 163.182C476.045 164.447 475.886 165.527 475.568 166.42C475.25 167.311 474.79 167.991 474.188 168.46C473.585 168.926 472.856 169.159 472 169.159ZM472 167.909C472.848 167.909 473.508 167.5 473.977 166.682C474.447 165.864 474.682 164.697 474.682 163.182C474.682 162.174 474.574 161.316 474.358 160.608C474.146 159.9 473.839 159.36 473.438 158.989C473.04 158.617 472.561 158.432 472 158.432C471.159 158.432 470.502 158.847 470.028 159.676C469.555 160.502 469.318 161.67 469.318 163.182C469.318 164.189 469.424 165.045 469.636 165.75C469.848 166.455 470.153 166.991 470.551 167.358C470.953 167.725 471.436 167.909 472 167.909Z" fill="#DC0000"/>
<line x1="136.5" y1="133" x2="136.5" y2="195" stroke="black"/>
<line x1="501.5" y1="132" x2="501.5" y2="194" stroke="black"/>
</svg>
