<svg width="638" height="266" viewBox="0 0 638 266" fill="none" xmlns="http://www.w3.org/2000/svg">
<rect width="638" height="266" fill="#F5F5F5"/>
<path d="M164.205 58V56.9773L168.045 52.7727C168.496 52.2803 168.867 51.8523 169.159 51.4886C169.451 51.1212 169.667 50.7765 169.807 50.4545C169.951 50.1288 170.023 49.7879 170.023 49.4318C170.023 49.0227 169.924 48.6686 169.727 48.3693C169.534 48.0701 169.269 47.839 168.932 47.6761C168.595 47.5133 168.216 47.4318 167.795 47.4318C167.348 47.4318 166.958 47.5246 166.625 47.7102C166.295 47.892 166.04 48.1477 165.858 48.4773C165.68 48.8068 165.591 49.1932 165.591 49.6364H164.25C164.25 48.9545 164.407 48.3561 164.722 47.8409C165.036 47.3258 165.464 46.9242 166.006 46.6364C166.551 46.3485 167.163 46.2045 167.841 46.2045C168.523 46.2045 169.127 46.3485 169.653 46.6364C170.18 46.9242 170.593 47.3125 170.892 47.8011C171.191 48.2898 171.341 48.8333 171.341 49.4318C171.341 49.8598 171.263 50.2784 171.108 50.6875C170.956 51.0928 170.691 51.5455 170.312 52.0455C169.938 52.5417 169.417 53.1477 168.75 53.8636L166.136 56.6591V56.75H171.545V58H164.205Z" fill="black"/>
<line x1="136" y1="83.5" x2="502" y2="83.5" stroke="black"/>
<line x1="136" y1="21.5" x2="502" y2="21.5" stroke="black"/>
<path d="M225.205 58V56.9773L229.045 52.7727C229.496 52.2803 229.867 51.8523 230.159 51.4886C230.451 51.1212 230.667 50.7765 230.807 50.4545C230.951 50.1288 231.023 49.7879 231.023 49.4318C231.023 49.0227 230.924 48.6686 230.727 48.3693C230.534 48.0701 230.269 47.839 229.932 47.6761C229.595 47.5133 229.216 47.4318 228.795 47.4318C228.348 47.4318 227.958 47.5246 227.625 47.7102C227.295 47.892 227.04 48.1477 226.858 48.4773C226.68 48.8068 226.591 49.1932 226.591 49.6364H225.25C225.25 48.9545 225.407 48.3561 225.722 47.8409C226.036 47.3258 226.464 46.9242 227.006 46.6364C227.551 46.3485 228.163 46.2045 228.841 46.2045C229.523 46.2045 230.127 46.3485 230.653 46.6364C231.18 46.9242 231.593 47.3125 231.892 47.8011C232.191 48.2898 232.341 48.8333 232.341 49.4318C232.341 49.8598 232.263 50.2784 232.108 50.6875C231.956 51.0928 231.691 51.5455 231.312 52.0455C230.938 52.5417 230.417 53.1477 229.75 53.8636L227.136 56.6591V56.75H232.545V58H225.205Z" fill="black"/>
<path d="M290.295 46.3636V58H288.886V47.8409H288.818L285.977 49.7273V48.2955L288.886 46.3636H290.295Z" fill="black"/>
<path d="M351 58.1591C350.144 58.1591 349.415 57.9261 348.812 57.4602C348.21 56.9905 347.75 56.3106 347.432 55.4205C347.114 54.5265 346.955 53.447 346.955 52.1818C346.955 50.9242 347.114 49.8504 347.432 48.9602C347.754 48.0663 348.216 47.3845 348.818 46.9148C349.424 46.4413 350.152 46.2045 351 46.2045C351.848 46.2045 352.574 46.4413 353.176 46.9148C353.782 47.3845 354.244 48.0663 354.562 48.9602C354.884 49.8504 355.045 50.9242 355.045 52.1818C355.045 53.447 354.886 54.5265 354.568 55.4205C354.25 56.3106 353.79 56.9905 353.188 57.4602C352.585 57.9261 351.856 58.1591 351 58.1591ZM351 56.9091C351.848 56.9091 352.508 56.5 352.977 55.6818C353.447 54.8636 353.682 53.697 353.682 52.1818C353.682 51.1742 353.574 50.3163 353.358 49.608C353.146 48.8996 352.839 48.3598 352.438 47.9886C352.04 47.6174 351.561 47.4318 351 47.4318C350.159 47.4318 349.502 47.8466 349.028 48.6761C348.555 49.5019 348.318 50.6705 348.318 52.1818C348.318 53.1894 348.424 54.0455 348.636 54.75C348.848 55.4545 349.153 55.9905 349.551 56.358C349.953 56.7254 350.436 56.9091 351 56.9091Z" fill="black"/>
<path d="M411 58.1591C410.144 58.1591 409.415 57.9261 408.812 57.4602C408.21 56.9905 407.75 56.3106 407.432 55.4205C407.114 54.5265 406.955 53.447 406.955 52.1818C406.955 50.9242 407.114 49.8504 407.432 48.9602C407.754 48.0663 408.216 47.3845 408.818 46.9148C409.424 46.4413 410.152 46.2045 411 46.2045C411.848 46.2045 412.574 46.4413 413.176 46.9148C413.782 47.3845 414.244 48.0663 414.562 48.9602C414.884 49.8504 415.045 50.9242 415.045 52.1818C415.045 53.447 414.886 54.5265 414.568 55.4205C414.25 56.3106 413.79 56.9905 413.188 57.4602C412.585 57.9261 411.856 58.1591 411 58.1591ZM411 56.9091C411.848 56.9091 412.508 56.5 412.977 55.6818C413.447 54.8636 413.682 53.697 413.682 52.1818C413.682 51.1742 413.574 50.3163 413.358 49.608C413.146 48.8996 412.839 48.3598 412.438 47.9886C412.04 47.6174 411.561 47.4318 411 47.4318C410.159 47.4318 409.502 47.8466 409.028 48.6761C408.555 49.5019 408.318 50.6705 408.318 52.1818C408.318 53.1894 408.424 54.0455 408.636 54.75C408.848 55.4545 409.153 55.9905 409.551 56.358C409.953 56.7254 410.436 56.9091 411 56.9091Z" fill="black"/>
<path d="M472 58.1591C471.144 58.1591 470.415 57.9261 469.812 57.4602C469.21 56.9905 468.75 56.3106 468.432 55.4205C468.114 54.5265 467.955 53.447 467.955 52.1818C467.955 50.9242 468.114 49.8504 468.432 48.9602C468.754 48.0663 469.216 47.3845 469.818 46.9148C470.424 46.4413 471.152 46.2045 472 46.2045C472.848 46.2045 473.574 46.4413 474.176 46.9148C474.782 47.3845 475.244 48.0663 475.562 48.9602C475.884 49.8504 476.045 50.9242 476.045 52.1818C476.045 53.447 475.886 54.5265 475.568 55.4205C475.25 56.3106 474.79 56.9905 474.188 57.4602C473.585 57.9261 472.856 58.1591 472 58.1591ZM472 56.9091C472.848 56.9091 473.508 56.5 473.977 55.6818C474.447 54.8636 474.682 53.697 474.682 52.1818C474.682 51.1742 474.574 50.3163 474.358 49.608C474.146 48.8996 473.839 48.3598 473.438 47.9886C473.04 47.6174 472.561 47.4318 472 47.4318C471.159 47.4318 470.502 47.8466 470.028 48.6761C469.555 49.5019 469.318 50.6705 469.318 52.1818C469.318 53.1894 469.424 54.0455 469.636 54.75C469.848 55.4545 470.153 55.9905 470.551 56.358C470.953 56.7254 471.436 56.9091 472 56.9091Z" fill="black"/>
<path d="M212.358 225.455L216.676 237.699H216.847L221.165 225.455H223.011L217.67 240H215.852L210.511 225.455H212.358ZM228.608 240.227C227.557 240.227 226.65 239.995 225.888 239.531C225.13 239.062 224.545 238.409 224.134 237.571C223.726 236.728 223.523 235.748 223.523 234.631C223.523 233.513 223.726 232.528 224.134 231.676C224.545 230.819 225.118 230.152 225.852 229.673C226.591 229.19 227.453 228.949 228.438 228.949C229.006 228.949 229.567 229.044 230.121 229.233C230.675 229.422 231.179 229.73 231.634 230.156C232.088 230.578 232.45 231.136 232.72 231.832C232.99 232.528 233.125 233.385 233.125 234.403V235.114H224.716V233.665H231.42C231.42 233.049 231.297 232.5 231.051 232.017C230.81 231.534 230.464 231.153 230.014 230.874C229.569 230.594 229.044 230.455 228.438 230.455C227.77 230.455 227.192 230.62 226.705 230.952C226.222 231.278 225.85 231.705 225.589 232.23C225.329 232.756 225.199 233.319 225.199 233.92V234.886C225.199 235.71 225.341 236.409 225.625 236.982C225.914 237.55 226.314 237.983 226.825 238.281C227.337 238.575 227.931 238.722 228.608 238.722C229.048 238.722 229.446 238.66 229.801 238.537C230.161 238.409 230.471 238.22 230.732 237.969C230.992 237.713 231.193 237.396 231.335 237.017L232.955 237.472C232.784 238.021 232.498 238.504 232.095 238.92C231.693 239.332 231.196 239.654 230.604 239.886C230.012 240.114 229.347 240.227 228.608 240.227ZM240.419 229.091V230.511H234.766V229.091H240.419ZM236.413 226.477H238.089V236.875C238.089 237.348 238.158 237.704 238.295 237.94C238.438 238.172 238.617 238.329 238.835 238.409C239.058 238.485 239.292 238.523 239.538 238.523C239.723 238.523 239.875 238.513 239.993 238.494C240.111 238.471 240.206 238.452 240.277 238.438L240.618 239.943C240.504 239.986 240.346 240.028 240.142 240.071C239.938 240.118 239.68 240.142 239.368 240.142C238.894 240.142 238.43 240.04 237.976 239.837C237.526 239.633 237.152 239.323 236.854 238.906C236.56 238.49 236.413 237.964 236.413 237.33V226.477ZM247.255 240.227C246.27 240.227 245.406 239.993 244.663 239.524C243.924 239.055 243.346 238.4 242.93 237.557C242.518 236.714 242.312 235.729 242.312 234.602C242.312 233.466 242.518 232.474 242.93 231.626C243.346 230.779 243.924 230.121 244.663 229.652C245.406 229.183 246.27 228.949 247.255 228.949C248.24 228.949 249.102 229.183 249.84 229.652C250.584 230.121 251.161 230.779 251.573 231.626C251.99 232.474 252.198 233.466 252.198 234.602C252.198 235.729 251.99 236.714 251.573 237.557C251.161 238.4 250.584 239.055 249.84 239.524C249.102 239.993 248.24 240.227 247.255 240.227ZM247.255 238.722C248.003 238.722 248.619 238.53 249.102 238.146C249.585 237.763 249.942 237.259 250.174 236.634C250.406 236.009 250.522 235.331 250.522 234.602C250.522 233.873 250.406 233.194 250.174 232.564C249.942 231.934 249.585 231.425 249.102 231.037C248.619 230.649 248.003 230.455 247.255 230.455C246.507 230.455 245.891 230.649 245.408 231.037C244.925 231.425 244.568 231.934 244.336 232.564C244.104 233.194 243.988 233.873 243.988 234.602C243.988 235.331 244.104 236.009 244.336 236.634C244.568 237.259 244.925 237.763 245.408 238.146C245.891 238.53 246.507 238.722 247.255 238.722ZM254.757 240V229.091H256.376V230.739H256.49C256.689 230.199 257.048 229.761 257.569 229.425C258.09 229.089 258.677 228.92 259.331 228.92C259.454 228.92 259.608 228.923 259.792 228.928C259.977 228.932 260.117 228.939 260.211 228.949V230.653C260.154 230.639 260.024 230.618 259.821 230.589C259.622 230.556 259.411 230.54 259.189 230.54C258.658 230.54 258.185 230.651 257.768 230.874C257.356 231.091 257.029 231.394 256.788 231.783C256.551 232.166 256.433 232.604 256.433 233.097V240H254.757ZM272.681 229.091V230.511H266.8V229.091H272.681ZM268.562 240V227.585C268.562 226.96 268.709 226.439 269.002 226.023C269.296 225.606 269.677 225.294 270.146 225.085C270.614 224.877 271.109 224.773 271.63 224.773C272.042 224.773 272.378 224.806 272.638 224.872C272.899 224.938 273.093 225 273.221 225.057L272.738 226.506C272.653 226.477 272.534 226.442 272.383 226.399C272.236 226.357 272.042 226.335 271.8 226.335C271.246 226.335 270.846 226.475 270.6 226.754C270.359 227.034 270.238 227.443 270.238 227.983V240H268.562ZM275.03 240V229.091H276.706V240H275.03ZM275.882 227.273C275.556 227.273 275.274 227.161 275.037 226.939C274.805 226.716 274.689 226.449 274.689 226.136C274.689 225.824 274.805 225.556 275.037 225.334C275.274 225.111 275.556 225 275.882 225C276.209 225 276.489 225.111 276.721 225.334C276.957 225.556 277.076 225.824 277.076 226.136C277.076 226.449 276.957 226.716 276.721 226.939C276.489 227.161 276.209 227.273 275.882 227.273ZM281.452 233.438V240H279.776V229.091H281.396V230.795H281.538C281.793 230.241 282.182 229.796 282.702 229.46C283.223 229.119 283.896 228.949 284.719 228.949C285.458 228.949 286.104 229.1 286.658 229.403C287.212 229.702 287.643 230.156 287.951 230.767C288.259 231.373 288.413 232.14 288.413 233.068V240H286.737V233.182C286.737 232.325 286.514 231.657 286.069 231.179C285.624 230.696 285.013 230.455 284.237 230.455C283.701 230.455 283.223 230.571 282.802 230.803C282.385 231.035 282.056 231.373 281.815 231.818C281.573 232.263 281.452 232.803 281.452 233.438ZM294.686 240.256C293.994 240.256 293.367 240.125 292.804 239.865C292.24 239.6 291.793 239.219 291.461 238.722C291.13 238.22 290.964 237.614 290.964 236.903C290.964 236.278 291.087 235.772 291.333 235.384C291.58 234.991 291.909 234.683 292.321 234.46C292.733 234.238 293.187 234.072 293.684 233.963C294.186 233.849 294.69 233.759 295.197 233.693C295.86 233.608 296.397 233.544 296.809 233.501C297.226 233.454 297.529 233.376 297.718 233.267C297.913 233.158 298.01 232.969 298.01 232.699V232.642C298.01 231.941 297.818 231.397 297.434 231.009C297.056 230.62 296.48 230.426 295.708 230.426C294.908 230.426 294.281 230.601 293.826 230.952C293.372 231.302 293.052 231.676 292.868 232.074L291.277 231.506C291.561 230.843 291.94 230.327 292.413 229.957C292.891 229.583 293.412 229.323 293.975 229.176C294.544 229.025 295.102 228.949 295.652 228.949C296.002 228.949 296.404 228.991 296.859 229.077C297.318 229.157 297.761 229.325 298.187 229.581C298.618 229.837 298.975 230.223 299.26 230.739C299.544 231.255 299.686 231.946 299.686 232.812V240H298.01V238.523H297.924C297.811 238.759 297.621 239.013 297.356 239.283C297.091 239.553 296.738 239.782 296.298 239.972C295.858 240.161 295.32 240.256 294.686 240.256ZM294.941 238.75C295.604 238.75 296.163 238.62 296.618 238.359C297.077 238.099 297.422 237.763 297.654 237.351C297.891 236.939 298.01 236.506 298.01 236.051V234.517C297.939 234.602 297.782 234.68 297.541 234.751C297.304 234.818 297.029 234.877 296.717 234.929C296.409 234.976 296.109 235.019 295.815 235.057C295.526 235.09 295.292 235.118 295.112 235.142C294.676 235.199 294.269 235.291 293.89 235.419C293.516 235.542 293.213 235.729 292.981 235.98C292.754 236.226 292.64 236.562 292.64 236.989C292.64 237.571 292.856 238.011 293.287 238.31C293.722 238.603 294.274 238.75 294.941 238.75ZM304.421 225.455V240H302.745V225.455H304.421ZM313.798 232.983V231.449H322.548V232.983H313.798ZM313.798 237.188V235.653H322.548V237.188H313.798ZM331.129 232.756V231.875C331.92 231.875 332.472 231.709 332.784 231.378C333.101 231.046 333.26 230.492 333.26 229.716V227.443C333.26 226.79 333.321 226.224 333.445 225.746C333.572 225.268 333.778 224.872 334.062 224.56C334.347 224.247 334.725 224.015 335.199 223.864C335.672 223.712 336.257 223.636 336.953 223.636V225.028C336.404 225.028 335.971 225.114 335.653 225.284C335.341 225.455 335.118 225.72 334.986 226.08C334.858 226.435 334.794 226.889 334.794 227.443V230.284C334.794 230.653 334.744 230.99 334.645 231.293C334.55 231.596 334.373 231.856 334.112 232.074C333.852 232.292 333.48 232.46 332.997 232.578C332.519 232.696 331.896 232.756 331.129 232.756ZM336.953 241.818C336.257 241.818 335.672 241.742 335.199 241.591C334.725 241.439 334.347 241.207 334.062 240.895C333.778 240.582 333.572 240.187 333.445 239.709C333.321 239.231 333.26 238.665 333.26 238.011V235.739C333.26 234.962 333.101 234.408 332.784 234.077C332.472 233.745 331.92 233.58 331.129 233.58V232.699C331.896 232.699 332.519 232.758 332.997 232.876C333.48 232.995 333.852 233.163 334.112 233.381C334.373 233.598 334.55 233.859 334.645 234.162C334.744 234.465 334.794 234.801 334.794 235.17V238.011C334.794 238.565 334.858 239.02 334.986 239.375C335.118 239.73 335.341 239.993 335.653 240.163C335.971 240.339 336.404 240.426 336.953 240.426V241.818ZM331.129 233.58V231.875H332.805V233.58H331.129ZM343.972 240.199C343.375 240.189 342.779 240.076 342.182 239.858C341.586 239.64 341.041 239.273 340.549 238.757C340.056 238.236 339.661 237.533 339.363 236.648C339.064 235.758 338.915 234.64 338.915 233.295C338.915 232.008 339.036 230.866 339.277 229.872C339.519 228.873 339.869 228.033 340.328 227.351C340.788 226.664 341.342 226.143 341.99 225.788C342.644 225.433 343.38 225.256 344.199 225.256C345.014 225.256 345.738 225.419 346.373 225.746C347.012 226.068 347.533 226.518 347.935 227.095C348.337 227.673 348.598 228.338 348.716 229.091H346.983C346.822 228.437 346.51 227.895 346.046 227.464C345.582 227.034 344.966 226.818 344.199 226.818C343.072 226.818 342.185 227.308 341.536 228.288C340.892 229.268 340.568 230.644 340.563 232.415H340.676C340.942 232.012 341.257 231.669 341.621 231.385C341.99 231.096 342.398 230.874 342.843 230.717C343.288 230.561 343.759 230.483 344.256 230.483C345.089 230.483 345.852 230.691 346.543 231.108C347.234 231.52 347.788 232.09 348.205 232.82C348.622 233.544 348.83 234.375 348.83 235.312C348.83 236.212 348.629 237.036 348.226 237.784C347.824 238.527 347.258 239.119 346.529 239.56C345.804 239.995 344.952 240.208 343.972 240.199ZM343.972 238.636C344.569 238.636 345.104 238.487 345.577 238.189C346.055 237.891 346.432 237.491 346.706 236.989C346.986 236.487 347.125 235.928 347.125 235.312C347.125 234.711 346.99 234.164 346.721 233.672C346.455 233.175 346.088 232.779 345.62 232.486C345.156 232.192 344.625 232.045 344.029 232.045C343.579 232.045 343.16 232.135 342.772 232.315C342.383 232.491 342.042 232.732 341.749 233.04C341.46 233.348 341.233 233.7 341.067 234.098C340.901 234.491 340.819 234.905 340.819 235.341C340.819 235.919 340.953 236.458 341.223 236.96C341.498 237.462 341.872 237.867 342.346 238.175C342.824 238.482 343.366 238.636 343.972 238.636ZM353.468 238.011L353.354 238.778C353.274 239.318 353.15 239.896 352.985 240.511C352.824 241.127 352.656 241.707 352.48 242.251C352.305 242.796 352.161 243.229 352.047 243.551H350.769C350.83 243.248 350.911 242.848 351.01 242.351C351.11 241.854 351.209 241.297 351.309 240.682C351.413 240.071 351.498 239.446 351.564 238.807L351.65 238.011H353.468ZM366.715 240.199C365.882 240.199 365.131 240.033 364.464 239.702C363.796 239.37 363.261 238.916 362.859 238.338C362.456 237.76 362.236 237.102 362.198 236.364H363.903C363.969 237.022 364.267 237.566 364.798 237.997C365.333 238.423 365.972 238.636 366.715 238.636C367.312 238.636 367.842 238.497 368.306 238.217C368.775 237.938 369.142 237.554 369.407 237.067C369.677 236.574 369.812 236.018 369.812 235.398C369.812 234.763 369.672 234.197 369.393 233.7C369.118 233.198 368.739 232.803 368.256 232.514C367.773 232.225 367.222 232.079 366.602 232.074C366.156 232.069 365.7 232.138 365.231 232.28C364.762 232.417 364.376 232.595 364.073 232.812L362.425 232.614L363.306 225.455H370.863V227.017H364.783L364.272 231.307H364.357C364.656 231.07 365.03 230.874 365.479 230.717C365.929 230.561 366.398 230.483 366.886 230.483C367.776 230.483 368.569 230.696 369.265 231.122C369.966 231.544 370.515 232.121 370.913 232.855C371.315 233.589 371.516 234.427 371.516 235.369C371.516 236.297 371.308 237.126 370.891 237.855C370.479 238.58 369.911 239.152 369.187 239.574C368.462 239.991 367.638 240.199 366.715 240.199ZM376.319 238.011L376.206 238.778C376.125 239.318 376.002 239.896 375.836 240.511C375.675 241.127 375.507 241.707 375.332 242.251C375.157 242.796 375.012 243.229 374.899 243.551H373.62C373.682 243.248 373.762 242.848 373.862 242.351C373.961 241.854 374.061 241.297 374.16 240.682C374.264 240.071 374.35 239.446 374.416 238.807L374.501 238.011H376.319ZM384.68 237.017V235.568L391.072 225.455H392.124V227.699H391.413L386.584 235.341V235.455H395.192V237.017H384.68ZM391.527 240V236.577V235.902V225.455H393.203V240H391.527ZM402.853 232.699V233.58C402.063 233.58 401.509 233.745 401.191 234.077C400.879 234.408 400.723 234.962 400.723 235.739V238.011C400.723 238.665 400.659 239.231 400.531 239.709C400.408 240.187 400.204 240.582 399.92 240.895C399.636 241.207 399.257 241.439 398.784 241.591C398.31 241.742 397.725 241.818 397.029 241.818V240.426C397.579 240.426 398.01 240.339 398.322 240.163C398.639 239.993 398.862 239.73 398.99 239.375C399.122 239.02 399.189 238.565 399.189 238.011V235.17C399.189 234.801 399.236 234.465 399.331 234.162C399.43 233.859 399.61 233.598 399.87 233.381C400.131 233.163 400.5 232.995 400.978 232.876C401.461 232.758 402.086 232.699 402.853 232.699ZM397.029 223.636C397.725 223.636 398.31 223.712 398.784 223.864C399.257 224.015 399.636 224.247 399.92 224.56C400.204 224.872 400.408 225.268 400.531 225.746C400.659 226.224 400.723 226.79 400.723 227.443V229.716C400.723 230.492 400.879 231.046 401.191 231.378C401.509 231.709 402.063 231.875 402.853 231.875V232.756C402.086 232.756 401.461 232.696 400.978 232.578C400.5 232.46 400.131 232.292 399.87 232.074C399.61 231.856 399.43 231.596 399.331 231.293C399.236 230.99 399.189 230.653 399.189 230.284V227.443C399.189 226.889 399.122 226.435 398.99 226.08C398.862 225.72 398.639 225.455 398.322 225.284C398.01 225.114 397.579 225.028 397.029 225.028V223.636ZM402.853 231.875V233.58H401.177V231.875H402.853Z" fill="black"/>
<line x1="136.5" y1="22" x2="136.5" y2="84" stroke="black"/>
<line x1="501.5" y1="21" x2="501.5" y2="83" stroke="black"/>
</svg>
