<svg width="638" height="266" viewBox="0 0 638 266" fill="none" xmlns="http://www.w3.org/2000/svg">
<rect width="638" height="266" fill="#F5F5F5"/>
<path d="M164.205 58V56.9773L168.045 52.7727C168.496 52.2803 168.867 51.8523 169.159 51.4886C169.451 51.1212 169.667 50.7765 169.807 50.4545C169.951 50.1288 170.023 49.7879 170.023 49.4318C170.023 49.0227 169.924 48.6686 169.727 48.3693C169.534 48.0701 169.269 47.839 168.932 47.6761C168.595 47.5133 168.216 47.4318 167.795 47.4318C167.348 47.4318 166.958 47.5246 166.625 47.7102C166.295 47.892 166.04 48.1477 165.858 48.4773C165.68 48.8068 165.591 49.1932 165.591 49.6364H164.25C164.25 48.9545 164.407 48.3561 164.722 47.8409C165.036 47.3258 165.464 46.9242 166.006 46.6364C166.551 46.3485 167.163 46.2045 167.841 46.2045C168.523 46.2045 169.127 46.3485 169.653 46.6364C170.18 46.9242 170.593 47.3125 170.892 47.8011C171.191 48.2898 171.341 48.8333 171.341 49.4318C171.341 49.8598 171.263 50.2784 171.108 50.6875C170.956 51.0928 170.691 51.5455 170.312 52.0455C169.938 52.5417 169.417 53.1477 168.75 53.8636L166.136 56.6591V56.75H171.545V58H164.205Z" fill="black"/>
<line x1="136" y1="83.5" x2="502" y2="83.5" stroke="black"/>
<line x1="136" y1="21.5" x2="502" y2="21.5" stroke="black"/>
<path d="M225.205 58V56.9773L229.045 52.7727C229.496 52.2803 229.867 51.8523 230.159 51.4886C230.451 51.1212 230.667 50.7765 230.807 50.4545C230.951 50.1288 231.023 49.7879 231.023 49.4318C231.023 49.0227 230.924 48.6686 230.727 48.3693C230.534 48.0701 230.269 47.839 229.932 47.6761C229.595 47.5133 229.216 47.4318 228.795 47.4318C228.348 47.4318 227.958 47.5246 227.625 47.7102C227.295 47.892 227.04 48.1477 226.858 48.4773C226.68 48.8068 226.591 49.1932 226.591 49.6364H225.25C225.25 48.9545 225.407 48.3561 225.722 47.8409C226.036 47.3258 226.464 46.9242 227.006 46.6364C227.551 46.3485 228.163 46.2045 228.841 46.2045C229.523 46.2045 230.127 46.3485 230.653 46.6364C231.18 46.9242 231.593 47.3125 231.892 47.8011C232.191 48.2898 232.341 48.8333 232.341 49.4318C232.341 49.8598 232.263 50.2784 232.108 50.6875C231.956 51.0928 231.691 51.5455 231.312 52.0455C230.938 52.5417 230.417 53.1477 229.75 53.8636L227.136 56.6591V56.75H232.545V58H225.205Z" fill="black"/>
<path d="M290.295 46.3636V58H288.886V47.8409H288.818L285.977 49.7273V48.2955L288.886 46.3636H290.295Z" fill="black"/>
<path d="M351 58.1591C350.144 58.1591 349.415 57.9261 348.812 57.4602C348.21 56.9905 347.75 56.3106 347.432 55.4205C347.114 54.5265 346.955 53.447 346.955 52.1818C346.955 50.9242 347.114 49.8504 347.432 48.9602C347.754 48.0663 348.216 47.3845 348.818 46.9148C349.424 46.4413 350.152 46.2045 351 46.2045C351.848 46.2045 352.574 46.4413 353.176 46.9148C353.782 47.3845 354.244 48.0663 354.562 48.9602C354.884 49.8504 355.045 50.9242 355.045 52.1818C355.045 53.447 354.886 54.5265 354.568 55.4205C354.25 56.3106 353.79 56.9905 353.188 57.4602C352.585 57.9261 351.856 58.1591 351 58.1591ZM351 56.9091C351.848 56.9091 352.508 56.5 352.977 55.6818C353.447 54.8636 353.682 53.697 353.682 52.1818C353.682 51.1742 353.574 50.3163 353.358 49.608C353.146 48.8996 352.839 48.3598 352.438 47.9886C352.04 47.6174 351.561 47.4318 351 47.4318C350.159 47.4318 349.502 47.8466 349.028 48.6761C348.555 49.5019 348.318 50.6705 348.318 52.1818C348.318 53.1894 348.424 54.0455 348.636 54.75C348.848 55.4545 349.153 55.9905 349.551 56.358C349.953 56.7254 350.436 56.9091 351 56.9091Z" fill="black"/>
<path d="M411 58.1591C410.144 58.1591 409.415 57.9261 408.812 57.4602C408.21 56.9905 407.75 56.3106 407.432 55.4205C407.114 54.5265 406.955 53.447 406.955 52.1818C406.955 50.9242 407.114 49.8504 407.432 48.9602C407.754 48.0663 408.216 47.3845 408.818 46.9148C409.424 46.4413 410.152 46.2045 411 46.2045C411.848 46.2045 412.574 46.4413 413.176 46.9148C413.782 47.3845 414.244 48.0663 414.562 48.9602C414.884 49.8504 415.045 50.9242 415.045 52.1818C415.045 53.447 414.886 54.5265 414.568 55.4205C414.25 56.3106 413.79 56.9905 413.188 57.4602C412.585 57.9261 411.856 58.1591 411 58.1591ZM411 56.9091C411.848 56.9091 412.508 56.5 412.977 55.6818C413.447 54.8636 413.682 53.697 413.682 52.1818C413.682 51.1742 413.574 50.3163 413.358 49.608C413.146 48.8996 412.839 48.3598 412.438 47.9886C412.04 47.6174 411.561 47.4318 411 47.4318C410.159 47.4318 409.502 47.8466 409.028 48.6761C408.555 49.5019 408.318 50.6705 408.318 52.1818C408.318 53.1894 408.424 54.0455 408.636 54.75C408.848 55.4545 409.153 55.9905 409.551 56.358C409.953 56.7254 410.436 56.9091 411 56.9091Z" fill="black"/>
<path d="M472 58.1591C471.144 58.1591 470.415 57.9261 469.812 57.4602C469.21 56.9905 468.75 56.3106 468.432 55.4205C468.114 54.5265 467.955 53.447 467.955 52.1818C467.955 50.9242 468.114 49.8504 468.432 48.9602C468.754 48.0663 469.216 47.3845 469.818 46.9148C470.424 46.4413 471.152 46.2045 472 46.2045C472.848 46.2045 473.574 46.4413 474.176 46.9148C474.782 47.3845 475.244 48.0663 475.562 48.9602C475.884 49.8504 476.045 50.9242 476.045 52.1818C476.045 53.447 475.886 54.5265 475.568 55.4205C475.25 56.3106 474.79 56.9905 474.188 57.4602C473.585 57.9261 472.856 58.1591 472 58.1591ZM472 56.9091C472.848 56.9091 473.508 56.5 473.977 55.6818C474.447 54.8636 474.682 53.697 474.682 52.1818C474.682 51.1742 474.574 50.3163 474.358 49.608C474.146 48.8996 473.839 48.3598 473.438 47.9886C473.04 47.6174 472.561 47.4318 472 47.4318C471.159 47.4318 470.502 47.8466 470.028 48.6761C469.555 49.5019 469.318 50.6705 469.318 52.1818C469.318 53.1894 469.424 54.0455 469.636 54.75C469.848 55.4545 470.153 55.9905 470.551 56.358C470.953 56.7254 471.436 56.9091 472 56.9091Z" fill="black"/>
<path d="M212.358 225.455L216.676 237.699H216.847L221.165 225.455H223.011L217.67 240H215.852L210.511 225.455H212.358ZM228.608 240.227C227.557 240.227 226.65 239.995 225.888 239.531C225.13 239.062 224.545 238.409 224.134 237.571C223.726 236.728 223.523 235.748 223.523 234.631C223.523 233.513 223.726 232.528 224.134 231.676C224.545 230.819 225.118 230.152 225.852 229.673C226.591 229.19 227.453 228.949 228.438 228.949C229.006 228.949 229.567 229.044 230.121 229.233C230.675 229.422 231.179 229.73 231.634 230.156C232.088 230.578 232.45 231.136 232.72 231.832C232.99 232.528 233.125 233.385 233.125 234.403V235.114H224.716V233.665H231.42C231.42 233.049 231.297 232.5 231.051 232.017C230.81 231.534 230.464 231.153 230.014 230.874C229.569 230.594 229.044 230.455 228.438 230.455C227.77 230.455 227.192 230.62 226.705 230.952C226.222 231.278 225.85 231.705 225.589 232.23C225.329 232.756 225.199 233.319 225.199 233.92V234.886C225.199 235.71 225.341 236.409 225.625 236.982C225.914 237.55 226.314 237.983 226.825 238.281C227.337 238.575 227.931 238.722 228.608 238.722C229.048 238.722 229.446 238.66 229.801 238.537C230.161 238.409 230.471 238.22 230.732 237.969C230.992 237.713 231.193 237.396 231.335 237.017L232.955 237.472C232.784 238.021 232.498 238.504 232.095 238.92C231.693 239.332 231.196 239.654 230.604 239.886C230.012 240.114 229.347 240.227 228.608 240.227ZM240.419 229.091V230.511H234.766V229.091H240.419ZM236.413 226.477H238.089V236.875C238.089 237.348 238.158 237.704 238.295 237.94C238.438 238.172 238.617 238.329 238.835 238.409C239.058 238.485 239.292 238.523 239.538 238.523C239.723 238.523 239.875 238.513 239.993 238.494C240.111 238.471 240.206 238.452 240.277 238.438L240.618 239.943C240.504 239.986 240.346 240.028 240.142 240.071C239.938 240.118 239.68 240.142 239.368 240.142C238.894 240.142 238.43 240.04 237.976 239.837C237.526 239.633 237.152 239.323 236.854 238.906C236.56 238.49 236.413 237.964 236.413 237.33V226.477ZM247.255 240.227C246.27 240.227 245.406 239.993 244.663 239.524C243.924 239.055 243.346 238.4 242.93 237.557C242.518 236.714 242.312 235.729 242.312 234.602C242.312 233.466 242.518 232.474 242.93 231.626C243.346 230.779 243.924 230.121 244.663 229.652C245.406 229.183 246.27 228.949 247.255 228.949C248.24 228.949 249.102 229.183 249.84 229.652C250.584 230.121 251.161 230.779 251.573 231.626C251.99 232.474 252.198 233.466 252.198 234.602C252.198 235.729 251.99 236.714 251.573 237.557C251.161 238.4 250.584 239.055 249.84 239.524C249.102 239.993 248.24 240.227 247.255 240.227ZM247.255 238.722C248.003 238.722 248.619 238.53 249.102 238.146C249.585 237.763 249.942 237.259 250.174 236.634C250.406 236.009 250.522 235.331 250.522 234.602C250.522 233.873 250.406 233.194 250.174 232.564C249.942 231.934 249.585 231.425 249.102 231.037C248.619 230.649 248.003 230.455 247.255 230.455C246.507 230.455 245.891 230.649 245.408 231.037C244.925 231.425 244.568 231.934 244.336 232.564C244.104 233.194 243.988 233.873 243.988 234.602C243.988 235.331 244.104 236.009 244.336 236.634C244.568 237.259 244.925 237.763 245.408 238.146C245.891 238.53 246.507 238.722 247.255 238.722ZM254.757 240V229.091H256.376V230.739H256.49C256.689 230.199 257.048 229.761 257.569 229.425C258.09 229.089 258.677 228.92 259.331 228.92C259.454 228.92 259.608 228.923 259.792 228.928C259.977 228.932 260.117 228.939 260.211 228.949V230.653C260.154 230.639 260.024 230.618 259.821 230.589C259.622 230.556 259.411 230.54 259.189 230.54C258.658 230.54 258.185 230.651 257.768 230.874C257.356 231.091 257.029 231.394 256.788 231.783C256.551 232.166 256.433 232.604 256.433 233.097V240H254.757ZM272.681 229.091V230.511H266.8V229.091H272.681ZM268.562 240V227.585C268.562 226.96 268.709 226.439 269.002 226.023C269.296 225.606 269.677 225.294 270.146 225.085C270.614 224.877 271.109 224.773 271.63 224.773C272.042 224.773 272.378 224.806 272.638 224.872C272.899 224.938 273.093 225 273.221 225.057L272.738 226.506C272.653 226.477 272.534 226.442 272.383 226.399C272.236 226.357 272.042 226.335 271.8 226.335C271.246 226.335 270.846 226.475 270.6 226.754C270.359 227.034 270.238 227.443 270.238 227.983V240H268.562ZM275.03 240V229.091H276.706V240H275.03ZM275.882 227.273C275.556 227.273 275.274 227.161 275.037 226.939C274.805 226.716 274.689 226.449 274.689 226.136C274.689 225.824 274.805 225.556 275.037 225.334C275.274 225.111 275.556 225 275.882 225C276.209 225 276.489 225.111 276.721 225.334C276.957 225.556 277.076 225.824 277.076 226.136C277.076 226.449 276.957 226.716 276.721 226.939C276.489 227.161 276.209 227.273 275.882 227.273ZM281.452 233.438V240H279.776V229.091H281.396V230.795H281.538C281.793 230.241 282.182 229.796 282.702 229.46C283.223 229.119 283.896 228.949 284.719 228.949C285.458 228.949 286.104 229.1 286.658 229.403C287.212 229.702 287.643 230.156 287.951 230.767C288.259 231.373 288.413 232.14 288.413 233.068V240H286.737V233.182C286.737 232.325 286.514 231.657 286.069 231.179C285.624 230.696 285.013 230.455 284.237 230.455C283.701 230.455 283.223 230.571 282.802 230.803C282.385 231.035 282.056 231.373 281.815 231.818C281.573 232.263 281.452 232.803 281.452 233.438ZM294.686 240.256C293.994 240.256 293.367 240.125 292.804 239.865C292.24 239.6 291.793 239.219 291.461 238.722C291.13 238.22 290.964 237.614 290.964 236.903C290.964 236.278 291.087 235.772 291.333 235.384C291.58 234.991 291.909 234.683 292.321 234.46C292.733 234.238 293.187 234.072 293.684 233.963C294.186 233.849 294.69 233.759 295.197 233.693C295.86 233.608 296.397 233.544 296.809 233.501C297.226 233.454 297.529 233.376 297.718 233.267C297.913 233.158 298.01 232.969 298.01 232.699V232.642C298.01 231.941 297.818 231.397 297.434 231.009C297.056 230.62 296.48 230.426 295.708 230.426C294.908 230.426 294.281 230.601 293.826 230.952C293.372 231.302 293.052 231.676 292.868 232.074L291.277 231.506C291.561 230.843 291.94 230.327 292.413 229.957C292.891 229.583 293.412 229.323 293.975 229.176C294.544 229.025 295.102 228.949 295.652 228.949C296.002 228.949 296.404 228.991 296.859 229.077C297.318 229.157 297.761 229.325 298.187 229.581C298.618 229.837 298.975 230.223 299.26 230.739C299.544 231.255 299.686 231.946 299.686 232.812V240H298.01V238.523H297.924C297.811 238.759 297.621 239.013 297.356 239.283C297.091 239.553 296.738 239.782 296.298 239.972C295.858 240.161 295.32 240.256 294.686 240.256ZM294.941 238.75C295.604 238.75 296.163 238.62 296.618 238.359C297.077 238.099 297.422 237.763 297.654 237.351C297.891 236.939 298.01 236.506 298.01 236.051V234.517C297.939 234.602 297.782 234.68 297.541 234.751C297.304 234.818 297.029 234.877 296.717 234.929C296.409 234.976 296.109 235.019 295.815 235.057C295.526 235.09 295.292 235.118 295.112 235.142C294.676 235.199 294.269 235.291 293.89 235.419C293.516 235.542 293.213 235.729 292.981 235.98C292.754 236.226 292.64 236.562 292.64 236.989C292.64 237.571 292.856 238.011 293.287 238.31C293.722 238.603 294.274 238.75 294.941 238.75ZM304.421 225.455V240H302.745V225.455H304.421ZM313.798 232.983V231.449H322.548V232.983H313.798ZM313.798 237.188V235.653H322.548V237.188H313.798ZM331.129 232.756V231.875C331.92 231.875 332.472 231.709 332.784 231.378C333.101 231.046 333.26 230.492 333.26 229.716V227.443C333.26 226.79 333.321 226.224 333.445 225.746C333.572 225.268 333.778 224.872 334.062 224.56C334.347 224.247 334.725 224.015 335.199 223.864C335.672 223.712 336.257 223.636 336.953 223.636V225.028C336.404 225.028 335.971 225.114 335.653 225.284C335.341 225.455 335.118 225.72 334.986 226.08C334.858 226.435 334.794 226.889 334.794 227.443V230.284C334.794 230.653 334.744 230.99 334.645 231.293C334.55 231.596 334.373 231.856 334.112 232.074C333.852 232.292 333.48 232.46 332.997 232.578C332.519 232.696 331.896 232.756 331.129 232.756ZM336.953 241.818C336.257 241.818 335.672 241.742 335.199 241.591C334.725 241.439 334.347 241.207 334.062 240.895C333.778 240.582 333.572 240.187 333.445 239.709C333.321 239.231 333.26 238.665 333.26 238.011V235.739C333.26 234.962 333.101 234.408 332.784 234.077C332.472 233.745 331.92 233.58 331.129 233.58V232.699C331.896 232.699 332.519 232.758 332.997 232.876C333.48 232.995 333.852 233.163 334.112 233.381C334.373 233.598 334.55 233.859 334.645 234.162C334.744 234.465 334.794 234.801 334.794 235.17V238.011C334.794 238.565 334.858 239.02 334.986 239.375C335.118 239.73 335.341 239.993 335.653 240.163C335.971 240.339 336.404 240.426 336.953 240.426V241.818ZM331.129 233.58V231.875H332.805V233.58H331.129ZM343.972 240.199C343.375 240.189 342.779 240.076 342.182 239.858C341.586 239.64 341.041 239.273 340.549 238.757C340.056 238.236 339.661 237.533 339.363 236.648C339.064 235.758 338.915 234.64 338.915 233.295C338.915 232.008 339.036 230.866 339.277 229.872C339.519 228.873 339.869 228.033 340.328 227.351C340.788 226.664 341.342 226.143 341.99 225.788C342.644 225.433 343.38 225.256 344.199 225.256C345.014 225.256 345.738 225.419 346.373 225.746C347.012 226.068 347.533 226.518 347.935 227.095C348.337 227.673 348.598 228.338 348.716 229.091H346.983C346.822 228.437 346.51 227.895 346.046 227.464C345.582 227.034 344.966 226.818 344.199 226.818C343.072 226.818 342.185 227.308 341.536 228.288C340.892 229.268 340.568 230.644 340.563 232.415H340.676C340.942 232.012 341.257 231.669 341.621 231.385C341.99 231.096 342.398 230.874 342.843 230.717C343.288 230.561 343.759 230.483 344.256 230.483C345.089 230.483 345.852 230.691 346.543 231.108C347.234 231.52 347.788 232.09 348.205 232.82C348.622 233.544 348.83 234.375 348.83 235.312C348.83 236.212 348.629 237.036 348.226 237.784C347.824 238.527 347.258 239.119 346.529 239.56C345.804 239.995 344.952 240.208 343.972 240.199ZM343.972 238.636C344.569 238.636 345.104 238.487 345.577 238.189C346.055 237.891 346.432 237.491 346.706 236.989C346.986 236.487 347.125 235.928 347.125 235.312C347.125 234.711 346.99 234.164 346.721 233.672C346.455 233.175 346.088 232.779 345.62 232.486C345.156 232.192 344.625 232.045 344.029 232.045C343.579 232.045 343.16 232.135 342.772 232.315C342.383 232.491 342.042 232.732 341.749 233.04C341.46 233.348 341.233 233.7 341.067 234.098C340.901 234.491 340.819 234.905 340.819 235.341C340.819 235.919 340.953 236.458 341.223 236.96C341.498 237.462 341.872 237.867 342.346 238.175C342.824 238.482 343.366 238.636 343.972 238.636ZM353.468 238.011L353.354 238.778C353.274 239.318 353.15 239.896 352.985 240.511C352.824 241.127 352.656 241.707 352.48 242.251C352.305 242.796 352.161 243.229 352.047 243.551H350.769C350.83 243.248 350.911 242.848 351.01 242.351C351.11 241.854 351.209 241.297 351.309 240.682C351.413 240.071 351.498 239.446 351.564 238.807L351.65 238.011H353.468ZM366.715 240.199C365.882 240.199 365.131 240.033 364.464 239.702C363.796 239.37 363.261 238.916 362.859 238.338C362.456 237.76 362.236 237.102 362.198 236.364H363.903C363.969 237.022 364.267 237.566 364.798 237.997C365.333 238.423 365.972 238.636 366.715 238.636C367.312 238.636 367.842 238.497 368.306 238.217C368.775 237.938 369.142 237.554 369.407 237.067C369.677 236.574 369.812 236.018 369.812 235.398C369.812 234.763 369.672 234.197 369.393 233.7C369.118 233.198 368.739 232.803 368.256 232.514C367.773 232.225 367.222 232.079 366.602 232.074C366.156 232.069 365.7 232.138 365.231 232.28C364.762 232.417 364.376 232.595 364.073 232.812L362.425 232.614L363.306 225.455H370.863V227.017H364.783L364.272 231.307H364.357C364.656 231.07 365.03 230.874 365.479 230.717C365.929 230.561 366.398 230.483 366.886 230.483C367.776 230.483 368.569 230.696 369.265 231.122C369.966 231.544 370.515 232.121 370.913 232.855C371.315 233.589 371.516 234.427 371.516 235.369C371.516 236.297 371.308 237.126 370.891 237.855C370.479 238.58 369.911 239.152 369.187 239.574C368.462 239.991 367.638 240.199 366.715 240.199ZM376.319 238.011L376.206 238.778C376.125 239.318 376.002 239.896 375.836 240.511C375.675 241.127 375.507 241.707 375.332 242.251C375.157 242.796 375.012 243.229 374.899 243.551H373.62C373.682 243.248 373.762 242.848 373.862 242.351C373.961 241.854 374.061 241.297 374.16 240.682C374.264 240.071 374.35 239.446 374.416 238.807L374.501 238.011H376.319ZM384.68 237.017V235.568L391.072 225.455H392.124V227.699H391.413L386.584 235.341V235.455H395.192V237.017H384.68ZM391.527 240V236.577V235.902V225.455H393.203V240H391.527ZM399.698 238.011L399.585 238.778C399.504 239.318 399.381 239.896 399.215 240.511C399.054 241.127 398.886 241.707 398.711 242.251C398.536 242.796 398.391 243.229 398.278 243.551H396.999C397.061 243.248 397.141 242.848 397.241 242.351C397.34 241.854 397.44 241.297 397.539 240.682C397.643 240.071 397.728 239.446 397.795 238.807L397.88 238.011H399.698ZM426.135 233.835V234.716C425.344 234.716 424.79 234.882 424.473 235.213C424.16 235.545 424.004 236.098 424.004 236.875V239.148C424.004 239.801 423.94 240.367 423.812 240.845C423.689 241.323 423.485 241.719 423.201 242.031C422.917 242.344 422.538 242.576 422.065 242.727C421.592 242.879 421.007 242.955 420.311 242.955V241.562C420.86 241.562 421.291 241.475 421.603 241.3C421.921 241.129 422.143 240.866 422.271 240.511C422.404 240.156 422.47 239.702 422.47 239.148V236.307C422.47 235.937 422.517 235.601 422.612 235.298C422.711 234.995 422.891 234.735 423.152 234.517C423.412 234.299 423.781 234.131 424.26 234.013C424.743 233.894 425.368 233.835 426.135 233.835ZM420.311 224.773C421.007 224.773 421.592 224.848 422.065 225C422.538 225.152 422.917 225.384 423.201 225.696C423.485 226.009 423.689 226.404 423.812 226.882C423.94 227.36 424.004 227.926 424.004 228.58V230.852C424.004 231.629 424.16 232.183 424.473 232.514C424.79 232.846 425.344 233.011 426.135 233.011V233.892C425.368 233.892 424.743 233.833 424.26 233.714C423.781 233.596 423.412 233.428 423.152 233.21C422.891 232.992 422.711 232.732 422.612 232.429C422.517 232.126 422.47 231.79 422.47 231.42V228.58C422.47 228.026 422.404 227.571 422.271 227.216C422.143 226.856 421.921 226.591 421.603 226.42C421.291 226.25 420.86 226.165 420.311 226.165V224.773ZM426.135 233.011V234.716H424.458V233.011H426.135Z" fill="black"/>
<path d="M413.315 240.199C412.377 240.199 411.542 240.038 410.808 239.716C410.079 239.394 409.499 238.946 409.068 238.374C408.642 237.796 408.41 237.126 408.372 236.364H410.162C410.199 236.832 410.36 237.237 410.645 237.578C410.929 237.914 411.3 238.175 411.76 238.359C412.219 238.544 412.728 238.636 413.287 238.636C413.912 238.636 414.466 238.527 414.949 238.31C415.431 238.092 415.81 237.789 416.085 237.401C416.359 237.012 416.497 236.562 416.497 236.051C416.497 235.516 416.364 235.045 416.099 234.638C415.834 234.226 415.446 233.904 414.934 233.672C414.423 233.44 413.798 233.324 413.059 233.324H411.895V231.761H413.059C413.637 231.761 414.144 231.657 414.579 231.449C415.02 231.241 415.363 230.947 415.609 230.568C415.86 230.189 415.985 229.744 415.985 229.233C415.985 228.741 415.877 228.312 415.659 227.947C415.441 227.583 415.133 227.299 414.735 227.095C414.342 226.892 413.878 226.79 413.343 226.79C412.842 226.79 412.368 226.882 411.923 227.067C411.483 227.247 411.123 227.509 410.843 227.855C410.564 228.196 410.413 228.608 410.389 229.091H408.684C408.713 228.329 408.942 227.661 409.373 227.088C409.804 226.51 410.368 226.061 411.064 225.739C411.764 225.417 412.534 225.256 413.372 225.256C414.271 225.256 415.043 225.438 415.687 225.803C416.331 226.162 416.826 226.638 417.172 227.23C417.517 227.822 417.69 228.461 417.69 229.148C417.69 229.967 417.475 230.665 417.044 231.243C416.618 231.821 416.038 232.221 415.304 232.443V232.557C416.222 232.708 416.94 233.099 417.456 233.729C417.972 234.354 418.23 235.128 418.23 236.051C418.23 236.842 418.014 237.552 417.583 238.182C417.157 238.807 416.575 239.299 415.836 239.659C415.098 240.019 414.257 240.199 413.315 240.199Z" fill="#00A538"/>
<path d="M165.227 106.557V107.807H160.136V106.557H165.227ZM171.655 101.364V113H170.246V102.841H170.178L167.337 104.727V103.295L170.246 101.364H171.655Z" fill="#DC0000"/>
<path d="M226.227 106.557V107.807H221.136V106.557H226.227ZM232.655 101.364V113H231.246V102.841H231.178L228.337 104.727V103.295L231.246 101.364H232.655Z" fill="#DC0000"/>
<path d="M287.227 106.557V107.807H282.136V106.557H287.227ZM293.655 101.364V113H292.246V102.841H292.178L289.337 104.727V103.295L292.246 101.364H293.655Z" fill="#DC0000"/>
<path d="M348.227 106.557V107.807H343.136V106.557H348.227ZM354.655 101.364V113H353.246V102.841H353.178L350.337 104.727V103.295L353.246 101.364H354.655Z" fill="#DC0000"/>
<path d="M408.227 106.557V107.807H403.136V106.557H408.227ZM414.655 101.364V113H413.246V102.841H413.178L410.337 104.727V103.295L413.246 101.364H414.655Z" fill="#DC0000"/>
<path d="M469.227 106.557V107.807H464.136V106.557H469.227ZM475.655 101.364V113H474.246V102.841H474.178L471.337 104.727V103.295L474.246 101.364H475.655Z" fill="#DC0000"/>
<line x1="136.5" y1="22" x2="136.5" y2="84" stroke="black"/>
<line x1="501.5" y1="21" x2="501.5" y2="83" stroke="black"/>
<path d="M168.295 157.364V169H166.886V158.841H166.818L163.977 160.727V159.295L166.886 157.364H168.295Z" fill="#00A538"/>
<line x1="136" y1="194.5" x2="502" y2="194.5" stroke="black"/>
<line x1="136" y1="132.5" x2="502" y2="132.5" stroke="black"/>
<path d="M229.295 157.364V169H227.886V158.841H227.818L224.977 160.727V159.295L227.886 157.364H229.295Z" fill="#00A538"/>
<path d="M290 169.159C289.144 169.159 288.415 168.926 287.812 168.46C287.21 167.991 286.75 167.311 286.432 166.42C286.114 165.527 285.955 164.447 285.955 163.182C285.955 161.924 286.114 160.85 286.432 159.96C286.754 159.066 287.216 158.384 287.818 157.915C288.424 157.441 289.152 157.205 290 157.205C290.848 157.205 291.574 157.441 292.176 157.915C292.782 158.384 293.244 159.066 293.562 159.96C293.884 160.85 294.045 161.924 294.045 163.182C294.045 164.447 293.886 165.527 293.568 166.42C293.25 167.311 292.79 167.991 292.188 168.46C291.585 168.926 290.856 169.159 290 169.159ZM290 167.909C290.848 167.909 291.508 167.5 291.977 166.682C292.447 165.864 292.682 164.697 292.682 163.182C292.682 162.174 292.574 161.316 292.358 160.608C292.146 159.9 291.839 159.36 291.438 158.989C291.04 158.617 290.561 158.432 290 158.432C289.159 158.432 288.502 158.847 288.028 159.676C287.555 160.502 287.318 161.67 287.318 163.182C287.318 164.189 287.424 165.045 287.636 165.75C287.848 166.455 288.153 166.991 288.551 167.358C288.953 167.725 289.436 167.909 290 167.909Z" fill="#00A538"/>
<path d="M351 169.159C350.144 169.159 349.415 168.926 348.812 168.46C348.21 167.991 347.75 167.311 347.432 166.42C347.114 165.527 346.955 164.447 346.955 163.182C346.955 161.924 347.114 160.85 347.432 159.96C347.754 159.066 348.216 158.384 348.818 157.915C349.424 157.441 350.152 157.205 351 157.205C351.848 157.205 352.574 157.441 353.176 157.915C353.782 158.384 354.244 159.066 354.562 159.96C354.884 160.85 355.045 161.924 355.045 163.182C355.045 164.447 354.886 165.527 354.568 166.42C354.25 167.311 353.79 167.991 353.188 168.46C352.585 168.926 351.856 169.159 351 169.159ZM351 167.909C351.848 167.909 352.508 167.5 352.977 166.682C353.447 165.864 353.682 164.697 353.682 163.182C353.682 162.174 353.574 161.316 353.358 160.608C353.146 159.9 352.839 159.36 352.438 158.989C352.04 158.617 351.561 158.432 351 158.432C350.159 158.432 349.502 158.847 349.028 159.676C348.555 160.502 348.318 161.67 348.318 163.182C348.318 164.189 348.424 165.045 348.636 165.75C348.848 166.455 349.153 166.991 349.551 167.358C349.953 167.725 350.436 167.909 351 167.909Z" fill="#DC0000"/>
<path d="M411 169.159C410.144 169.159 409.415 168.926 408.812 168.46C408.21 167.991 407.75 167.311 407.432 166.42C407.114 165.527 406.955 164.447 406.955 163.182C406.955 161.924 407.114 160.85 407.432 159.96C407.754 159.066 408.216 158.384 408.818 157.915C409.424 157.441 410.152 157.205 411 157.205C411.848 157.205 412.574 157.441 413.176 157.915C413.782 158.384 414.244 159.066 414.562 159.96C414.884 160.85 415.045 161.924 415.045 163.182C415.045 164.447 414.886 165.527 414.568 166.42C414.25 167.311 413.79 167.991 413.188 168.46C412.585 168.926 411.856 169.159 411 169.159ZM411 167.909C411.848 167.909 412.508 167.5 412.977 166.682C413.447 165.864 413.682 164.697 413.682 163.182C413.682 162.174 413.574 161.316 413.358 160.608C413.146 159.9 412.839 159.36 412.438 158.989C412.04 158.617 411.561 158.432 411 158.432C410.159 158.432 409.502 158.847 409.028 159.676C408.555 160.502 408.318 161.67 408.318 163.182C408.318 164.189 408.424 165.045 408.636 165.75C408.848 166.455 409.153 166.991 409.551 167.358C409.953 167.725 410.436 167.909 411 167.909Z" fill="#DC0000"/>
<path d="M472 169.159C471.144 169.159 470.415 168.926 469.812 168.46C469.21 167.991 468.75 167.311 468.432 166.42C468.114 165.527 467.955 164.447 467.955 163.182C467.955 161.924 468.114 160.85 468.432 159.96C468.754 159.066 469.216 158.384 469.818 157.915C470.424 157.441 471.152 157.205 472 157.205C472.848 157.205 473.574 157.441 474.176 157.915C474.782 158.384 475.244 159.066 475.562 159.96C475.884 160.85 476.045 161.924 476.045 163.182C476.045 164.447 475.886 165.527 475.568 166.42C475.25 167.311 474.79 167.991 474.188 168.46C473.585 168.926 472.856 169.159 472 169.159ZM472 167.909C472.848 167.909 473.508 167.5 473.977 166.682C474.447 165.864 474.682 164.697 474.682 163.182C474.682 162.174 474.574 161.316 474.358 160.608C474.146 159.9 473.839 159.36 473.438 158.989C473.04 158.617 472.561 158.432 472 158.432C471.159 158.432 470.502 158.847 470.028 159.676C469.555 160.502 469.318 161.67 469.318 163.182C469.318 164.189 469.424 165.045 469.636 165.75C469.848 166.455 470.153 166.991 470.551 167.358C470.953 167.725 471.436 167.909 472 167.909Z" fill="#DC0000"/>
<line x1="136.5" y1="133" x2="136.5" y2="195" stroke="black"/>
<line x1="501.5" y1="132" x2="501.5" y2="194" stroke="black"/>
</svg>
