<svg width="638" height="266" viewBox="0 0 638 266" fill="none" xmlns="http://www.w3.org/2000/svg">
<rect width="638" height="266" fill="#F5F5F5"/>
<path d="M168.295 46.3636V58H166.886V47.8409H166.818L163.977 49.7273V48.2955L166.886 46.3636H168.295Z" fill="black"/>
<line x1="136" y1="83.5" x2="502" y2="83.5" stroke="black"/>
<line x1="136" y1="21.5" x2="502" y2="21.5" stroke="black"/>
<path d="M229.295 46.3636V58H227.886V47.8409H227.818L224.977 49.7273V48.2955L227.886 46.3636H229.295Z" fill="black"/>
<path d="M290 58.1591C289.144 58.1591 288.415 57.9261 287.812 57.4602C287.21 56.9905 286.75 56.3106 286.432 55.4205C286.114 54.5265 285.955 53.447 285.955 52.1818C285.955 50.9242 286.114 49.8504 286.432 48.9602C286.754 48.0663 287.216 47.3845 287.818 46.9148C288.424 46.4413 289.152 46.2045 290 46.2045C290.848 46.2045 291.574 46.4413 292.176 46.9148C292.782 47.3845 293.244 48.0663 293.562 48.9602C293.884 49.8504 294.045 50.9242 294.045 52.1818C294.045 53.447 293.886 54.5265 293.568 55.4205C293.25 56.3106 292.79 56.9905 292.188 57.4602C291.585 57.9261 290.856 58.1591 290 58.1591ZM290 56.9091C290.848 56.9091 291.508 56.5 291.977 55.6818C292.447 54.8636 292.682 53.697 292.682 52.1818C292.682 51.1742 292.574 50.3163 292.358 49.608C292.146 48.8996 291.839 48.3598 291.438 47.9886C291.04 47.6174 290.561 47.4318 290 47.4318C289.159 47.4318 288.502 47.8466 288.028 48.6761C287.555 49.5019 287.318 50.6705 287.318 52.1818C287.318 53.1894 287.424 54.0455 287.636 54.75C287.848 55.4545 288.153 55.9905 288.551 56.358C288.953 56.7254 289.436 56.9091 290 56.9091Z" fill="black"/>
<path d="M351 58.1591C350.144 58.1591 349.415 57.9261 348.812 57.4602C348.21 56.9905 347.75 56.3106 347.432 55.4205C347.114 54.5265 346.955 53.447 346.955 52.1818C346.955 50.9242 347.114 49.8504 347.432 48.9602C347.754 48.0663 348.216 47.3845 348.818 46.9148C349.424 46.4413 350.152 46.2045 351 46.2045C351.848 46.2045 352.574 46.4413 353.176 46.9148C353.782 47.3845 354.244 48.0663 354.562 48.9602C354.884 49.8504 355.045 50.9242 355.045 52.1818C355.045 53.447 354.886 54.5265 354.568 55.4205C354.25 56.3106 353.79 56.9905 353.188 57.4602C352.585 57.9261 351.856 58.1591 351 58.1591ZM351 56.9091C351.848 56.9091 352.508 56.5 352.977 55.6818C353.447 54.8636 353.682 53.697 353.682 52.1818C353.682 51.1742 353.574 50.3163 353.358 49.608C353.146 48.8996 352.839 48.3598 352.438 47.9886C352.04 47.6174 351.561 47.4318 351 47.4318C350.159 47.4318 349.502 47.8466 349.028 48.6761C348.555 49.5019 348.318 50.6705 348.318 52.1818C348.318 53.1894 348.424 54.0455 348.636 54.75C348.848 55.4545 349.153 55.9905 349.551 56.358C349.953 56.7254 350.436 56.9091 351 56.9091Z" fill="black"/>
<path d="M411 58.1591C410.144 58.1591 409.415 57.9261 408.812 57.4602C408.21 56.9905 407.75 56.3106 407.432 55.4205C407.114 54.5265 406.955 53.447 406.955 52.1818C406.955 50.9242 407.114 49.8504 407.432 48.9602C407.754 48.0663 408.216 47.3845 408.818 46.9148C409.424 46.4413 410.152 46.2045 411 46.2045C411.848 46.2045 412.574 46.4413 413.176 46.9148C413.782 47.3845 414.244 48.0663 414.562 48.9602C414.884 49.8504 415.045 50.9242 415.045 52.1818C415.045 53.447 414.886 54.5265 414.568 55.4205C414.25 56.3106 413.79 56.9905 413.188 57.4602C412.585 57.9261 411.856 58.1591 411 58.1591ZM411 56.9091C411.848 56.9091 412.508 56.5 412.977 55.6818C413.447 54.8636 413.682 53.697 413.682 52.1818C413.682 51.1742 413.574 50.3163 413.358 49.608C413.146 48.8996 412.839 48.3598 412.438 47.9886C412.04 47.6174 411.561 47.4318 411 47.4318C410.159 47.4318 409.502 47.8466 409.028 48.6761C408.555 49.5019 408.318 50.6705 408.318 52.1818C408.318 53.1894 408.424 54.0455 408.636 54.75C408.848 55.4545 409.153 55.9905 409.551 56.358C409.953 56.7254 410.436 56.9091 411 56.9091Z" fill="black"/>
<path d="M472 58.1591C471.144 58.1591 470.415 57.9261 469.812 57.4602C469.21 56.9905 468.75 56.3106 468.432 55.4205C468.114 54.5265 467.955 53.447 467.955 52.1818C467.955 50.9242 468.114 49.8504 468.432 48.9602C468.754 48.0663 469.216 47.3845 469.818 46.9148C470.424 46.4413 471.152 46.2045 472 46.2045C472.848 46.2045 473.574 46.4413 474.176 46.9148C474.782 47.3845 475.244 48.0663 475.562 48.9602C475.884 49.8504 476.045 50.9242 476.045 52.1818C476.045 53.447 475.886 54.5265 475.568 55.4205C475.25 56.3106 474.79 56.9905 474.188 57.4602C473.585 57.9261 472.856 58.1591 472 58.1591ZM472 56.9091C472.848 56.9091 473.508 56.5 473.977 55.6818C474.447 54.8636 474.682 53.697 474.682 52.1818C474.682 51.1742 474.574 50.3163 474.358 49.608C474.146 48.8996 473.839 48.3598 473.438 47.9886C473.04 47.6174 472.561 47.4318 472 47.4318C471.159 47.4318 470.502 47.8466 470.028 48.6761C469.555 49.5019 469.318 50.6705 469.318 52.1818C469.318 53.1894 469.424 54.0455 469.636 54.75C469.848 55.4545 470.153 55.9905 470.551 56.358C470.953 56.7254 471.436 56.9091 472 56.9091Z" fill="black"/>
<line x1="136.5" y1="22" x2="136.5" y2="84" stroke="black"/>
<line x1="501.5" y1="21" x2="501.5" y2="83" stroke="black"/>
</svg>
