<svg width="361" height="309" viewBox="0 0 361 309" fill="none" xmlns="http://www.w3.org/2000/svg">
<line x1="28.5" y1="1" x2="28.5" y2="309" stroke="black"/>
<line x1="89.5" y1="1" x2="89.5" y2="309" stroke="black"/>
<line x1="150.5" y1="1" x2="150.5" y2="309" stroke="black"/>
<line x1="211.5" y1="1" x2="211.5" y2="309" stroke="black"/>
<line x1="272.5" y1="1" x2="272.5" y2="309" stroke="black"/>
<line x1="333.5" x2="333.5" y2="309" stroke="black"/>
<circle cx="28" cy="32" r="28" fill="#D9D9D9"/>
<circle cx="28" cy="93" r="28" fill="#D9D9D9"/>
<circle cx="89" cy="93" r="28" fill="#D9D9D9"/>
<circle cx="28" cy="154" r="28" fill="#D9D9D9"/>
<circle cx="28" cy="215" r="28" fill="#D9D9D9"/>
<circle cx="28" cy="276" r="28" fill="#D9D9D9"/>
<circle cx="89" cy="276" r="28" fill="#D9D9D9"/>
<circle cx="89" cy="215" r="28" fill="#D9D9D9"/>
<circle cx="150" cy="215" r="28" fill="#D9D9D9"/>
<circle cx="211" cy="215" r="28" fill="#D9D9D9"/>
<circle cx="272" cy="215" r="28" fill="#D9D9D9"/>
<circle cx="89" cy="154" r="28" fill="#D9D9D9"/>
<circle cx="150" cy="154" r="28" fill="#D9D9D9"/>
<circle cx="211" cy="154" r="28" fill="#D9D9D9"/>
<circle cx="150" cy="276" r="28" fill="#D9D9D9"/>
<circle cx="211" cy="32" r="28" fill="#D9D9D9"/>
<circle cx="272" cy="32" r="28" fill="#D9D9D9"/>
<circle cx="333" cy="32" r="28" fill="#D9D9D9"/>
<circle cx="150" cy="32" r="28" fill="#D9D9D9"/>
<circle cx="89" cy="32" r="28" fill="#D9D9D9"/>
</svg>
