<svg width="388" height="309" viewBox="0 0 388 309" fill="none" xmlns="http://www.w3.org/2000/svg">
<line x1="55.5" y1="1" x2="55.5" y2="309" stroke="black"/>
<line x1="116.5" y1="1" x2="116.5" y2="309" stroke="black"/>
<line x1="177.5" y1="1" x2="177.5" y2="309" stroke="black"/>
<line x1="238.5" y1="1" x2="238.5" y2="309" stroke="black"/>
<line x1="299.5" y1="1" x2="299.5" y2="309" stroke="black"/>
<line x1="360.5" x2="360.5" y2="309" stroke="black"/>
<circle cx="55" cy="32" r="28" fill="#D9D9D9"/>
<circle cx="55" cy="93" r="28" fill="#D9D9D9"/>
<circle cx="116" cy="93" r="28" fill="#D9D9D9"/>
<circle cx="55" cy="154" r="28" fill="#D9D9D9"/>
<circle cx="55" cy="215" r="28" fill="#D9D9D9"/>
<circle cx="55" cy="276" r="28" fill="#D9D9D9"/>
<circle cx="116" cy="276" r="28" fill="#D9D9D9"/>
<circle cx="116" cy="215" r="28" fill="#D9D9D9"/>
<circle cx="177" cy="215" r="28" fill="#D9D9D9"/>
<circle cx="238" cy="215" r="28" fill="#D9D9D9"/>
<circle cx="299" cy="215" r="28" fill="#D9D9D9"/>
<circle cx="116" cy="154" r="28" fill="#D9D9D9"/>
<circle cx="177" cy="154" r="28" fill="#D9D9D9"/>
<circle cx="238" cy="154" r="28" fill="#D9D9D9"/>
<circle cx="177" cy="276" r="28" fill="#D9D9D9"/>
<circle cx="238" cy="32" r="28" fill="#D9D9D9"/>
<circle cx="299" cy="32" r="28" fill="#D9D9D9"/>
<circle cx="360" cy="32" r="28" fill="#D9D9D9"/>
<circle cx="177" cy="32" r="28" fill="#D9D9D9"/>
<circle cx="116" cy="32" r="28" fill="#D9D9D9"/>
<path d="M5.06818 39.1591C4.59091 39.1515 4.11364 39.0606 3.63636 38.8864C3.15909 38.7121 2.72348 38.4186 2.32955 38.0057C1.93561 37.589 1.61932 37.0265 1.38068 36.3182C1.14205 35.6061 1.02273 34.7121 1.02273 33.6364C1.02273 32.6061 1.11932 31.6932 1.3125 30.8977C1.50568 30.0985 1.78598 29.4261 2.15341 28.8807C2.52083 28.3314 2.96402 27.9148 3.48295 27.6307C4.00568 27.3466 4.5947 27.2045 5.25 27.2045C5.90152 27.2045 6.48106 27.3352 6.98864 27.5966C7.5 27.8542 7.91667 28.214 8.23864 28.6761C8.56061 29.1383 8.76894 29.6705 8.86364 30.2727H7.47727C7.34848 29.75 7.09848 29.3163 6.72727 28.9716C6.35606 28.6269 5.86364 28.4545 5.25 28.4545C4.34848 28.4545 3.63826 28.8466 3.11932 29.6307C2.60417 30.4148 2.3447 31.5152 2.34091 32.9318H2.43182C2.64394 32.6098 2.89583 32.3352 3.1875 32.108C3.48295 31.8769 3.80871 31.6989 4.16477 31.5739C4.52083 31.4489 4.89773 31.3864 5.29545 31.3864C5.96212 31.3864 6.57197 31.553 7.125 31.8864C7.67803 32.2159 8.12121 32.6723 8.45455 33.2557C8.78788 33.8352 8.95455 34.5 8.95455 35.25C8.95455 35.9697 8.79356 36.6288 8.47159 37.2273C8.14962 37.822 7.69697 38.2955 7.11364 38.6477C6.53409 38.9962 5.85227 39.1667 5.06818 39.1591ZM5.06818 37.9091C5.54545 37.9091 5.97348 37.7898 6.35227 37.5511C6.73485 37.3125 7.03598 36.9924 7.25568 36.5909C7.47917 36.1894 7.59091 35.7424 7.59091 35.25C7.59091 34.7689 7.48295 34.3314 7.26705 33.9375C7.05492 33.5398 6.76136 33.2235 6.38636 32.9886C6.01515 32.7538 5.59091 32.6364 5.11364 32.6364C4.75379 32.6364 4.41856 32.7083 4.10795 32.8523C3.79735 32.9924 3.52462 33.1856 3.28977 33.4318C3.05871 33.678 2.87689 33.9602 2.74432 34.2784C2.61174 34.5928 2.54545 34.9242 2.54545 35.2727C2.54545 35.7348 2.65341 36.1667 2.86932 36.5682C3.08902 36.9697 3.38826 37.2936 3.76705 37.5398C4.14962 37.786 4.58333 37.9091 5.06818 37.9091Z" fill="black"/>
<path d="M1.20455 100V98.9773L5.04545 94.7727C5.49621 94.2803 5.86742 93.8523 6.15909 93.4886C6.45076 93.1212 6.66667 92.7765 6.80682 92.4545C6.95076 92.1288 7.02273 91.7879 7.02273 91.4318C7.02273 91.0227 6.92424 90.6686 6.72727 90.3693C6.53409 90.0701 6.26894 89.839 5.93182 89.6761C5.5947 89.5133 5.21591 89.4318 4.79545 89.4318C4.34848 89.4318 3.95833 89.5246 3.625 89.7102C3.29545 89.892 3.03977 90.1477 2.85795 90.4773C2.67992 90.8068 2.59091 91.1932 2.59091 91.6364H1.25C1.25 90.9545 1.4072 90.3561 1.72159 89.8409C2.03598 89.3258 2.46402 88.9242 3.00568 88.6364C3.55114 88.3485 4.16288 88.2045 4.84091 88.2045C5.52273 88.2045 6.12689 88.3485 6.65341 88.6364C7.17992 88.9242 7.5928 89.3125 7.89205 89.8011C8.19129 90.2898 8.34091 90.8333 8.34091 91.4318C8.34091 91.8598 8.26326 92.2784 8.10795 92.6875C7.95644 93.0928 7.69129 93.5455 7.3125 94.0455C6.9375 94.5417 6.41667 95.1477 5.75 95.8636L3.13636 98.6591V98.75H8.54545V100H1.20455Z" fill="black"/>
<path d="M0.931818 158.614V157.455L6.04545 149.364H6.88636V151.159H6.31818L2.45455 157.273V157.364H9.34091V158.614H0.931818ZM6.40909 161V158.261V157.722V149.364H7.75V161H6.40909Z" fill="black"/>
<path d="M4.84091 222.159C4.17424 222.159 3.57386 222.027 3.03977 221.761C2.50568 221.496 2.07765 221.133 1.75568 220.67C1.43371 220.208 1.25758 219.682 1.22727 219.091H2.59091C2.64394 219.617 2.88258 220.053 3.30682 220.398C3.73485 220.739 4.24621 220.909 4.84091 220.909C5.31818 220.909 5.74242 220.797 6.11364 220.574C6.48864 220.35 6.7822 220.044 6.99432 219.653C7.21023 219.259 7.31818 218.814 7.31818 218.318C7.31818 217.811 7.20644 217.358 6.98295 216.96C6.76326 216.559 6.46023 216.242 6.07386 216.011C5.6875 215.78 5.24621 215.663 4.75 215.659C4.39394 215.655 4.02841 215.71 3.65341 215.824C3.27841 215.934 2.9697 216.076 2.72727 216.25L1.40909 216.091L2.11364 210.364H8.15909V211.614H3.29545L2.88636 215.045H2.95455C3.19318 214.856 3.49242 214.699 3.85227 214.574C4.21212 214.449 4.58712 214.386 4.97727 214.386C5.68939 214.386 6.32386 214.557 6.88068 214.898C7.44129 215.235 7.88068 215.697 8.19886 216.284C8.52083 216.871 8.68182 217.542 8.68182 218.295C8.68182 219.038 8.51515 219.701 8.18182 220.284C7.85227 220.864 7.39773 221.322 6.81818 221.659C6.23864 221.992 5.57955 222.159 4.84091 222.159Z" fill="black"/>
<path d="M5.13636 283.159C4.38636 283.159 3.7178 283.03 3.13068 282.773C2.54735 282.515 2.08333 282.157 1.73864 281.699C1.39773 281.237 1.21212 280.701 1.18182 280.091H2.61364C2.64394 280.466 2.77273 280.79 3 281.062C3.22727 281.331 3.52462 281.54 3.89205 281.688C4.25947 281.835 4.66667 281.909 5.11364 281.909C5.61364 281.909 6.05682 281.822 6.44318 281.648C6.82955 281.473 7.13258 281.231 7.35227 280.92C7.57197 280.61 7.68182 280.25 7.68182 279.841C7.68182 279.413 7.57576 279.036 7.36364 278.71C7.15152 278.381 6.84091 278.123 6.43182 277.938C6.02273 277.752 5.52273 277.659 4.93182 277.659H4V276.409H4.93182C5.39394 276.409 5.79924 276.326 6.14773 276.159C6.5 275.992 6.77462 275.758 6.97159 275.455C7.17235 275.152 7.27273 274.795 7.27273 274.386C7.27273 273.992 7.18561 273.65 7.01136 273.358C6.83712 273.066 6.59091 272.839 6.27273 272.676C5.95833 272.513 5.58712 272.432 5.15909 272.432C4.75758 272.432 4.37879 272.506 4.02273 272.653C3.67045 272.797 3.38258 273.008 3.15909 273.284C2.93561 273.557 2.81439 273.886 2.79545 274.273H1.43182C1.45455 273.663 1.63826 273.129 1.98295 272.67C2.32765 272.208 2.77841 271.848 3.33523 271.591C3.89583 271.333 4.51136 271.205 5.18182 271.205C5.90152 271.205 6.51894 271.35 7.03409 271.642C7.54924 271.93 7.94508 272.311 8.22159 272.784C8.49811 273.258 8.63636 273.769 8.63636 274.318C8.63636 274.973 8.46402 275.532 8.11932 275.994C7.77841 276.456 7.31439 276.777 6.72727 276.955V277.045C7.46212 277.167 8.03598 277.479 8.44886 277.983C8.86174 278.483 9.06818 279.102 9.06818 279.841C9.06818 280.473 8.89583 281.042 8.55114 281.545C8.21023 282.045 7.74432 282.439 7.15341 282.727C6.5625 283.015 5.89015 283.159 5.13636 283.159Z" fill="black"/>
</svg>
