<svg width="658" height="411" viewBox="0 0 658 411" fill="none" xmlns="http://www.w3.org/2000/svg">
<path d="M0 0H658V411H0V0Z" fill="#F0F0F0"/>
<path d="M0 0H658V411H0V0Z" fill="#F0F0F0"/>
<line x1="198.5" y1="53" x2="198.5" y2="361" stroke="black"/>
<line x1="259.5" y1="53" x2="259.5" y2="361" stroke="black"/>
<line x1="320.5" y1="53" x2="320.5" y2="361" stroke="black"/>
<line x1="381.5" y1="53" x2="381.5" y2="361" stroke="black"/>
<line x1="442.5" y1="53" x2="442.5" y2="361" stroke="black"/>
<line x1="503.5" y1="52" x2="503.5" y2="361" stroke="black"/>
<circle cx="198" cy="84" r="28" fill="#D9D9D9"/>
<circle cx="198" cy="145" r="28" fill="#D9D9D9"/>
<circle cx="259" cy="145" r="28" fill="#D9D9D9"/>
<circle cx="198" cy="206" r="28" fill="#D9D9D9"/>
<circle cx="198" cy="267" r="28" fill="#D9D9D9"/>
<circle cx="198" cy="328" r="28" fill="#D9D9D9"/>
<circle cx="259" cy="328" r="28" fill="#D9D9D9"/>
<circle cx="259" cy="267" r="28" fill="#D9D9D9"/>
<circle cx="320" cy="267" r="28" fill="#D9D9D9"/>
<circle cx="381" cy="267" r="28" fill="#D9D9D9"/>
<circle cx="442" cy="267" r="28" fill="#D9D9D9"/>
<circle cx="259" cy="206" r="28" fill="#D9D9D9"/>
<circle cx="320" cy="206" r="28" fill="#D9D9D9"/>
<circle cx="381" cy="206" r="28" fill="#D9D9D9"/>
<circle cx="320" cy="328" r="28" fill="#D9D9D9"/>
<circle cx="381" cy="328" r="28" fill="#D9D9D9"/>
<circle cx="442" cy="328" r="28" fill="#D9D9D9"/>
<circle cx="503" cy="328" r="28" fill="#D9D9D9"/>
<circle cx="320" cy="145" r="28" fill="#D9D9D9"/>
<circle cx="259" cy="84" r="28" fill="#D9D9D9"/>
<path d="M144.205 91V89.9773L148.045 85.7727C148.496 85.2803 148.867 84.8523 149.159 84.4886C149.451 84.1212 149.667 83.7765 149.807 83.4545C149.951 83.1288 150.023 82.7879 150.023 82.4318C150.023 82.0227 149.924 81.6686 149.727 81.3693C149.534 81.0701 149.269 80.839 148.932 80.6761C148.595 80.5133 148.216 80.4318 147.795 80.4318C147.348 80.4318 146.958 80.5246 146.625 80.7102C146.295 80.892 146.04 81.1477 145.858 81.4773C145.68 81.8068 145.591 82.1932 145.591 82.6364H144.25C144.25 81.9545 144.407 81.3561 144.722 80.8409C145.036 80.3258 145.464 79.9242 146.006 79.6364C146.551 79.3485 147.163 79.2045 147.841 79.2045C148.523 79.2045 149.127 79.3485 149.653 79.6364C150.18 79.9242 150.593 80.3125 150.892 80.8011C151.191 81.2898 151.341 81.8333 151.341 82.4318C151.341 82.8598 151.263 83.2784 151.108 83.6875C150.956 84.0928 150.691 84.5455 150.312 85.0455C149.938 85.5417 149.417 86.1477 148.75 86.8636L146.136 89.6591V89.75H151.545V91H144.205Z" fill="black"/>
<path d="M148.136 152.159C147.386 152.159 146.718 152.03 146.131 151.773C145.547 151.515 145.083 151.157 144.739 150.699C144.398 150.237 144.212 149.701 144.182 149.091H145.614C145.644 149.466 145.773 149.79 146 150.062C146.227 150.331 146.525 150.54 146.892 150.688C147.259 150.835 147.667 150.909 148.114 150.909C148.614 150.909 149.057 150.822 149.443 150.648C149.83 150.473 150.133 150.231 150.352 149.92C150.572 149.61 150.682 149.25 150.682 148.841C150.682 148.413 150.576 148.036 150.364 147.71C150.152 147.381 149.841 147.123 149.432 146.938C149.023 146.752 148.523 146.659 147.932 146.659H147V145.409H147.932C148.394 145.409 148.799 145.326 149.148 145.159C149.5 144.992 149.775 144.758 149.972 144.455C150.172 144.152 150.273 143.795 150.273 143.386C150.273 142.992 150.186 142.65 150.011 142.358C149.837 142.066 149.591 141.839 149.273 141.676C148.958 141.513 148.587 141.432 148.159 141.432C147.758 141.432 147.379 141.506 147.023 141.653C146.67 141.797 146.383 142.008 146.159 142.284C145.936 142.557 145.814 142.886 145.795 143.273H144.432C144.455 142.663 144.638 142.129 144.983 141.67C145.328 141.208 145.778 140.848 146.335 140.591C146.896 140.333 147.511 140.205 148.182 140.205C148.902 140.205 149.519 140.35 150.034 140.642C150.549 140.93 150.945 141.311 151.222 141.784C151.498 142.258 151.636 142.769 151.636 143.318C151.636 143.973 151.464 144.532 151.119 144.994C150.778 145.456 150.314 145.777 149.727 145.955V146.045C150.462 146.167 151.036 146.479 151.449 146.983C151.862 147.483 152.068 148.102 152.068 148.841C152.068 149.473 151.896 150.042 151.551 150.545C151.21 151.045 150.744 151.439 150.153 151.727C149.563 152.015 148.89 152.159 148.136 152.159Z" fill="black"/>
<path d="M143.932 210.614V209.455L149.045 201.364H149.886V203.159H149.318L145.455 209.273V209.364H152.341V210.614H143.932ZM149.409 213V210.261V209.722V201.364H150.75V213H149.409Z" fill="black"/>
<path d="M147.841 274.159C147.174 274.159 146.574 274.027 146.04 273.761C145.506 273.496 145.078 273.133 144.756 272.67C144.434 272.208 144.258 271.682 144.227 271.091H145.591C145.644 271.617 145.883 272.053 146.307 272.398C146.735 272.739 147.246 272.909 147.841 272.909C148.318 272.909 148.742 272.797 149.114 272.574C149.489 272.35 149.782 272.044 149.994 271.653C150.21 271.259 150.318 270.814 150.318 270.318C150.318 269.811 150.206 269.358 149.983 268.96C149.763 268.559 149.46 268.242 149.074 268.011C148.688 267.78 148.246 267.663 147.75 267.659C147.394 267.655 147.028 267.71 146.653 267.824C146.278 267.934 145.97 268.076 145.727 268.25L144.409 268.091L145.114 262.364H151.159V263.614H146.295L145.886 267.045H145.955C146.193 266.856 146.492 266.699 146.852 266.574C147.212 266.449 147.587 266.386 147.977 266.386C148.689 266.386 149.324 266.557 149.881 266.898C150.441 267.235 150.881 267.697 151.199 268.284C151.521 268.871 151.682 269.542 151.682 270.295C151.682 271.038 151.515 271.701 151.182 272.284C150.852 272.864 150.398 273.322 149.818 273.659C149.239 273.992 148.58 274.159 147.841 274.159Z" fill="black"/>
<path d="M148.068 335.159C147.591 335.152 147.114 335.061 146.636 334.886C146.159 334.712 145.723 334.419 145.33 334.006C144.936 333.589 144.619 333.027 144.381 332.318C144.142 331.606 144.023 330.712 144.023 329.636C144.023 328.606 144.119 327.693 144.312 326.898C144.506 326.098 144.786 325.426 145.153 324.881C145.521 324.331 145.964 323.915 146.483 323.631C147.006 323.347 147.595 323.205 148.25 323.205C148.902 323.205 149.481 323.335 149.989 323.597C150.5 323.854 150.917 324.214 151.239 324.676C151.561 325.138 151.769 325.67 151.864 326.273H150.477C150.348 325.75 150.098 325.316 149.727 324.972C149.356 324.627 148.864 324.455 148.25 324.455C147.348 324.455 146.638 324.847 146.119 325.631C145.604 326.415 145.345 327.515 145.341 328.932H145.432C145.644 328.61 145.896 328.335 146.188 328.108C146.483 327.877 146.809 327.699 147.165 327.574C147.521 327.449 147.898 327.386 148.295 327.386C148.962 327.386 149.572 327.553 150.125 327.886C150.678 328.216 151.121 328.672 151.455 329.256C151.788 329.835 151.955 330.5 151.955 331.25C151.955 331.97 151.794 332.629 151.472 333.227C151.15 333.822 150.697 334.295 150.114 334.648C149.534 334.996 148.852 335.167 148.068 335.159ZM148.068 333.909C148.545 333.909 148.973 333.79 149.352 333.551C149.735 333.312 150.036 332.992 150.256 332.591C150.479 332.189 150.591 331.742 150.591 331.25C150.591 330.769 150.483 330.331 150.267 329.938C150.055 329.54 149.761 329.223 149.386 328.989C149.015 328.754 148.591 328.636 148.114 328.636C147.754 328.636 147.419 328.708 147.108 328.852C146.797 328.992 146.525 329.186 146.29 329.432C146.059 329.678 145.877 329.96 145.744 330.278C145.612 330.593 145.545 330.924 145.545 331.273C145.545 331.735 145.653 332.167 145.869 332.568C146.089 332.97 146.388 333.294 146.767 333.54C147.15 333.786 147.583 333.909 148.068 333.909Z" fill="black"/>
</svg>
