<svg width="638" height="266" viewBox="0 0 638 266" fill="none" xmlns="http://www.w3.org/2000/svg">
<rect width="638" height="266" fill="#F5F5F5"/>
<path d="M167.841 58.1591C167.174 58.1591 166.574 58.0265 166.04 57.7614C165.506 57.4962 165.078 57.1326 164.756 56.6705C164.434 56.2083 164.258 55.6818 164.227 55.0909H165.591C165.644 55.6174 165.883 56.053 166.307 56.3977C166.735 56.7386 167.246 56.9091 167.841 56.9091C168.318 56.9091 168.742 56.7973 169.114 56.5739C169.489 56.3504 169.782 56.0436 169.994 55.6534C170.21 55.2595 170.318 54.8144 170.318 54.3182C170.318 53.8106 170.206 53.358 169.983 52.9602C169.763 52.5587 169.46 52.2424 169.074 52.0114C168.688 51.7803 168.246 51.6629 167.75 51.6591C167.394 51.6553 167.028 51.7102 166.653 51.8239C166.278 51.9337 165.97 52.0758 165.727 52.25L164.409 52.0909L165.114 46.3636H171.159V47.6136H166.295L165.886 51.0455H165.955C166.193 50.8561 166.492 50.6989 166.852 50.5739C167.212 50.4489 167.587 50.3864 167.977 50.3864C168.689 50.3864 169.324 50.5568 169.881 50.8977C170.441 51.2348 170.881 51.697 171.199 52.2841C171.521 52.8712 171.682 53.5417 171.682 54.2955C171.682 55.0379 171.515 55.7008 171.182 56.2841C170.852 56.8636 170.398 57.322 169.818 57.6591C169.239 57.9924 168.58 58.1591 167.841 58.1591Z" fill="black"/>
<line x1="136" y1="83.5" x2="502" y2="83.5" stroke="black"/>
<line x1="136" y1="21.5" x2="502" y2="21.5" stroke="black"/>
<path d="M228.841 58.1591C228.174 58.1591 227.574 58.0265 227.04 57.7614C226.506 57.4962 226.078 57.1326 225.756 56.6705C225.434 56.2083 225.258 55.6818 225.227 55.0909H226.591C226.644 55.6174 226.883 56.053 227.307 56.3977C227.735 56.7386 228.246 56.9091 228.841 56.9091C229.318 56.9091 229.742 56.7973 230.114 56.5739C230.489 56.3504 230.782 56.0436 230.994 55.6534C231.21 55.2595 231.318 54.8144 231.318 54.3182C231.318 53.8106 231.206 53.358 230.983 52.9602C230.763 52.5587 230.46 52.2424 230.074 52.0114C229.688 51.7803 229.246 51.6629 228.75 51.6591C228.394 51.6553 228.028 51.7102 227.653 51.8239C227.278 51.9337 226.97 52.0758 226.727 52.25L225.409 52.0909L226.114 46.3636H232.159V47.6136H227.295L226.886 51.0455H226.955C227.193 50.8561 227.492 50.6989 227.852 50.5739C228.212 50.4489 228.587 50.3864 228.977 50.3864C229.689 50.3864 230.324 50.5568 230.881 50.8977C231.441 51.2348 231.881 51.697 232.199 52.2841C232.521 52.8712 232.682 53.5417 232.682 54.2955C232.682 55.0379 232.515 55.7008 232.182 56.2841C231.852 56.8636 231.398 57.322 230.818 57.6591C230.239 57.9924 229.58 58.1591 228.841 58.1591Z" fill="black"/>
<path d="M285.932 55.6136V54.4545L291.045 46.3636H291.886V48.1591H291.318L287.455 54.2727V54.3636H294.341V55.6136H285.932ZM291.409 58V55.2614V54.7216V46.3636H292.75V58H291.409Z" fill="black"/>
<path d="M351.136 58.1591C350.386 58.1591 349.718 58.0303 349.131 57.7727C348.547 57.5152 348.083 57.1572 347.739 56.6989C347.398 56.2367 347.212 55.7008 347.182 55.0909H348.614C348.644 55.4659 348.773 55.7898 349 56.0625C349.227 56.3314 349.525 56.5398 349.892 56.6875C350.259 56.8352 350.667 56.9091 351.114 56.9091C351.614 56.9091 352.057 56.822 352.443 56.6477C352.83 56.4735 353.133 56.2311 353.352 55.9205C353.572 55.6098 353.682 55.25 353.682 54.8409C353.682 54.4129 353.576 54.036 353.364 53.7102C353.152 53.3807 352.841 53.1231 352.432 52.9375C352.023 52.7519 351.523 52.6591 350.932 52.6591H350V51.4091H350.932C351.394 51.4091 351.799 51.3258 352.148 51.1591C352.5 50.9924 352.775 50.7576 352.972 50.4545C353.172 50.1515 353.273 49.7955 353.273 49.3864C353.273 48.9924 353.186 48.6496 353.011 48.358C352.837 48.0663 352.591 47.839 352.273 47.6761C351.958 47.5133 351.587 47.4318 351.159 47.4318C350.758 47.4318 350.379 47.5057 350.023 47.6534C349.67 47.7973 349.383 48.0076 349.159 48.2841C348.936 48.5568 348.814 48.8864 348.795 49.2727H347.432C347.455 48.6629 347.638 48.1288 347.983 47.6705C348.328 47.2083 348.778 46.8485 349.335 46.5909C349.896 46.3333 350.511 46.2045 351.182 46.2045C351.902 46.2045 352.519 46.3504 353.034 46.642C353.549 46.9299 353.945 47.3106 354.222 47.7841C354.498 48.2576 354.636 48.7689 354.636 49.3182C354.636 49.9735 354.464 50.5322 354.119 50.9943C353.778 51.4564 353.314 51.7765 352.727 51.9545V52.0455C353.462 52.1667 354.036 52.4792 354.449 52.983C354.862 53.483 355.068 54.1023 355.068 54.8409C355.068 55.4735 354.896 56.0417 354.551 56.5455C354.21 57.0455 353.744 57.4394 353.153 57.7273C352.563 58.0152 351.89 58.1591 351.136 58.1591Z" fill="black"/>
<path d="M407.205 58V56.9773L411.045 52.7727C411.496 52.2803 411.867 51.8523 412.159 51.4886C412.451 51.1212 412.667 50.7765 412.807 50.4545C412.951 50.1288 413.023 49.7879 413.023 49.4318C413.023 49.0227 412.924 48.6686 412.727 48.3693C412.534 48.0701 412.269 47.839 411.932 47.6761C411.595 47.5133 411.216 47.4318 410.795 47.4318C410.348 47.4318 409.958 47.5246 409.625 47.7102C409.295 47.892 409.04 48.1477 408.858 48.4773C408.68 48.8068 408.591 49.1932 408.591 49.6364H407.25C407.25 48.9545 407.407 48.3561 407.722 47.8409C408.036 47.3258 408.464 46.9242 409.006 46.6364C409.551 46.3485 410.163 46.2045 410.841 46.2045C411.523 46.2045 412.127 46.3485 412.653 46.6364C413.18 46.9242 413.593 47.3125 413.892 47.8011C414.191 48.2898 414.341 48.8333 414.341 49.4318C414.341 49.8598 414.263 50.2784 414.108 50.6875C413.956 51.0928 413.691 51.5455 413.312 52.0455C412.938 52.5417 412.417 53.1477 411.75 53.8636L409.136 56.6591V56.75H414.545V58H407.205Z" fill="black"/>
<path d="M472.295 46.3636V58H470.886V47.8409H470.818L467.977 49.7273V48.2955L470.886 46.3636H472.295Z" fill="black"/>
<path d="M167.841 58.1591C167.174 58.1591 166.574 58.0265 166.04 57.7614C165.506 57.4962 165.078 57.1326 164.756 56.6705C164.434 56.2083 164.258 55.6818 164.227 55.0909H165.591C165.644 55.6174 165.883 56.053 166.307 56.3977C166.735 56.7386 167.246 56.9091 167.841 56.9091C168.318 56.9091 168.742 56.7973 169.114 56.5739C169.489 56.3504 169.782 56.0436 169.994 55.6534C170.21 55.2595 170.318 54.8144 170.318 54.3182C170.318 53.8106 170.206 53.358 169.983 52.9602C169.763 52.5587 169.46 52.2424 169.074 52.0114C168.688 51.7803 168.246 51.6629 167.75 51.6591C167.394 51.6553 167.028 51.7102 166.653 51.8239C166.278 51.9337 165.97 52.0758 165.727 52.25L164.409 52.0909L165.114 46.3636H171.159V47.6136H166.295L165.886 51.0455H165.955C166.193 50.8561 166.492 50.6989 166.852 50.5739C167.212 50.4489 167.587 50.3864 167.977 50.3864C168.689 50.3864 169.324 50.5568 169.881 50.8977C170.441 51.2348 170.881 51.697 171.199 52.2841C171.521 52.8712 171.682 53.5417 171.682 54.2955C171.682 55.0379 171.515 55.7008 171.182 56.2841C170.852 56.8636 170.398 57.322 169.818 57.6591C169.239 57.9924 168.58 58.1591 167.841 58.1591Z" fill="black"/>
<path d="M228.841 58.1591C228.174 58.1591 227.574 58.0265 227.04 57.7614C226.506 57.4962 226.078 57.1326 225.756 56.6705C225.434 56.2083 225.258 55.6818 225.227 55.0909H226.591C226.644 55.6174 226.883 56.053 227.307 56.3977C227.735 56.7386 228.246 56.9091 228.841 56.9091C229.318 56.9091 229.742 56.7973 230.114 56.5739C230.489 56.3504 230.782 56.0436 230.994 55.6534C231.21 55.2595 231.318 54.8144 231.318 54.3182C231.318 53.8106 231.206 53.358 230.983 52.9602C230.763 52.5587 230.46 52.2424 230.074 52.0114C229.688 51.7803 229.246 51.6629 228.75 51.6591C228.394 51.6553 228.028 51.7102 227.653 51.8239C227.278 51.9337 226.97 52.0758 226.727 52.25L225.409 52.0909L226.114 46.3636H232.159V47.6136H227.295L226.886 51.0455H226.955C227.193 50.8561 227.492 50.6989 227.852 50.5739C228.212 50.4489 228.587 50.3864 228.977 50.3864C229.689 50.3864 230.324 50.5568 230.881 50.8977C231.441 51.2348 231.881 51.697 232.199 52.2841C232.521 52.8712 232.682 53.5417 232.682 54.2955C232.682 55.0379 232.515 55.7008 232.182 56.2841C231.852 56.8636 231.398 57.322 230.818 57.6591C230.239 57.9924 229.58 58.1591 228.841 58.1591Z" fill="black"/>
<path d="M285.932 55.6136V54.4545L291.045 46.3636H291.886V48.1591H291.318L287.455 54.2727V54.3636H294.341V55.6136H285.932ZM291.409 58V55.2614V54.7216V46.3636H292.75V58H291.409Z" fill="black"/>
<path d="M351.136 58.1591C350.386 58.1591 349.718 58.0303 349.131 57.7727C348.547 57.5152 348.083 57.1572 347.739 56.6989C347.398 56.2367 347.212 55.7008 347.182 55.0909H348.614C348.644 55.4659 348.773 55.7898 349 56.0625C349.227 56.3314 349.525 56.5398 349.892 56.6875C350.259 56.8352 350.667 56.9091 351.114 56.9091C351.614 56.9091 352.057 56.822 352.443 56.6477C352.83 56.4735 353.133 56.2311 353.352 55.9205C353.572 55.6098 353.682 55.25 353.682 54.8409C353.682 54.4129 353.576 54.036 353.364 53.7102C353.152 53.3807 352.841 53.1231 352.432 52.9375C352.023 52.7519 351.523 52.6591 350.932 52.6591H350V51.4091H350.932C351.394 51.4091 351.799 51.3258 352.148 51.1591C352.5 50.9924 352.775 50.7576 352.972 50.4545C353.172 50.1515 353.273 49.7955 353.273 49.3864C353.273 48.9924 353.186 48.6496 353.011 48.358C352.837 48.0663 352.591 47.839 352.273 47.6761C351.958 47.5133 351.587 47.4318 351.159 47.4318C350.758 47.4318 350.379 47.5057 350.023 47.6534C349.67 47.7973 349.383 48.0076 349.159 48.2841C348.936 48.5568 348.814 48.8864 348.795 49.2727H347.432C347.455 48.6629 347.638 48.1288 347.983 47.6705C348.328 47.2083 348.778 46.8485 349.335 46.5909C349.896 46.3333 350.511 46.2045 351.182 46.2045C351.902 46.2045 352.519 46.3504 353.034 46.642C353.549 46.9299 353.945 47.3106 354.222 47.7841C354.498 48.2576 354.636 48.7689 354.636 49.3182C354.636 49.9735 354.464 50.5322 354.119 50.9943C353.778 51.4564 353.314 51.7765 352.727 51.9545V52.0455C353.462 52.1667 354.036 52.4792 354.449 52.983C354.862 53.483 355.068 54.1023 355.068 54.8409C355.068 55.4735 354.896 56.0417 354.551 56.5455C354.21 57.0455 353.744 57.4394 353.153 57.7273C352.563 58.0152 351.89 58.1591 351.136 58.1591Z" fill="black"/>
<path d="M407.205 58V56.9773L411.045 52.7727C411.496 52.2803 411.867 51.8523 412.159 51.4886C412.451 51.1212 412.667 50.7765 412.807 50.4545C412.951 50.1288 413.023 49.7879 413.023 49.4318C413.023 49.0227 412.924 48.6686 412.727 48.3693C412.534 48.0701 412.269 47.839 411.932 47.6761C411.595 47.5133 411.216 47.4318 410.795 47.4318C410.348 47.4318 409.958 47.5246 409.625 47.7102C409.295 47.892 409.04 48.1477 408.858 48.4773C408.68 48.8068 408.591 49.1932 408.591 49.6364H407.25C407.25 48.9545 407.407 48.3561 407.722 47.8409C408.036 47.3258 408.464 46.9242 409.006 46.6364C409.551 46.3485 410.163 46.2045 410.841 46.2045C411.523 46.2045 412.127 46.3485 412.653 46.6364C413.18 46.9242 413.593 47.3125 413.892 47.8011C414.191 48.2898 414.341 48.8333 414.341 49.4318C414.341 49.8598 414.263 50.2784 414.108 50.6875C413.956 51.0928 413.691 51.5455 413.312 52.0455C412.938 52.5417 412.417 53.1477 411.75 53.8636L409.136 56.6591V56.75H414.545V58H407.205Z" fill="black"/>
<path d="M247.358 225.455L251.676 237.699H251.847L256.165 225.455H258.011L252.67 240H250.852L245.511 225.455H247.358ZM263.608 240.227C262.557 240.227 261.65 239.995 260.888 239.531C260.13 239.062 259.545 238.409 259.134 237.571C258.726 236.728 258.523 235.748 258.523 234.631C258.523 233.513 258.726 232.528 259.134 231.676C259.545 230.819 260.118 230.152 260.852 229.673C261.591 229.19 262.453 228.949 263.438 228.949C264.006 228.949 264.567 229.044 265.121 229.233C265.675 229.422 266.179 229.73 266.634 230.156C267.088 230.578 267.45 231.136 267.72 231.832C267.99 232.528 268.125 233.385 268.125 234.403V235.114H259.716V233.665H266.42C266.42 233.049 266.297 232.5 266.051 232.017C265.81 231.534 265.464 231.153 265.014 230.874C264.569 230.594 264.044 230.455 263.438 230.455C262.77 230.455 262.192 230.62 261.705 230.952C261.222 231.278 260.85 231.705 260.589 232.23C260.329 232.756 260.199 233.319 260.199 233.92V234.886C260.199 235.71 260.341 236.409 260.625 236.982C260.914 237.55 261.314 237.983 261.825 238.281C262.337 238.575 262.931 238.722 263.608 238.722C264.048 238.722 264.446 238.66 264.801 238.537C265.161 238.409 265.471 238.22 265.732 237.969C265.992 237.713 266.193 237.396 266.335 237.017L267.955 237.472C267.784 238.021 267.498 238.504 267.095 238.92C266.693 239.332 266.196 239.654 265.604 239.886C265.012 240.114 264.347 240.227 263.608 240.227ZM275.419 229.091V230.511H269.766V229.091H275.419ZM271.413 226.477H273.089V236.875C273.089 237.348 273.158 237.704 273.295 237.94C273.438 238.172 273.617 238.329 273.835 238.409C274.058 238.485 274.292 238.523 274.538 238.523C274.723 238.523 274.875 238.513 274.993 238.494C275.111 238.471 275.206 238.452 275.277 238.438L275.618 239.943C275.504 239.986 275.346 240.028 275.142 240.071C274.938 240.118 274.68 240.142 274.368 240.142C273.894 240.142 273.43 240.04 272.976 239.837C272.526 239.633 272.152 239.323 271.854 238.906C271.56 238.49 271.413 237.964 271.413 237.33V226.477ZM282.255 240.227C281.27 240.227 280.406 239.993 279.663 239.524C278.924 239.055 278.346 238.4 277.93 237.557C277.518 236.714 277.312 235.729 277.312 234.602C277.312 233.466 277.518 232.474 277.93 231.626C278.346 230.779 278.924 230.121 279.663 229.652C280.406 229.183 281.27 228.949 282.255 228.949C283.24 228.949 284.102 229.183 284.84 229.652C285.584 230.121 286.161 230.779 286.573 231.626C286.99 232.474 287.198 233.466 287.198 234.602C287.198 235.729 286.99 236.714 286.573 237.557C286.161 238.4 285.584 239.055 284.84 239.524C284.102 239.993 283.24 240.227 282.255 240.227ZM282.255 238.722C283.003 238.722 283.619 238.53 284.102 238.146C284.585 237.763 284.942 237.259 285.174 236.634C285.406 236.009 285.522 235.331 285.522 234.602C285.522 233.873 285.406 233.194 285.174 232.564C284.942 231.934 284.585 231.425 284.102 231.037C283.619 230.649 283.003 230.455 282.255 230.455C281.507 230.455 280.891 230.649 280.408 231.037C279.925 231.425 279.568 231.934 279.336 232.564C279.104 233.194 278.988 233.873 278.988 234.602C278.988 235.331 279.104 236.009 279.336 236.634C279.568 237.259 279.925 237.763 280.408 238.146C280.891 238.53 281.507 238.722 282.255 238.722ZM289.757 240V229.091H291.376V230.739H291.49C291.689 230.199 292.048 229.761 292.569 229.425C293.09 229.089 293.677 228.92 294.331 228.92C294.454 228.92 294.608 228.923 294.792 228.928C294.977 228.932 295.117 228.939 295.211 228.949V230.653C295.154 230.639 295.024 230.618 294.821 230.589C294.622 230.556 294.411 230.54 294.189 230.54C293.658 230.54 293.185 230.651 292.768 230.874C292.356 231.091 292.029 231.394 291.788 231.783C291.551 232.166 291.433 232.604 291.433 233.097V240H289.757ZM307.681 229.091V230.511H301.8V229.091H307.681ZM303.562 240V227.585C303.562 226.96 303.709 226.439 304.002 226.023C304.296 225.606 304.677 225.294 305.146 225.085C305.614 224.877 306.109 224.773 306.63 224.773C307.042 224.773 307.378 224.806 307.638 224.872C307.899 224.938 308.093 225 308.221 225.057L307.738 226.506C307.653 226.477 307.534 226.442 307.383 226.399C307.236 226.357 307.042 226.335 306.8 226.335C306.246 226.335 305.846 226.475 305.6 226.754C305.359 227.034 305.238 227.443 305.238 227.983V240H303.562ZM310.03 240V229.091H311.706V240H310.03ZM310.882 227.273C310.556 227.273 310.274 227.161 310.037 226.939C309.805 226.716 309.689 226.449 309.689 226.136C309.689 225.824 309.805 225.556 310.037 225.334C310.274 225.111 310.556 225 310.882 225C311.209 225 311.489 225.111 311.721 225.334C311.957 225.556 312.076 225.824 312.076 226.136C312.076 226.449 311.957 226.716 311.721 226.939C311.489 227.161 311.209 227.273 310.882 227.273ZM316.452 233.438V240H314.776V229.091H316.396V230.795H316.538C316.793 230.241 317.182 229.796 317.702 229.46C318.223 229.119 318.896 228.949 319.719 228.949C320.458 228.949 321.104 229.1 321.658 229.403C322.212 229.702 322.643 230.156 322.951 230.767C323.259 231.373 323.413 232.14 323.413 233.068V240H321.737V233.182C321.737 232.325 321.514 231.657 321.069 231.179C320.624 230.696 320.013 230.455 319.237 230.455C318.701 230.455 318.223 230.571 317.802 230.803C317.385 231.035 317.056 231.373 316.815 231.818C316.573 232.263 316.452 232.803 316.452 233.438ZM329.686 240.256C328.994 240.256 328.367 240.125 327.804 239.865C327.24 239.6 326.793 239.219 326.461 238.722C326.13 238.22 325.964 237.614 325.964 236.903C325.964 236.278 326.087 235.772 326.333 235.384C326.58 234.991 326.909 234.683 327.321 234.46C327.733 234.238 328.187 234.072 328.684 233.963C329.186 233.849 329.69 233.759 330.197 233.693C330.86 233.608 331.397 233.544 331.809 233.501C332.226 233.454 332.529 233.376 332.718 233.267C332.913 233.158 333.01 232.969 333.01 232.699V232.642C333.01 231.941 332.818 231.397 332.434 231.009C332.056 230.62 331.48 230.426 330.708 230.426C329.908 230.426 329.281 230.601 328.826 230.952C328.372 231.302 328.052 231.676 327.868 232.074L326.277 231.506C326.561 230.843 326.94 230.327 327.413 229.957C327.891 229.583 328.412 229.323 328.975 229.176C329.544 229.025 330.102 228.949 330.652 228.949C331.002 228.949 331.404 228.991 331.859 229.077C332.318 229.157 332.761 229.325 333.187 229.581C333.618 229.837 333.975 230.223 334.26 230.739C334.544 231.255 334.686 231.946 334.686 232.812V240H333.01V238.523H332.924C332.811 238.759 332.621 239.013 332.356 239.283C332.091 239.553 331.738 239.782 331.298 239.972C330.858 240.161 330.32 240.256 329.686 240.256ZM329.941 238.75C330.604 238.75 331.163 238.62 331.618 238.359C332.077 238.099 332.422 237.763 332.654 237.351C332.891 236.939 333.01 236.506 333.01 236.051V234.517C332.939 234.602 332.782 234.68 332.541 234.751C332.304 234.818 332.029 234.877 331.717 234.929C331.409 234.976 331.109 235.019 330.815 235.057C330.526 235.09 330.292 235.118 330.112 235.142C329.676 235.199 329.269 235.291 328.89 235.419C328.516 235.542 328.213 235.729 327.981 235.98C327.754 236.226 327.64 236.562 327.64 236.989C327.64 237.571 327.856 238.011 328.287 238.31C328.722 238.603 329.274 238.75 329.941 238.75ZM339.421 225.455V240H337.745V225.455H339.421ZM348.798 232.983V231.449H357.548V232.983H348.798ZM348.798 237.188V235.653H357.548V237.188H348.798ZM366.129 233.892V233.011C366.92 233.011 367.472 232.846 367.784 232.514C368.101 232.183 368.26 231.629 368.26 230.852V228.58C368.26 227.926 368.321 227.36 368.445 226.882C368.572 226.404 368.778 226.009 369.062 225.696C369.347 225.384 369.725 225.152 370.199 225C370.672 224.848 371.257 224.773 371.953 224.773V226.165C371.404 226.165 370.971 226.25 370.653 226.42C370.341 226.591 370.118 226.856 369.986 227.216C369.858 227.571 369.794 228.026 369.794 228.58V231.42C369.794 231.79 369.744 232.126 369.645 232.429C369.55 232.732 369.373 232.992 369.112 233.21C368.852 233.428 368.48 233.596 367.997 233.714C367.519 233.833 366.896 233.892 366.129 233.892ZM371.953 242.955C371.257 242.955 370.672 242.879 370.199 242.727C369.725 242.576 369.347 242.344 369.062 242.031C368.778 241.719 368.572 241.323 368.445 240.845C368.321 240.367 368.26 239.801 368.26 239.148V236.875C368.26 236.098 368.101 235.545 367.784 235.213C367.472 234.882 366.92 234.716 366.129 234.716V233.835C366.896 233.835 367.519 233.894 367.997 234.013C368.48 234.131 368.852 234.299 369.112 234.517C369.373 234.735 369.55 234.995 369.645 235.298C369.744 235.601 369.794 235.937 369.794 236.307V239.148C369.794 239.702 369.858 240.156 369.986 240.511C370.118 240.866 370.341 241.129 370.653 241.3C370.971 241.475 371.404 241.562 371.953 241.562V242.955ZM366.129 234.716V233.011H367.805V234.716H366.129ZM391.623 233.835V234.716C390.832 234.716 390.278 234.882 389.961 235.213C389.648 235.545 389.492 236.098 389.492 236.875V239.148C389.492 239.801 389.428 240.367 389.3 240.845C389.177 241.323 388.974 241.719 388.69 242.031C388.406 242.344 388.027 242.576 387.553 242.727C387.08 242.879 386.495 242.955 385.799 242.955V241.562C386.348 241.562 386.779 241.475 387.092 241.3C387.409 241.129 387.631 240.866 387.759 240.511C387.892 240.156 387.958 239.702 387.958 239.148V236.307C387.958 235.937 388.005 235.601 388.1 235.298C388.2 234.995 388.379 234.735 388.64 234.517C388.9 234.299 389.27 234.131 389.748 234.013C390.231 233.894 390.856 233.835 391.623 233.835ZM385.799 224.773C386.495 224.773 387.08 224.848 387.553 225C388.027 225.152 388.406 225.384 388.69 225.696C388.974 226.009 389.177 226.404 389.3 226.882C389.428 227.36 389.492 227.926 389.492 228.58V230.852C389.492 231.629 389.648 232.183 389.961 232.514C390.278 232.846 390.832 233.011 391.623 233.011V233.892C390.856 233.892 390.231 233.833 389.748 233.714C389.27 233.596 388.9 233.428 388.64 233.21C388.379 232.992 388.2 232.732 388.1 232.429C388.005 232.126 387.958 231.79 387.958 231.42V228.58C387.958 228.026 387.892 227.571 387.759 227.216C387.631 226.856 387.409 226.591 387.092 226.42C386.779 226.25 386.348 226.165 385.799 226.165V224.773ZM391.623 233.011V234.716H389.947V233.011H391.623Z" fill="black"/>
<path d="M378.972 240.199C378.375 240.189 377.779 240.076 377.182 239.858C376.586 239.64 376.041 239.273 375.549 238.757C375.056 238.236 374.661 237.533 374.363 236.648C374.064 235.758 373.915 234.64 373.915 233.295C373.915 232.008 374.036 230.866 374.277 229.872C374.519 228.873 374.869 228.033 375.328 227.351C375.788 226.664 376.342 226.143 376.99 225.788C377.644 225.433 378.38 225.256 379.199 225.256C380.014 225.256 380.738 225.419 381.373 225.746C382.012 226.068 382.533 226.518 382.935 227.095C383.337 227.673 383.598 228.338 383.716 229.091H381.983C381.822 228.437 381.51 227.895 381.046 227.464C380.582 227.034 379.966 226.818 379.199 226.818C378.072 226.818 377.185 227.308 376.536 228.288C375.892 229.268 375.568 230.644 375.563 232.415H375.676C375.942 232.012 376.257 231.669 376.621 231.385C376.99 231.096 377.398 230.874 377.843 230.717C378.288 230.561 378.759 230.483 379.256 230.483C380.089 230.483 380.852 230.691 381.543 231.108C382.234 231.52 382.788 232.09 383.205 232.82C383.622 233.544 383.83 234.375 383.83 235.312C383.83 236.212 383.629 237.036 383.226 237.784C382.824 238.527 382.258 239.119 381.529 239.56C380.804 239.995 379.952 240.208 378.972 240.199ZM378.972 238.636C379.569 238.636 380.104 238.487 380.577 238.189C381.055 237.891 381.432 237.491 381.706 236.989C381.986 236.487 382.125 235.928 382.125 235.312C382.125 234.711 381.99 234.164 381.721 233.672C381.455 233.175 381.088 232.779 380.62 232.486C380.156 232.192 379.625 232.045 379.029 232.045C378.579 232.045 378.16 232.135 377.772 232.315C377.383 232.491 377.042 232.732 376.749 233.04C376.46 233.348 376.233 233.7 376.067 234.098C375.901 234.491 375.819 234.905 375.819 235.341C375.819 235.919 375.953 236.458 376.223 236.96C376.498 237.462 376.872 237.867 377.346 238.175C377.824 238.482 378.366 238.636 378.972 238.636Z" fill="#00A538"/>
<path d="M472.295 46.3636V58H470.886V47.8409H470.818L467.977 49.7273V48.2955L470.886 46.3636H472.295Z" fill="black"/>
<path d="M165.227 106.557V107.807H160.136V106.557H165.227ZM171.655 101.364V113H170.246V102.841H170.178L167.337 104.727V103.295L170.246 101.364H171.655Z" fill="#00A538"/>
<path d="M226.227 106.557V107.807H221.136V106.557H226.227ZM232.655 101.364V113H231.246V102.841H231.178L228.337 104.727V103.295L231.246 101.364H232.655Z" fill="#00A538"/>
<path d="M287.227 106.557V107.807H282.136V106.557H287.227ZM293.655 101.364V113H292.246V102.841H292.178L289.337 104.727V103.295L292.246 101.364H293.655Z" fill="#00A538"/>
<path d="M348.227 106.557V107.807H343.136V106.557H348.227ZM354.655 101.364V113H353.246V102.841H353.178L350.337 104.727V103.295L353.246 101.364H354.655Z" fill="#00A538"/>
<path d="M408.227 106.557V107.807H403.136V106.557H408.227ZM414.655 101.364V113H413.246V102.841H413.178L410.337 104.727V103.295L413.246 101.364H414.655Z" fill="#00A538"/>
<path d="M469.227 106.557V107.807H464.136V106.557H469.227ZM475.655 101.364V113H474.246V102.841H474.178L471.337 104.727V103.295L474.246 101.364H475.655Z" fill="#00A538"/>
<line x1="136.5" y1="22" x2="136.5" y2="84" stroke="black"/>
<line x1="501.5" y1="21" x2="501.5" y2="83" stroke="black"/>
<path d="M163.932 166.614V165.455L169.045 157.364H169.886V159.159H169.318L165.455 165.273V165.364H172.341V166.614H163.932ZM169.409 169V166.261V165.722V157.364H170.75V169H169.409Z" fill="black"/>
<line x1="136" y1="194.5" x2="502" y2="194.5" stroke="black"/>
<line x1="136" y1="132.5" x2="502" y2="132.5" stroke="black"/>
<path d="M224.932 166.614V165.455L230.045 157.364H230.886V159.159H230.318L226.455 165.273V165.364H233.341V166.614H224.932ZM230.409 169V166.261V165.722V157.364H231.75V169H230.409Z" fill="black"/>
<path d="M290.136 169.159C289.386 169.159 288.718 169.03 288.131 168.773C287.547 168.515 287.083 168.157 286.739 167.699C286.398 167.237 286.212 166.701 286.182 166.091H287.614C287.644 166.466 287.773 166.79 288 167.062C288.227 167.331 288.525 167.54 288.892 167.688C289.259 167.835 289.667 167.909 290.114 167.909C290.614 167.909 291.057 167.822 291.443 167.648C291.83 167.473 292.133 167.231 292.352 166.92C292.572 166.61 292.682 166.25 292.682 165.841C292.682 165.413 292.576 165.036 292.364 164.71C292.152 164.381 291.841 164.123 291.432 163.938C291.023 163.752 290.523 163.659 289.932 163.659H289V162.409H289.932C290.394 162.409 290.799 162.326 291.148 162.159C291.5 161.992 291.775 161.758 291.972 161.455C292.172 161.152 292.273 160.795 292.273 160.386C292.273 159.992 292.186 159.65 292.011 159.358C291.837 159.066 291.591 158.839 291.273 158.676C290.958 158.513 290.587 158.432 290.159 158.432C289.758 158.432 289.379 158.506 289.023 158.653C288.67 158.797 288.383 159.008 288.159 159.284C287.936 159.557 287.814 159.886 287.795 160.273H286.432C286.455 159.663 286.638 159.129 286.983 158.67C287.328 158.208 287.778 157.848 288.335 157.591C288.896 157.333 289.511 157.205 290.182 157.205C290.902 157.205 291.519 157.35 292.034 157.642C292.549 157.93 292.945 158.311 293.222 158.784C293.498 159.258 293.636 159.769 293.636 160.318C293.636 160.973 293.464 161.532 293.119 161.994C292.778 162.456 292.314 162.777 291.727 162.955V163.045C292.462 163.167 293.036 163.479 293.449 163.983C293.862 164.483 294.068 165.102 294.068 165.841C294.068 166.473 293.896 167.042 293.551 167.545C293.21 168.045 292.744 168.439 292.153 168.727C291.563 169.015 290.89 169.159 290.136 169.159Z" fill="black"/>
<path d="M347.205 169V167.977L351.045 163.773C351.496 163.28 351.867 162.852 352.159 162.489C352.451 162.121 352.667 161.777 352.807 161.455C352.951 161.129 353.023 160.788 353.023 160.432C353.023 160.023 352.924 159.669 352.727 159.369C352.534 159.07 352.269 158.839 351.932 158.676C351.595 158.513 351.216 158.432 350.795 158.432C350.348 158.432 349.958 158.525 349.625 158.71C349.295 158.892 349.04 159.148 348.858 159.477C348.68 159.807 348.591 160.193 348.591 160.636H347.25C347.25 159.955 347.407 159.356 347.722 158.841C348.036 158.326 348.464 157.924 349.006 157.636C349.551 157.348 350.163 157.205 350.841 157.205C351.523 157.205 352.127 157.348 352.653 157.636C353.18 157.924 353.593 158.312 353.892 158.801C354.191 159.29 354.341 159.833 354.341 160.432C354.341 160.86 354.263 161.278 354.108 161.688C353.956 162.093 353.691 162.545 353.312 163.045C352.938 163.542 352.417 164.148 351.75 164.864L349.136 167.659V167.75H354.545V169H347.205Z" fill="black"/>
<path d="M411.295 157.364V169H409.886V158.841H409.818L406.977 160.727V159.295L409.886 157.364H411.295Z" fill="black"/>
<path d="M472 169.159C471.144 169.159 470.415 168.926 469.812 168.46C469.21 167.991 468.75 167.311 468.432 166.42C468.114 165.527 467.955 164.447 467.955 163.182C467.955 161.924 468.114 160.85 468.432 159.96C468.754 159.066 469.216 158.384 469.818 157.915C470.424 157.441 471.152 157.205 472 157.205C472.848 157.205 473.574 157.441 474.176 157.915C474.782 158.384 475.244 159.066 475.562 159.96C475.884 160.85 476.045 161.924 476.045 163.182C476.045 164.447 475.886 165.527 475.568 166.42C475.25 167.311 474.79 167.991 474.188 168.46C473.585 168.926 472.856 169.159 472 169.159ZM472 167.909C472.848 167.909 473.508 167.5 473.977 166.682C474.447 165.864 474.682 164.697 474.682 163.182C474.682 162.174 474.574 161.316 474.358 160.608C474.146 159.9 473.839 159.36 473.438 158.989C473.04 158.617 472.561 158.432 472 158.432C471.159 158.432 470.502 158.847 470.028 159.676C469.555 160.502 469.318 161.67 469.318 163.182C469.318 164.189 469.424 165.045 469.636 165.75C469.848 166.455 470.153 166.991 470.551 167.358C470.953 167.725 471.436 167.909 472 167.909Z" fill="black"/>
<line x1="136.5" y1="133" x2="136.5" y2="195" stroke="black"/>
<line x1="501.5" y1="132" x2="501.5" y2="194" stroke="black"/>
<path d="M595.707 52.7071C596.098 52.3166 596.098 51.6834 595.707 51.2929L589.343 44.9289C588.953 44.5384 588.319 44.5384 587.929 44.9289C587.538 45.3195 587.538 45.9526 587.929 46.3431L593.586 52L587.929 57.6569C587.538 58.0474 587.538 58.6805 587.929 59.0711C588.319 59.4616 588.953 59.4616 589.343 59.0711L595.707 52.7071ZM553 53H595V51H553V53Z" fill="black"/>
<line x1="554" y1="52" x2="554" y2="163" stroke="black" stroke-width="2"/>
<line x1="555" y1="164" x2="521" y2="164" stroke="black" stroke-width="2"/>
</svg>
