<svg width="367" height="309" viewBox="0 0 367 309" fill="none" xmlns="http://www.w3.org/2000/svg">
<circle cx="31" cy="32" r="28" fill="#D9D9D9"/>
<circle cx="31" cy="93" r="28" fill="#D9D9D9"/>
<circle cx="92" cy="93" r="28" fill="#D9D9D9"/>
<circle cx="31" cy="154" r="28" fill="#D9D9D9"/>
<circle cx="31" cy="215" r="28" fill="#D9D9D9"/>
<circle cx="31" cy="276" r="28" fill="#D9D9D9"/>
<circle cx="92" cy="276" r="28" fill="#D9D9D9"/>
<circle cx="92" cy="215" r="28" fill="#D9D9D9"/>
<circle cx="153" cy="215" r="28" fill="#D9D9D9"/>
<circle cx="214" cy="215" r="28" fill="#D9D9D9"/>
<circle cx="275" cy="215" r="28" fill="#D9D9D9"/>
<circle cx="92" cy="154" r="28" fill="#D9D9D9"/>
<circle cx="153" cy="154" r="28" fill="#D9D9D9"/>
<circle cx="214" cy="154" r="28" fill="#D9D9D9"/>
<circle cx="153" cy="276" r="28" fill="#D9D9D9"/>
<circle cx="214" cy="32" r="28" fill="#D9D9D9"/>
<circle cx="275" cy="32" r="28" fill="#D9D9D9"/>
<circle cx="336" cy="32" r="28" fill="#D9D9D9"/>
<circle cx="153" cy="32" r="28" fill="#D9D9D9"/>
<circle cx="92" cy="32" r="28" fill="#D9D9D9"/>
<line y1="62.5" x2="366" y2="62.5" stroke="black"/>
<line y1="0.5" x2="366" y2="0.5" stroke="black"/>
<line y1="123.5" x2="366" y2="123.5" stroke="black"/>
<line y1="184.5" x2="366" y2="184.5" stroke="black"/>
<line y1="245.5" x2="366" y2="245.5" stroke="black"/>
<line y1="308.5" x2="366" y2="308.5" stroke="black"/>
<line x1="0.5" y1="1" x2="0.5" y2="309" stroke="black"/>
<line x1="61.5" y1="1" x2="61.5" y2="309" stroke="black"/>
<line x1="122.5" y1="1" x2="122.5" y2="309" stroke="black"/>
<line x1="183.5" y1="1" x2="183.5" y2="309" stroke="black"/>
<line x1="244.5" y1="1" x2="244.5" y2="309" stroke="black"/>
<line x1="305.5" y1="1" x2="305.5" y2="309" stroke="black"/>
<line x1="366.5" x2="366.5" y2="309" stroke="black"/>
</svg>
