<svg width="367" height="309" viewBox="0 0 367 309" fill="none" xmlns="http://www.w3.org/2000/svg">
<circle cx="31" cy="32" r="28" fill="#D9D9D9"/>
<path d="M32.2955 25.3636V37H30.8864V26.8409H30.8182L27.9773 28.7273V27.2955L30.8864 25.3636H32.2955Z" fill="black"/>
<circle cx="31" cy="93" r="28" fill="#D9D9D9"/>
<circle cx="92" cy="93" r="28" fill="#D9D9D9"/>
<circle cx="31" cy="154" r="28" fill="#D9D9D9"/>
<circle cx="31" cy="215" r="28" fill="#D9D9D9"/>
<circle cx="31" cy="276" r="28" fill="#D9D9D9"/>
<circle cx="92" cy="276" r="28" fill="#D9D9D9"/>
<circle cx="92" cy="215" r="28" fill="#D9D9D9"/>
<circle cx="153" cy="215" r="28" fill="#D9D9D9"/>
<circle cx="214" cy="215" r="28" fill="#D9D9D9"/>
<circle cx="275" cy="215" r="28" fill="#D9D9D9"/>
<circle cx="92" cy="154" r="28" fill="#D9D9D9"/>
<circle cx="153" cy="154" r="28" fill="#D9D9D9"/>
<circle cx="214" cy="154" r="28" fill="#D9D9D9"/>
<circle cx="153" cy="276" r="28" fill="#D9D9D9"/>
<circle cx="214" cy="32" r="28" fill="#D9D9D9"/>
<circle cx="275" cy="32" r="28" fill="#D9D9D9"/>
<circle cx="336" cy="32" r="28" fill="#D9D9D9"/>
<circle cx="153" cy="32" r="28" fill="#D9D9D9"/>
<circle cx="92" cy="32" r="28" fill="#D9D9D9"/>
<line y1="62.5" x2="366" y2="62.5" stroke="black"/>
<line y1="0.5" x2="366" y2="0.5" stroke="black"/>
<line y1="123.5" x2="366" y2="123.5" stroke="black"/>
<path d="M93.2955 25.3636V37H91.8864V26.8409H91.8182L88.9773 28.7273V27.2955L91.8864 25.3636H93.2955Z" fill="black"/>
<path d="M154.295 25.3636V37H152.886V26.8409H152.818L149.977 28.7273V27.2955L152.886 25.3636H154.295Z" fill="black"/>
<path d="M215.295 25.3636V37H213.886V26.8409H213.818L210.977 28.7273V27.2955L213.886 25.3636H215.295Z" fill="black"/>
<path d="M275.295 25.3636V37H273.886V26.8409H273.818L270.977 28.7273V27.2955L273.886 25.3636H275.295Z" fill="black"/>
<path d="M336.295 25.3636V37H334.886V26.8409H334.818L331.977 28.7273V27.2955L334.886 25.3636H336.295Z" fill="black"/>
<path d="M32.2955 87.3636V99H30.8864V88.8409H30.8182L27.9773 90.7273V89.2955L30.8864 87.3636H32.2955Z" fill="black"/>
<path d="M93.2955 87.3636V99H91.8864V88.8409H91.8182L88.9773 90.7273V89.2955L91.8864 87.3636H93.2955Z" fill="black"/>
<path d="M153 99.1591C152.144 99.1591 151.415 98.9261 150.812 98.4602C150.21 97.9905 149.75 97.3106 149.432 96.4205C149.114 95.5265 148.955 94.447 148.955 93.1818C148.955 91.9242 149.114 90.8504 149.432 89.9602C149.754 89.0663 150.216 88.3845 150.818 87.9148C151.424 87.4413 152.152 87.2045 153 87.2045C153.848 87.2045 154.574 87.4413 155.176 87.9148C155.782 88.3845 156.244 89.0663 156.562 89.9602C156.884 90.8504 157.045 91.9242 157.045 93.1818C157.045 94.447 156.886 95.5265 156.568 96.4205C156.25 97.3106 155.79 97.9905 155.188 98.4602C154.585 98.9261 153.856 99.1591 153 99.1591ZM153 97.9091C153.848 97.9091 154.508 97.5 154.977 96.6818C155.447 95.8636 155.682 94.697 155.682 93.1818C155.682 92.1742 155.574 91.3163 155.358 90.608C155.146 89.8996 154.839 89.3598 154.438 88.9886C154.04 88.6174 153.561 88.4318 153 88.4318C152.159 88.4318 151.502 88.8466 151.028 89.6761C150.555 90.5019 150.318 91.6705 150.318 93.1818C150.318 94.1894 150.424 95.0455 150.636 95.75C150.848 96.4545 151.153 96.9905 151.551 97.358C151.953 97.7254 152.436 97.9091 153 97.9091Z" fill="black"/>
<path d="M214 99.1591C213.144 99.1591 212.415 98.9261 211.812 98.4602C211.21 97.9905 210.75 97.3106 210.432 96.4205C210.114 95.5265 209.955 94.447 209.955 93.1818C209.955 91.9242 210.114 90.8504 210.432 89.9602C210.754 89.0663 211.216 88.3845 211.818 87.9148C212.424 87.4413 213.152 87.2045 214 87.2045C214.848 87.2045 215.574 87.4413 216.176 87.9148C216.782 88.3845 217.244 89.0663 217.562 89.9602C217.884 90.8504 218.045 91.9242 218.045 93.1818C218.045 94.447 217.886 95.5265 217.568 96.4205C217.25 97.3106 216.79 97.9905 216.188 98.4602C215.585 98.9261 214.856 99.1591 214 99.1591ZM214 97.9091C214.848 97.9091 215.508 97.5 215.977 96.6818C216.447 95.8636 216.682 94.697 216.682 93.1818C216.682 92.1742 216.574 91.3163 216.358 90.608C216.146 89.8996 215.839 89.3598 215.438 88.9886C215.04 88.6174 214.561 88.4318 214 88.4318C213.159 88.4318 212.502 88.8466 212.028 89.6761C211.555 90.5019 211.318 91.6705 211.318 93.1818C211.318 94.1894 211.424 95.0455 211.636 95.75C211.848 96.4545 212.153 96.9905 212.551 97.358C212.953 97.7254 213.436 97.9091 214 97.9091Z" fill="black"/>
<path d="M274 99.1591C273.144 99.1591 272.415 98.9261 271.812 98.4602C271.21 97.9905 270.75 97.3106 270.432 96.4205C270.114 95.5265 269.955 94.447 269.955 93.1818C269.955 91.9242 270.114 90.8504 270.432 89.9602C270.754 89.0663 271.216 88.3845 271.818 87.9148C272.424 87.4413 273.152 87.2045 274 87.2045C274.848 87.2045 275.574 87.4413 276.176 87.9148C276.782 88.3845 277.244 89.0663 277.562 89.9602C277.884 90.8504 278.045 91.9242 278.045 93.1818C278.045 94.447 277.886 95.5265 277.568 96.4205C277.25 97.3106 276.79 97.9905 276.188 98.4602C275.585 98.9261 274.856 99.1591 274 99.1591ZM274 97.9091C274.848 97.9091 275.508 97.5 275.977 96.6818C276.447 95.8636 276.682 94.697 276.682 93.1818C276.682 92.1742 276.574 91.3163 276.358 90.608C276.146 89.8996 275.839 89.3598 275.438 88.9886C275.04 88.6174 274.561 88.4318 274 88.4318C273.159 88.4318 272.502 88.8466 272.028 89.6761C271.555 90.5019 271.318 91.6705 271.318 93.1818C271.318 94.1894 271.424 95.0455 271.636 95.75C271.848 96.4545 272.153 96.9905 272.551 97.358C272.953 97.7254 273.436 97.9091 274 97.9091Z" fill="black"/>
<path d="M335 99.1591C334.144 99.1591 333.415 98.9261 332.812 98.4602C332.21 97.9905 331.75 97.3106 331.432 96.4205C331.114 95.5265 330.955 94.447 330.955 93.1818C330.955 91.9242 331.114 90.8504 331.432 89.9602C331.754 89.0663 332.216 88.3845 332.818 87.9148C333.424 87.4413 334.152 87.2045 335 87.2045C335.848 87.2045 336.574 87.4413 337.176 87.9148C337.782 88.3845 338.244 89.0663 338.562 89.9602C338.884 90.8504 339.045 91.9242 339.045 93.1818C339.045 94.447 338.886 95.5265 338.568 96.4205C338.25 97.3106 337.79 97.9905 337.188 98.4602C336.585 98.9261 335.856 99.1591 335 99.1591ZM335 97.9091C335.848 97.9091 336.508 97.5 336.977 96.6818C337.447 95.8636 337.682 94.697 337.682 93.1818C337.682 92.1742 337.574 91.3163 337.358 90.608C337.146 89.8996 336.839 89.3598 336.438 88.9886C336.04 88.6174 335.561 88.4318 335 88.4318C334.159 88.4318 333.502 88.8466 333.028 89.6761C332.555 90.5019 332.318 91.6705 332.318 93.1818C332.318 94.1894 332.424 95.0455 332.636 95.75C332.848 96.4545 333.153 96.9905 333.551 97.358C333.953 97.7254 334.436 97.9091 335 97.9091Z" fill="black"/>
<path d="M32.2955 147.364V159H30.8864V148.841H30.8182L27.9773 150.727V149.295L30.8864 147.364H32.2955Z" fill="black"/>
<path d="M93.2955 147.364V159H91.8864V148.841H91.8182L88.9773 150.727V149.295L91.8864 147.364H93.2955Z" fill="black"/>
<path d="M154.295 147.364V159H152.886V148.841H152.818L149.977 150.727V149.295L152.886 147.364H154.295Z" fill="black"/>
<path d="M215.295 147.364V159H213.886V148.841H213.818L210.977 150.727V149.295L213.886 147.364H215.295Z" fill="black"/>
<path d="M274 159.159C273.144 159.159 272.415 158.926 271.812 158.46C271.21 157.991 270.75 157.311 270.432 156.42C270.114 155.527 269.955 154.447 269.955 153.182C269.955 151.924 270.114 150.85 270.432 149.96C270.754 149.066 271.216 148.384 271.818 147.915C272.424 147.441 273.152 147.205 274 147.205C274.848 147.205 275.574 147.441 276.176 147.915C276.782 148.384 277.244 149.066 277.562 149.96C277.884 150.85 278.045 151.924 278.045 153.182C278.045 154.447 277.886 155.527 277.568 156.42C277.25 157.311 276.79 157.991 276.188 158.46C275.585 158.926 274.856 159.159 274 159.159ZM274 157.909C274.848 157.909 275.508 157.5 275.977 156.682C276.447 155.864 276.682 154.697 276.682 153.182C276.682 152.174 276.574 151.316 276.358 150.608C276.146 149.9 275.839 149.36 275.438 148.989C275.04 148.617 274.561 148.432 274 148.432C273.159 148.432 272.502 148.847 272.028 149.676C271.555 150.502 271.318 151.67 271.318 153.182C271.318 154.189 271.424 155.045 271.636 155.75C271.848 156.455 272.153 156.991 272.551 157.358C272.953 157.725 273.436 157.909 274 157.909Z" fill="black"/>
<path d="M335 159.159C334.144 159.159 333.415 158.926 332.812 158.46C332.21 157.991 331.75 157.311 331.432 156.42C331.114 155.527 330.955 154.447 330.955 153.182C330.955 151.924 331.114 150.85 331.432 149.96C331.754 149.066 332.216 148.384 332.818 147.915C333.424 147.441 334.152 147.205 335 147.205C335.848 147.205 336.574 147.441 337.176 147.915C337.782 148.384 338.244 149.066 338.562 149.96C338.884 150.85 339.045 151.924 339.045 153.182C339.045 154.447 338.886 155.527 338.568 156.42C338.25 157.311 337.79 157.991 337.188 158.46C336.585 158.926 335.856 159.159 335 159.159ZM335 157.909C335.848 157.909 336.508 157.5 336.977 156.682C337.447 155.864 337.682 154.697 337.682 153.182C337.682 152.174 337.574 151.316 337.358 150.608C337.146 149.9 336.839 149.36 336.438 148.989C336.04 148.617 335.561 148.432 335 148.432C334.159 148.432 333.502 148.847 333.028 149.676C332.555 150.502 332.318 151.67 332.318 153.182C332.318 154.189 332.424 155.045 332.636 155.75C332.848 156.455 333.153 156.991 333.551 157.358C333.953 157.725 334.436 157.909 335 157.909Z" fill="black"/>
<path d="M32.2955 209.364V221H30.8864V210.841H30.8182L27.9773 212.727V211.295L30.8864 209.364H32.2955Z" fill="black"/>
<path d="M93.2955 209.364V221H91.8864V210.841H91.8182L88.9773 212.727V211.295L91.8864 209.364H93.2955Z" fill="black"/>
<path d="M154.295 209.364V221H152.886V210.841H152.818L149.977 212.727V211.295L152.886 209.364H154.295Z" fill="black"/>
<path d="M215.295 209.364V221H213.886V210.841H213.818L210.977 212.727V211.295L213.886 209.364H215.295Z" fill="black"/>
<path d="M275.295 209.364V221H273.886V210.841H273.818L270.977 212.727V211.295L273.886 209.364H275.295Z" fill="black"/>
<path d="M335 221.159C334.144 221.159 333.415 220.926 332.812 220.46C332.21 219.991 331.75 219.311 331.432 218.42C331.114 217.527 330.955 216.447 330.955 215.182C330.955 213.924 331.114 212.85 331.432 211.96C331.754 211.066 332.216 210.384 332.818 209.915C333.424 209.441 334.152 209.205 335 209.205C335.848 209.205 336.574 209.441 337.176 209.915C337.782 210.384 338.244 211.066 338.562 211.96C338.884 212.85 339.045 213.924 339.045 215.182C339.045 216.447 338.886 217.527 338.568 218.42C338.25 219.311 337.79 219.991 337.188 220.46C336.585 220.926 335.856 221.159 335 221.159ZM335 219.909C335.848 219.909 336.508 219.5 336.977 218.682C337.447 217.864 337.682 216.697 337.682 215.182C337.682 214.174 337.574 213.316 337.358 212.608C337.146 211.9 336.839 211.36 336.438 210.989C336.04 210.617 335.561 210.432 335 210.432C334.159 210.432 333.502 210.847 333.028 211.676C332.555 212.502 332.318 213.67 332.318 215.182C332.318 216.189 332.424 217.045 332.636 217.75C332.848 218.455 333.153 218.991 333.551 219.358C333.953 219.725 334.436 219.909 335 219.909Z" fill="black"/>
<path d="M32.2955 271.364V283H30.8864V272.841H30.8182L27.9773 274.727V273.295L30.8864 271.364H32.2955Z" fill="black"/>
<path d="M93.2955 271.364V283H91.8864V272.841H91.8182L88.9773 274.727V273.295L91.8864 271.364H93.2955Z" fill="black"/>
<path d="M154.295 271.364V283H152.886V272.841H152.818L149.977 274.727V273.295L152.886 271.364H154.295Z" fill="black"/>
<path d="M214 283.159C213.144 283.159 212.415 282.926 211.812 282.46C211.21 281.991 210.75 281.311 210.432 280.42C210.114 279.527 209.955 278.447 209.955 277.182C209.955 275.924 210.114 274.85 210.432 273.96C210.754 273.066 211.216 272.384 211.818 271.915C212.424 271.441 213.152 271.205 214 271.205C214.848 271.205 215.574 271.441 216.176 271.915C216.782 272.384 217.244 273.066 217.562 273.96C217.884 274.85 218.045 275.924 218.045 277.182C218.045 278.447 217.886 279.527 217.568 280.42C217.25 281.311 216.79 281.991 216.188 282.46C215.585 282.926 214.856 283.159 214 283.159ZM214 281.909C214.848 281.909 215.508 281.5 215.977 280.682C216.447 279.864 216.682 278.697 216.682 277.182C216.682 276.174 216.574 275.316 216.358 274.608C216.146 273.9 215.839 273.36 215.438 272.989C215.04 272.617 214.561 272.432 214 272.432C213.159 272.432 212.502 272.847 212.028 273.676C211.555 274.502 211.318 275.67 211.318 277.182C211.318 278.189 211.424 279.045 211.636 279.75C211.848 280.455 212.153 280.991 212.551 281.358C212.953 281.725 213.436 281.909 214 281.909Z" fill="black"/>
<path d="M274 283.159C273.144 283.159 272.415 282.926 271.812 282.46C271.21 281.991 270.75 281.311 270.432 280.42C270.114 279.527 269.955 278.447 269.955 277.182C269.955 275.924 270.114 274.85 270.432 273.96C270.754 273.066 271.216 272.384 271.818 271.915C272.424 271.441 273.152 271.205 274 271.205C274.848 271.205 275.574 271.441 276.176 271.915C276.782 272.384 277.244 273.066 277.562 273.96C277.884 274.85 278.045 275.924 278.045 277.182C278.045 278.447 277.886 279.527 277.568 280.42C277.25 281.311 276.79 281.991 276.188 282.46C275.585 282.926 274.856 283.159 274 283.159ZM274 281.909C274.848 281.909 275.508 281.5 275.977 280.682C276.447 279.864 276.682 278.697 276.682 277.182C276.682 276.174 276.574 275.316 276.358 274.608C276.146 273.9 275.839 273.36 275.438 272.989C275.04 272.617 274.561 272.432 274 272.432C273.159 272.432 272.502 272.847 272.028 273.676C271.555 274.502 271.318 275.67 271.318 277.182C271.318 278.189 271.424 279.045 271.636 279.75C271.848 280.455 272.153 280.991 272.551 281.358C272.953 281.725 273.436 281.909 274 281.909Z" fill="black"/>
<path d="M335 283.159C334.144 283.159 333.415 282.926 332.812 282.46C332.21 281.991 331.75 281.311 331.432 280.42C331.114 279.527 330.955 278.447 330.955 277.182C330.955 275.924 331.114 274.85 331.432 273.96C331.754 273.066 332.216 272.384 332.818 271.915C333.424 271.441 334.152 271.205 335 271.205C335.848 271.205 336.574 271.441 337.176 271.915C337.782 272.384 338.244 273.066 338.562 273.96C338.884 274.85 339.045 275.924 339.045 277.182C339.045 278.447 338.886 279.527 338.568 280.42C338.25 281.311 337.79 281.991 337.188 282.46C336.585 282.926 335.856 283.159 335 283.159ZM335 281.909C335.848 281.909 336.508 281.5 336.977 280.682C337.447 279.864 337.682 278.697 337.682 277.182C337.682 276.174 337.574 275.316 337.358 274.608C337.146 273.9 336.839 273.36 336.438 272.989C336.04 272.617 335.561 272.432 335 272.432C334.159 272.432 333.502 272.847 333.028 273.676C332.555 274.502 332.318 275.67 332.318 277.182C332.318 278.189 332.424 279.045 332.636 279.75C332.848 280.455 333.153 280.991 333.551 281.358C333.953 281.725 334.436 281.909 335 281.909Z" fill="black"/>
<line y1="184.5" x2="366" y2="184.5" stroke="black"/>
<line y1="245.5" x2="366" y2="245.5" stroke="black"/>
<line y1="308.5" x2="366" y2="308.5" stroke="black"/>
<line x1="0.5" y1="1" x2="0.5" y2="309" stroke="black"/>
<line x1="61.5" y1="1" x2="61.5" y2="309" stroke="black"/>
<line x1="122.5" y1="1" x2="122.5" y2="309" stroke="black"/>
<line x1="183.5" y1="1" x2="183.5" y2="309" stroke="black"/>
<line x1="244.5" y1="1" x2="244.5" y2="309" stroke="black"/>
<line x1="305.5" y1="1" x2="305.5" y2="309" stroke="black"/>
<line x1="366.5" x2="366.5" y2="309" stroke="black"/>
</svg>
