<svg width="638" height="266" viewBox="0 0 638 266" fill="none" xmlns="http://www.w3.org/2000/svg">
<rect width="638" height="266" fill="#F5F5F5"/>
<path d="M168.295 46.3636V58H166.886V47.8409H166.818L163.977 49.7273V48.2955L166.886 46.3636H168.295Z" fill="black"/>
<line x1="136" y1="83.5" x2="502" y2="83.5" stroke="black"/>
<line x1="136" y1="21.5" x2="502" y2="21.5" stroke="black"/>
<path d="M229.295 46.3636V58H227.886V47.8409H227.818L224.977 49.7273V48.2955L227.886 46.3636H229.295Z" fill="black"/>
<path d="M290 58.1591C289.144 58.1591 288.415 57.9261 287.812 57.4602C287.21 56.9905 286.75 56.3106 286.432 55.4205C286.114 54.5265 285.955 53.447 285.955 52.1818C285.955 50.9242 286.114 49.8504 286.432 48.9602C286.754 48.0663 287.216 47.3845 287.818 46.9148C288.424 46.4413 289.152 46.2045 290 46.2045C290.848 46.2045 291.574 46.4413 292.176 46.9148C292.782 47.3845 293.244 48.0663 293.562 48.9602C293.884 49.8504 294.045 50.9242 294.045 52.1818C294.045 53.447 293.886 54.5265 293.568 55.4205C293.25 56.3106 292.79 56.9905 292.188 57.4602C291.585 57.9261 290.856 58.1591 290 58.1591ZM290 56.9091C290.848 56.9091 291.508 56.5 291.977 55.6818C292.447 54.8636 292.682 53.697 292.682 52.1818C292.682 51.1742 292.574 50.3163 292.358 49.608C292.146 48.8996 291.839 48.3598 291.438 47.9886C291.04 47.6174 290.561 47.4318 290 47.4318C289.159 47.4318 288.502 47.8466 288.028 48.6761C287.555 49.5019 287.318 50.6705 287.318 52.1818C287.318 53.1894 287.424 54.0455 287.636 54.75C287.848 55.4545 288.153 55.9905 288.551 56.358C288.953 56.7254 289.436 56.9091 290 56.9091Z" fill="black"/>
<path d="M351 58.1591C350.144 58.1591 349.415 57.9261 348.812 57.4602C348.21 56.9905 347.75 56.3106 347.432 55.4205C347.114 54.5265 346.955 53.447 346.955 52.1818C346.955 50.9242 347.114 49.8504 347.432 48.9602C347.754 48.0663 348.216 47.3845 348.818 46.9148C349.424 46.4413 350.152 46.2045 351 46.2045C351.848 46.2045 352.574 46.4413 353.176 46.9148C353.782 47.3845 354.244 48.0663 354.562 48.9602C354.884 49.8504 355.045 50.9242 355.045 52.1818C355.045 53.447 354.886 54.5265 354.568 55.4205C354.25 56.3106 353.79 56.9905 353.188 57.4602C352.585 57.9261 351.856 58.1591 351 58.1591ZM351 56.9091C351.848 56.9091 352.508 56.5 352.977 55.6818C353.447 54.8636 353.682 53.697 353.682 52.1818C353.682 51.1742 353.574 50.3163 353.358 49.608C353.146 48.8996 352.839 48.3598 352.438 47.9886C352.04 47.6174 351.561 47.4318 351 47.4318C350.159 47.4318 349.502 47.8466 349.028 48.6761C348.555 49.5019 348.318 50.6705 348.318 52.1818C348.318 53.1894 348.424 54.0455 348.636 54.75C348.848 55.4545 349.153 55.9905 349.551 56.358C349.953 56.7254 350.436 56.9091 351 56.9091Z" fill="black"/>
<path d="M411 58.1591C410.144 58.1591 409.415 57.9261 408.812 57.4602C408.21 56.9905 407.75 56.3106 407.432 55.4205C407.114 54.5265 406.955 53.447 406.955 52.1818C406.955 50.9242 407.114 49.8504 407.432 48.9602C407.754 48.0663 408.216 47.3845 408.818 46.9148C409.424 46.4413 410.152 46.2045 411 46.2045C411.848 46.2045 412.574 46.4413 413.176 46.9148C413.782 47.3845 414.244 48.0663 414.562 48.9602C414.884 49.8504 415.045 50.9242 415.045 52.1818C415.045 53.447 414.886 54.5265 414.568 55.4205C414.25 56.3106 413.79 56.9905 413.188 57.4602C412.585 57.9261 411.856 58.1591 411 58.1591ZM411 56.9091C411.848 56.9091 412.508 56.5 412.977 55.6818C413.447 54.8636 413.682 53.697 413.682 52.1818C413.682 51.1742 413.574 50.3163 413.358 49.608C413.146 48.8996 412.839 48.3598 412.438 47.9886C412.04 47.6174 411.561 47.4318 411 47.4318C410.159 47.4318 409.502 47.8466 409.028 48.6761C408.555 49.5019 408.318 50.6705 408.318 52.1818C408.318 53.1894 408.424 54.0455 408.636 54.75C408.848 55.4545 409.153 55.9905 409.551 56.358C409.953 56.7254 410.436 56.9091 411 56.9091Z" fill="black"/>
<path d="M472 58.1591C471.144 58.1591 470.415 57.9261 469.812 57.4602C469.21 56.9905 468.75 56.3106 468.432 55.4205C468.114 54.5265 467.955 53.447 467.955 52.1818C467.955 50.9242 468.114 49.8504 468.432 48.9602C468.754 48.0663 469.216 47.3845 469.818 46.9148C470.424 46.4413 471.152 46.2045 472 46.2045C472.848 46.2045 473.574 46.4413 474.176 46.9148C474.782 47.3845 475.244 48.0663 475.562 48.9602C475.884 49.8504 476.045 50.9242 476.045 52.1818C476.045 53.447 475.886 54.5265 475.568 55.4205C475.25 56.3106 474.79 56.9905 474.188 57.4602C473.585 57.9261 472.856 58.1591 472 58.1591ZM472 56.9091C472.848 56.9091 473.508 56.5 473.977 55.6818C474.447 54.8636 474.682 53.697 474.682 52.1818C474.682 51.1742 474.574 50.3163 474.358 49.608C474.146 48.8996 473.839 48.3598 473.438 47.9886C473.04 47.6174 472.561 47.4318 472 47.4318C471.159 47.4318 470.502 47.8466 470.028 48.6761C469.555 49.5019 469.318 50.6705 469.318 52.1818C469.318 53.1894 469.424 54.0455 469.636 54.75C469.848 55.4545 470.153 55.9905 470.551 56.358C470.953 56.7254 471.436 56.9091 472 56.9091Z" fill="black"/>
<path d="M201.358 225.455L205.676 237.699H205.847L210.165 225.455H212.011L206.67 240H204.852L199.511 225.455H201.358ZM217.608 240.227C216.557 240.227 215.65 239.995 214.888 239.531C214.13 239.062 213.545 238.409 213.134 237.571C212.726 236.728 212.523 235.748 212.523 234.631C212.523 233.513 212.726 232.528 213.134 231.676C213.545 230.819 214.118 230.152 214.852 229.673C215.591 229.19 216.453 228.949 217.438 228.949C218.006 228.949 218.567 229.044 219.121 229.233C219.675 229.422 220.179 229.73 220.634 230.156C221.088 230.578 221.45 231.136 221.72 231.832C221.99 232.528 222.125 233.385 222.125 234.403V235.114H213.716V233.665H220.42C220.42 233.049 220.297 232.5 220.051 232.017C219.81 231.534 219.464 231.153 219.014 230.874C218.569 230.594 218.044 230.455 217.438 230.455C216.77 230.455 216.192 230.62 215.705 230.952C215.222 231.278 214.85 231.705 214.589 232.23C214.329 232.756 214.199 233.319 214.199 233.92V234.886C214.199 235.71 214.341 236.409 214.625 236.982C214.914 237.55 215.314 237.983 215.825 238.281C216.337 238.575 216.931 238.722 217.608 238.722C218.048 238.722 218.446 238.66 218.801 238.537C219.161 238.409 219.471 238.22 219.732 237.969C219.992 237.713 220.193 237.396 220.335 237.017L221.955 237.472C221.784 238.021 221.498 238.504 221.095 238.92C220.693 239.332 220.196 239.654 219.604 239.886C219.012 240.114 218.347 240.227 217.608 240.227ZM229.419 229.091V230.511H223.766V229.091H229.419ZM225.413 226.477H227.089V236.875C227.089 237.348 227.158 237.704 227.295 237.94C227.438 238.172 227.617 238.329 227.835 238.409C228.058 238.485 228.292 238.523 228.538 238.523C228.723 238.523 228.875 238.513 228.993 238.494C229.111 238.471 229.206 238.452 229.277 238.438L229.618 239.943C229.504 239.986 229.346 240.028 229.142 240.071C228.938 240.118 228.68 240.142 228.368 240.142C227.894 240.142 227.43 240.04 226.976 239.837C226.526 239.633 226.152 239.323 225.854 238.906C225.56 238.49 225.413 237.964 225.413 237.33V226.477ZM236.255 240.227C235.27 240.227 234.406 239.993 233.663 239.524C232.924 239.055 232.346 238.4 231.93 237.557C231.518 236.714 231.312 235.729 231.312 234.602C231.312 233.466 231.518 232.474 231.93 231.626C232.346 230.779 232.924 230.121 233.663 229.652C234.406 229.183 235.27 228.949 236.255 228.949C237.24 228.949 238.102 229.183 238.84 229.652C239.584 230.121 240.161 230.779 240.573 231.626C240.99 232.474 241.198 233.466 241.198 234.602C241.198 235.729 240.99 236.714 240.573 237.557C240.161 238.4 239.584 239.055 238.84 239.524C238.102 239.993 237.24 240.227 236.255 240.227ZM236.255 238.722C237.003 238.722 237.619 238.53 238.102 238.146C238.585 237.763 238.942 237.259 239.174 236.634C239.406 236.009 239.522 235.331 239.522 234.602C239.522 233.873 239.406 233.194 239.174 232.564C238.942 231.934 238.585 231.425 238.102 231.037C237.619 230.649 237.003 230.455 236.255 230.455C235.507 230.455 234.891 230.649 234.408 231.037C233.925 231.425 233.568 231.934 233.336 232.564C233.104 233.194 232.988 233.873 232.988 234.602C232.988 235.331 233.104 236.009 233.336 236.634C233.568 237.259 233.925 237.763 234.408 238.146C234.891 238.53 235.507 238.722 236.255 238.722ZM243.757 240V229.091H245.376V230.739H245.49C245.689 230.199 246.048 229.761 246.569 229.425C247.09 229.089 247.677 228.92 248.331 228.92C248.454 228.92 248.608 228.923 248.792 228.928C248.977 228.932 249.117 228.939 249.211 228.949V230.653C249.154 230.639 249.024 230.618 248.821 230.589C248.622 230.556 248.411 230.54 248.189 230.54C247.658 230.54 247.185 230.651 246.768 230.874C246.356 231.091 246.029 231.394 245.788 231.783C245.551 232.166 245.433 232.604 245.433 233.097V240H243.757ZM261.681 229.091V230.511H255.8V229.091H261.681ZM257.562 240V227.585C257.562 226.96 257.709 226.439 258.002 226.023C258.296 225.606 258.677 225.294 259.146 225.085C259.614 224.877 260.109 224.773 260.63 224.773C261.042 224.773 261.378 224.806 261.638 224.872C261.899 224.938 262.093 225 262.221 225.057L261.738 226.506C261.653 226.477 261.534 226.442 261.383 226.399C261.236 226.357 261.042 226.335 260.8 226.335C260.246 226.335 259.846 226.475 259.6 226.754C259.359 227.034 259.238 227.443 259.238 227.983V240H257.562ZM264.03 240V229.091H265.706V240H264.03ZM264.882 227.273C264.556 227.273 264.274 227.161 264.037 226.939C263.805 226.716 263.689 226.449 263.689 226.136C263.689 225.824 263.805 225.556 264.037 225.334C264.274 225.111 264.556 225 264.882 225C265.209 225 265.489 225.111 265.721 225.334C265.957 225.556 266.076 225.824 266.076 226.136C266.076 226.449 265.957 226.716 265.721 226.939C265.489 227.161 265.209 227.273 264.882 227.273ZM270.452 233.438V240H268.776V229.091H270.396V230.795H270.538C270.793 230.241 271.182 229.796 271.702 229.46C272.223 229.119 272.896 228.949 273.719 228.949C274.458 228.949 275.104 229.1 275.658 229.403C276.212 229.702 276.643 230.156 276.951 230.767C277.259 231.373 277.413 232.14 277.413 233.068V240H275.737V233.182C275.737 232.325 275.514 231.657 275.069 231.179C274.624 230.696 274.013 230.455 273.237 230.455C272.701 230.455 272.223 230.571 271.802 230.803C271.385 231.035 271.056 231.373 270.815 231.818C270.573 232.263 270.452 232.803 270.452 233.438ZM283.686 240.256C282.994 240.256 282.367 240.125 281.804 239.865C281.24 239.6 280.793 239.219 280.461 238.722C280.13 238.22 279.964 237.614 279.964 236.903C279.964 236.278 280.087 235.772 280.333 235.384C280.58 234.991 280.909 234.683 281.321 234.46C281.733 234.238 282.187 234.072 282.684 233.963C283.186 233.849 283.69 233.759 284.197 233.693C284.86 233.608 285.397 233.544 285.809 233.501C286.226 233.454 286.529 233.376 286.718 233.267C286.913 233.158 287.01 232.969 287.01 232.699V232.642C287.01 231.941 286.818 231.397 286.434 231.009C286.056 230.62 285.48 230.426 284.708 230.426C283.908 230.426 283.281 230.601 282.826 230.952C282.372 231.302 282.052 231.676 281.868 232.074L280.277 231.506C280.561 230.843 280.94 230.327 281.413 229.957C281.891 229.583 282.412 229.323 282.975 229.176C283.544 229.025 284.102 228.949 284.652 228.949C285.002 228.949 285.404 228.991 285.859 229.077C286.318 229.157 286.761 229.325 287.187 229.581C287.618 229.837 287.975 230.223 288.26 230.739C288.544 231.255 288.686 231.946 288.686 232.812V240H287.01V238.523H286.924C286.811 238.759 286.621 239.013 286.356 239.283C286.091 239.553 285.738 239.782 285.298 239.972C284.858 240.161 284.32 240.256 283.686 240.256ZM283.941 238.75C284.604 238.75 285.163 238.62 285.618 238.359C286.077 238.099 286.422 237.763 286.654 237.351C286.891 236.939 287.01 236.506 287.01 236.051V234.517C286.939 234.602 286.782 234.68 286.541 234.751C286.304 234.818 286.029 234.877 285.717 234.929C285.409 234.976 285.109 235.019 284.815 235.057C284.526 235.09 284.292 235.118 284.112 235.142C283.676 235.199 283.269 235.291 282.89 235.419C282.516 235.542 282.213 235.729 281.981 235.98C281.754 236.226 281.64 236.562 281.64 236.989C281.64 237.571 281.856 238.011 282.287 238.31C282.722 238.603 283.274 238.75 283.941 238.75ZM293.421 225.455V240H291.745V225.455H293.421ZM302.798 232.983V231.449H311.548V232.983H302.798ZM302.798 237.188V235.653H311.548V237.188H302.798ZM320.129 232.756V231.875C320.92 231.875 321.472 231.709 321.784 231.378C322.101 231.046 322.26 230.492 322.26 229.716V227.443C322.26 226.79 322.321 226.224 322.445 225.746C322.572 225.268 322.778 224.872 323.062 224.56C323.347 224.247 323.725 224.015 324.199 223.864C324.672 223.712 325.257 223.636 325.953 223.636V225.028C325.404 225.028 324.971 225.114 324.653 225.284C324.341 225.455 324.118 225.72 323.986 226.08C323.858 226.435 323.794 226.889 323.794 227.443V230.284C323.794 230.653 323.744 230.99 323.645 231.293C323.55 231.596 323.373 231.856 323.112 232.074C322.852 232.292 322.48 232.46 321.997 232.578C321.519 232.696 320.896 232.756 320.129 232.756ZM325.953 241.818C325.257 241.818 324.672 241.742 324.199 241.591C323.725 241.439 323.347 241.207 323.062 240.895C322.778 240.582 322.572 240.187 322.445 239.709C322.321 239.231 322.26 238.665 322.26 238.011V235.739C322.26 234.962 322.101 234.408 321.784 234.077C321.472 233.745 320.92 233.58 320.129 233.58V232.699C320.896 232.699 321.519 232.758 321.997 232.876C322.48 232.995 322.852 233.163 323.112 233.381C323.373 233.598 323.55 233.859 323.645 234.162C323.744 234.465 323.794 234.801 323.794 235.17V238.011C323.794 238.565 323.858 239.02 323.986 239.375C324.118 239.73 324.341 239.993 324.653 240.163C324.971 240.339 325.404 240.426 325.953 240.426V241.818ZM320.129 233.58V231.875H321.805V233.58H320.129ZM332.972 240.199C332.375 240.189 331.779 240.076 331.182 239.858C330.586 239.64 330.041 239.273 329.549 238.757C329.056 238.236 328.661 237.533 328.363 236.648C328.064 235.758 327.915 234.64 327.915 233.295C327.915 232.008 328.036 230.866 328.277 229.872C328.519 228.873 328.869 228.033 329.328 227.351C329.788 226.664 330.342 226.143 330.99 225.788C331.644 225.433 332.38 225.256 333.199 225.256C334.014 225.256 334.738 225.419 335.373 225.746C336.012 226.068 336.533 226.518 336.935 227.095C337.337 227.673 337.598 228.338 337.716 229.091H335.983C335.822 228.437 335.51 227.895 335.046 227.464C334.582 227.034 333.966 226.818 333.199 226.818C332.072 226.818 331.185 227.308 330.536 228.288C329.892 229.268 329.568 230.644 329.563 232.415H329.676C329.942 232.012 330.257 231.669 330.621 231.385C330.99 231.096 331.398 230.874 331.843 230.717C332.288 230.561 332.759 230.483 333.256 230.483C334.089 230.483 334.852 230.691 335.543 231.108C336.234 231.52 336.788 232.09 337.205 232.82C337.622 233.544 337.83 234.375 337.83 235.312C337.83 236.212 337.629 237.036 337.226 237.784C336.824 238.527 336.258 239.119 335.529 239.56C334.804 239.995 333.952 240.208 332.972 240.199ZM332.972 238.636C333.569 238.636 334.104 238.487 334.577 238.189C335.055 237.891 335.432 237.491 335.706 236.989C335.986 236.487 336.125 235.928 336.125 235.312C336.125 234.711 335.99 234.164 335.721 233.672C335.455 233.175 335.088 232.779 334.62 232.486C334.156 232.192 333.625 232.045 333.029 232.045C332.579 232.045 332.16 232.135 331.772 232.315C331.383 232.491 331.042 232.732 330.749 233.04C330.46 233.348 330.233 233.7 330.067 234.098C329.901 234.491 329.819 234.905 329.819 235.341C329.819 235.919 329.953 236.458 330.223 236.96C330.498 237.462 330.872 237.867 331.346 238.175C331.824 238.482 332.366 238.636 332.972 238.636ZM342.468 238.011L342.354 238.778C342.274 239.318 342.15 239.896 341.985 240.511C341.824 241.127 341.656 241.707 341.48 242.251C341.305 242.796 341.161 243.229 341.047 243.551H339.769C339.83 243.248 339.911 242.848 340.01 242.351C340.11 241.854 340.209 241.297 340.309 240.682C340.413 240.071 340.498 239.446 340.564 238.807L340.65 238.011H342.468ZM355.715 240.199C354.882 240.199 354.131 240.033 353.464 239.702C352.796 239.37 352.261 238.916 351.859 238.338C351.456 237.76 351.236 237.102 351.198 236.364H352.903C352.969 237.022 353.267 237.566 353.798 237.997C354.333 238.423 354.972 238.636 355.715 238.636C356.312 238.636 356.842 238.497 357.306 238.217C357.775 237.938 358.142 237.554 358.407 237.067C358.677 236.574 358.812 236.018 358.812 235.398C358.812 234.763 358.672 234.197 358.393 233.7C358.118 233.198 357.739 232.803 357.256 232.514C356.773 232.225 356.222 232.079 355.602 232.074C355.156 232.069 354.7 232.138 354.231 232.28C353.762 232.417 353.376 232.595 353.073 232.812L351.425 232.614L352.306 225.455H359.863V227.017H353.783L353.272 231.307H353.357C353.656 231.07 354.03 230.874 354.479 230.717C354.929 230.561 355.398 230.483 355.886 230.483C356.776 230.483 357.569 230.696 358.265 231.122C358.966 231.544 359.515 232.121 359.913 232.855C360.315 233.589 360.516 234.427 360.516 235.369C360.516 236.297 360.308 237.126 359.891 237.855C359.479 238.58 358.911 239.152 358.187 239.574C357.462 239.991 356.638 240.199 355.715 240.199ZM365.319 238.011L365.206 238.778C365.125 239.318 365.002 239.896 364.836 240.511C364.675 241.127 364.507 241.707 364.332 242.251C364.157 242.796 364.012 243.229 363.899 243.551H362.62C362.682 243.248 362.762 242.848 362.862 242.351C362.961 241.854 363.061 241.297 363.16 240.682C363.264 240.071 363.35 239.446 363.416 238.807L363.501 238.011H365.319ZM373.68 237.017V235.568L380.072 225.455H381.124V227.699H380.413L375.584 235.341V235.455H384.192V237.017H373.68ZM380.527 240V236.577V235.902V225.455H382.203V240H380.527ZM388.698 238.011L388.585 238.778C388.504 239.318 388.381 239.896 388.215 240.511C388.054 241.127 387.886 241.707 387.711 242.251C387.536 242.796 387.391 243.229 387.278 243.551H385.999C386.061 243.248 386.141 242.848 386.241 242.351C386.34 241.854 386.44 241.297 386.539 240.682C386.643 240.071 386.728 239.446 386.795 238.807L386.88 238.011H388.698ZM402.315 240.199C401.377 240.199 400.542 240.038 399.808 239.716C399.079 239.394 398.499 238.946 398.068 238.374C397.642 237.796 397.41 237.126 397.372 236.364H399.162C399.199 236.832 399.36 237.237 399.645 237.578C399.929 237.914 400.3 238.175 400.76 238.359C401.219 238.544 401.728 238.636 402.287 238.636C402.912 238.636 403.466 238.527 403.949 238.31C404.431 238.092 404.81 237.789 405.085 237.401C405.359 237.012 405.497 236.562 405.497 236.051C405.497 235.516 405.364 235.045 405.099 234.638C404.834 234.226 404.446 233.904 403.934 233.672C403.423 233.44 402.798 233.324 402.059 233.324H400.895V231.761H402.059C402.637 231.761 403.144 231.657 403.579 231.449C404.02 231.241 404.363 230.947 404.609 230.568C404.86 230.189 404.985 229.744 404.985 229.233C404.985 228.741 404.877 228.312 404.659 227.947C404.441 227.583 404.133 227.299 403.735 227.095C403.342 226.892 402.878 226.79 402.343 226.79C401.842 226.79 401.368 226.882 400.923 227.067C400.483 227.247 400.123 227.509 399.843 227.855C399.564 228.196 399.413 228.608 399.389 229.091H397.684C397.713 228.329 397.942 227.661 398.373 227.088C398.804 226.51 399.368 226.061 400.064 225.739C400.764 225.417 401.534 225.256 402.372 225.256C403.271 225.256 404.043 225.438 404.687 225.803C405.331 226.162 405.826 226.638 406.172 227.23C406.517 227.822 406.69 228.461 406.69 229.148C406.69 229.967 406.475 230.665 406.044 231.243C405.618 231.821 405.038 232.221 404.304 232.443V232.557C405.222 232.708 405.94 233.099 406.456 233.729C406.972 234.354 407.23 235.128 407.23 236.051C407.23 236.842 407.014 237.552 406.583 238.182C406.157 238.807 405.575 239.299 404.836 239.659C404.098 240.019 403.257 240.199 402.315 240.199ZM412.214 238.011L412.1 238.778C412.02 239.318 411.897 239.896 411.731 240.511C411.57 241.127 411.402 241.707 411.227 242.251C411.051 242.796 410.907 243.229 410.793 243.551H409.515C409.576 243.248 409.657 242.848 409.756 242.351C409.856 241.854 409.955 241.297 410.055 240.682C410.159 240.071 410.244 239.446 410.31 238.807L410.396 238.011H412.214ZM420.916 240V238.722L425.717 233.466C426.28 232.85 426.744 232.315 427.109 231.861C427.474 231.402 427.743 230.971 427.919 230.568C428.099 230.161 428.189 229.735 428.189 229.29C428.189 228.778 428.065 228.336 427.819 227.962C427.578 227.588 427.246 227.299 426.825 227.095C426.404 226.892 425.93 226.79 425.404 226.79C424.846 226.79 424.358 226.906 423.941 227.138C423.529 227.365 423.21 227.685 422.983 228.097C422.76 228.509 422.649 228.991 422.649 229.545H420.973C420.973 228.693 421.169 227.945 421.562 227.301C421.955 226.657 422.49 226.155 423.167 225.795C423.849 225.436 424.614 225.256 425.461 225.256C426.314 225.256 427.069 225.436 427.727 225.795C428.385 226.155 428.901 226.641 429.275 227.251C429.649 227.862 429.836 228.542 429.836 229.29C429.836 229.825 429.739 230.348 429.545 230.859C429.356 231.366 429.024 231.932 428.551 232.557C428.082 233.177 427.431 233.935 426.598 234.83L423.331 238.324V238.438H430.092V240H420.916ZM438.025 232.699V233.58C437.234 233.58 436.681 233.745 436.363 234.077C436.051 234.408 435.895 234.962 435.895 235.739V238.011C435.895 238.665 435.831 239.231 435.703 239.709C435.58 240.187 435.376 240.582 435.092 240.895C434.808 241.207 434.429 241.439 433.956 241.591C433.482 241.742 432.897 241.818 432.201 241.818V240.426C432.751 240.426 433.181 240.339 433.494 240.163C433.811 239.993 434.034 239.73 434.162 239.375C434.294 239.02 434.36 238.565 434.36 238.011V235.17C434.36 234.801 434.408 234.465 434.502 234.162C434.602 233.859 434.782 233.598 435.042 233.381C435.303 233.163 435.672 232.995 436.15 232.876C436.633 232.758 437.258 232.699 438.025 232.699ZM432.201 223.636C432.897 223.636 433.482 223.712 433.956 223.864C434.429 224.015 434.808 224.247 435.092 224.56C435.376 224.872 435.58 225.268 435.703 225.746C435.831 226.224 435.895 226.79 435.895 227.443V229.716C435.895 230.492 436.051 231.046 436.363 231.378C436.681 231.709 437.234 231.875 438.025 231.875V232.756C437.258 232.756 436.633 232.696 436.15 232.578C435.672 232.46 435.303 232.292 435.042 232.074C434.782 231.856 434.602 231.596 434.502 231.293C434.408 230.99 434.36 230.653 434.36 230.284V227.443C434.36 226.889 434.294 226.435 434.162 226.08C434.034 225.72 433.811 225.455 433.494 225.284C433.181 225.114 432.751 225.028 432.201 225.028V223.636ZM438.025 231.875V233.58H436.349V231.875H438.025Z" fill="black"/>
<path d="M165.227 106.557V107.807H160.136V106.557H165.227ZM171.655 101.364V113H170.246V102.841H170.178L167.337 104.727V103.295L170.246 101.364H171.655Z" fill="#DC0000"/>
<path d="M226.227 106.557V107.807H221.136V106.557H226.227ZM232.655 101.364V113H231.246V102.841H231.178L228.337 104.727V103.295L231.246 101.364H232.655Z" fill="#DC0000"/>
<path d="M287.227 106.557V107.807H282.136V106.557H287.227ZM293.655 101.364V113H292.246V102.841H292.178L289.337 104.727V103.295L292.246 101.364H293.655Z" fill="#DC0000"/>
<path d="M348.227 106.557V107.807H343.136V106.557H348.227ZM354.655 101.364V113H353.246V102.841H353.178L350.337 104.727V103.295L353.246 101.364H354.655Z" fill="#DC0000"/>
<path d="M408.227 106.557V107.807H403.136V106.557H408.227ZM414.655 101.364V113H413.246V102.841H413.178L410.337 104.727V103.295L413.246 101.364H414.655Z" fill="#DC0000"/>
<path d="M469.227 106.557V107.807H464.136V106.557H469.227ZM475.655 101.364V113H474.246V102.841H474.178L471.337 104.727V103.295L474.246 101.364H475.655Z" fill="#DC0000"/>
<line x1="136.5" y1="22" x2="136.5" y2="84" stroke="black"/>
<line x1="501.5" y1="21" x2="501.5" y2="83" stroke="black"/>
<path d="M168 169.159C167.144 169.159 166.415 168.926 165.812 168.46C165.21 167.991 164.75 167.311 164.432 166.42C164.114 165.527 163.955 164.447 163.955 163.182C163.955 161.924 164.114 160.85 164.432 159.96C164.754 159.066 165.216 158.384 165.818 157.915C166.424 157.441 167.152 157.205 168 157.205C168.848 157.205 169.574 157.441 170.176 157.915C170.782 158.384 171.244 159.066 171.562 159.96C171.884 160.85 172.045 161.924 172.045 163.182C172.045 164.447 171.886 165.527 171.568 166.42C171.25 167.311 170.79 167.991 170.188 168.46C169.585 168.926 168.856 169.159 168 169.159ZM168 167.909C168.848 167.909 169.508 167.5 169.977 166.682C170.447 165.864 170.682 164.697 170.682 163.182C170.682 162.174 170.574 161.316 170.358 160.608C170.146 159.9 169.839 159.36 169.438 158.989C169.04 158.617 168.561 158.432 168 158.432C167.159 158.432 166.502 158.847 166.028 159.676C165.555 160.502 165.318 161.67 165.318 163.182C165.318 164.189 165.424 165.045 165.636 165.75C165.848 166.455 166.153 166.991 166.551 167.358C166.953 167.725 167.436 167.909 168 167.909Z" fill="#00A538"/>
<line x1="136" y1="194.5" x2="502" y2="194.5" stroke="black"/>
<line x1="136" y1="132.5" x2="502" y2="132.5" stroke="black"/>
<path d="M229 169.159C228.144 169.159 227.415 168.926 226.812 168.46C226.21 167.991 225.75 167.311 225.432 166.42C225.114 165.527 224.955 164.447 224.955 163.182C224.955 161.924 225.114 160.85 225.432 159.96C225.754 159.066 226.216 158.384 226.818 157.915C227.424 157.441 228.152 157.205 229 157.205C229.848 157.205 230.574 157.441 231.176 157.915C231.782 158.384 232.244 159.066 232.562 159.96C232.884 160.85 233.045 161.924 233.045 163.182C233.045 164.447 232.886 165.527 232.568 166.42C232.25 167.311 231.79 167.991 231.188 168.46C230.585 168.926 229.856 169.159 229 169.159ZM229 167.909C229.848 167.909 230.508 167.5 230.977 166.682C231.447 165.864 231.682 164.697 231.682 163.182C231.682 162.174 231.574 161.316 231.358 160.608C231.146 159.9 230.839 159.36 230.438 158.989C230.04 158.617 229.561 158.432 229 158.432C228.159 158.432 227.502 158.847 227.028 159.676C226.555 160.502 226.318 161.67 226.318 163.182C226.318 164.189 226.424 165.045 226.636 165.75C226.848 166.455 227.153 166.991 227.551 167.358C227.953 167.725 228.436 167.909 229 167.909Z" fill="#00A538"/>
<path d="M290 169.159C289.144 169.159 288.415 168.926 287.812 168.46C287.21 167.991 286.75 167.311 286.432 166.42C286.114 165.527 285.955 164.447 285.955 163.182C285.955 161.924 286.114 160.85 286.432 159.96C286.754 159.066 287.216 158.384 287.818 157.915C288.424 157.441 289.152 157.205 290 157.205C290.848 157.205 291.574 157.441 292.176 157.915C292.782 158.384 293.244 159.066 293.562 159.96C293.884 160.85 294.045 161.924 294.045 163.182C294.045 164.447 293.886 165.527 293.568 166.42C293.25 167.311 292.79 167.991 292.188 168.46C291.585 168.926 290.856 169.159 290 169.159ZM290 167.909C290.848 167.909 291.508 167.5 291.977 166.682C292.447 165.864 292.682 164.697 292.682 163.182C292.682 162.174 292.574 161.316 292.358 160.608C292.146 159.9 291.839 159.36 291.438 158.989C291.04 158.617 290.561 158.432 290 158.432C289.159 158.432 288.502 158.847 288.028 159.676C287.555 160.502 287.318 161.67 287.318 163.182C287.318 164.189 287.424 165.045 287.636 165.75C287.848 166.455 288.153 166.991 288.551 167.358C288.953 167.725 289.436 167.909 290 167.909Z" fill="#DC0000"/>
<path d="M351 169.159C350.144 169.159 349.415 168.926 348.812 168.46C348.21 167.991 347.75 167.311 347.432 166.42C347.114 165.527 346.955 164.447 346.955 163.182C346.955 161.924 347.114 160.85 347.432 159.96C347.754 159.066 348.216 158.384 348.818 157.915C349.424 157.441 350.152 157.205 351 157.205C351.848 157.205 352.574 157.441 353.176 157.915C353.782 158.384 354.244 159.066 354.562 159.96C354.884 160.85 355.045 161.924 355.045 163.182C355.045 164.447 354.886 165.527 354.568 166.42C354.25 167.311 353.79 167.991 353.188 168.46C352.585 168.926 351.856 169.159 351 169.159ZM351 167.909C351.848 167.909 352.508 167.5 352.977 166.682C353.447 165.864 353.682 164.697 353.682 163.182C353.682 162.174 353.574 161.316 353.358 160.608C353.146 159.9 352.839 159.36 352.438 158.989C352.04 158.617 351.561 158.432 351 158.432C350.159 158.432 349.502 158.847 349.028 159.676C348.555 160.502 348.318 161.67 348.318 163.182C348.318 164.189 348.424 165.045 348.636 165.75C348.848 166.455 349.153 166.991 349.551 167.358C349.953 167.725 350.436 167.909 351 167.909Z" fill="#DC0000"/>
<path d="M411 169.159C410.144 169.159 409.415 168.926 408.812 168.46C408.21 167.991 407.75 167.311 407.432 166.42C407.114 165.527 406.955 164.447 406.955 163.182C406.955 161.924 407.114 160.85 407.432 159.96C407.754 159.066 408.216 158.384 408.818 157.915C409.424 157.441 410.152 157.205 411 157.205C411.848 157.205 412.574 157.441 413.176 157.915C413.782 158.384 414.244 159.066 414.562 159.96C414.884 160.85 415.045 161.924 415.045 163.182C415.045 164.447 414.886 165.527 414.568 166.42C414.25 167.311 413.79 167.991 413.188 168.46C412.585 168.926 411.856 169.159 411 169.159ZM411 167.909C411.848 167.909 412.508 167.5 412.977 166.682C413.447 165.864 413.682 164.697 413.682 163.182C413.682 162.174 413.574 161.316 413.358 160.608C413.146 159.9 412.839 159.36 412.438 158.989C412.04 158.617 411.561 158.432 411 158.432C410.159 158.432 409.502 158.847 409.028 159.676C408.555 160.502 408.318 161.67 408.318 163.182C408.318 164.189 408.424 165.045 408.636 165.75C408.848 166.455 409.153 166.991 409.551 167.358C409.953 167.725 410.436 167.909 411 167.909Z" fill="#DC0000"/>
<path d="M472 169.159C471.144 169.159 470.415 168.926 469.812 168.46C469.21 167.991 468.75 167.311 468.432 166.42C468.114 165.527 467.955 164.447 467.955 163.182C467.955 161.924 468.114 160.85 468.432 159.96C468.754 159.066 469.216 158.384 469.818 157.915C470.424 157.441 471.152 157.205 472 157.205C472.848 157.205 473.574 157.441 474.176 157.915C474.782 158.384 475.244 159.066 475.562 159.96C475.884 160.85 476.045 161.924 476.045 163.182C476.045 164.447 475.886 165.527 475.568 166.42C475.25 167.311 474.79 167.991 474.188 168.46C473.585 168.926 472.856 169.159 472 169.159ZM472 167.909C472.848 167.909 473.508 167.5 473.977 166.682C474.447 165.864 474.682 164.697 474.682 163.182C474.682 162.174 474.574 161.316 474.358 160.608C474.146 159.9 473.839 159.36 473.438 158.989C473.04 158.617 472.561 158.432 472 158.432C471.159 158.432 470.502 158.847 470.028 159.676C469.555 160.502 469.318 161.67 469.318 163.182C469.318 164.189 469.424 165.045 469.636 165.75C469.848 166.455 470.153 166.991 470.551 167.358C470.953 167.725 471.436 167.909 472 167.909Z" fill="#DC0000"/>
<line x1="136.5" y1="133" x2="136.5" y2="195" stroke="black"/>
<line x1="501.5" y1="132" x2="501.5" y2="194" stroke="black"/>
</svg>
